CoelacanthHairline.sfdir
StartChar: exclam
Encoding: 33 33 352
Width: 266
Flags: HW
HStem: -21 140<101.678 144.536>
VStem: 54 141<25.3087 69.9365> 109 45<209 415.199>
LayerCount: 2
Fore
SplineSet
121 208 m 1xa0
 121 338.401234568 121 436.703703704 121 533 c 0
 121 579.223 121 602.826 121 652 c 1
 145 652 l 1
 145 618.530745763 145 625.93457206 145 533 c 0
 145 408 145 342 145 208 c 1
 121 208 l 1xa0
EndSplineSet
Refer: 659 46 N 1 0 0 1 23 0 2
Position2: "cpsp-1" dx=0 dy=0 dh=50 dv=100
Substitution2: "pcap-1" exclam.pcap
Substitution2: "smcp-1" exclam.smcp
EndChar
StartChar: dollar
Encoding: 36 36 1372
Width: 463
VWidth: 1159
UnlinkRmOvrlpSave: 1
Flags: HW
HStem: -8 34<169.661 305.631> 391 26<201.367 298.023>
VStem: 100 64<290.012 362.48> 341 55<52.7366 132.167>
LayerCount: 2
Fore
SplineSet
380 364 m 1
 359.615453259 333.666958513 347.52554216 312 327 286 c 1
 308 299 l 1
 325.333333333 320.533898305 343 351.322803561 343 359 c 3
 343 365.462706368 301.903099798 393 258 393 c 3
 187.999979221 393 124 356.640897157 124 306 c 3
 124 269.998653017 190.861142646 252.123366713 252 230 c 0
 337.621557203 199.017459754 396 172.136282257 396 111 c 3
 396 43.2158203125 318.341796875 -8 230 -8 c 3
 158.830078125 -8 95.2880859375 34.1015625 68 83 c 1
 87.0430297852 106.848144531 114.058959961 133.51993815 136 161 c 1
 155 145 l 1
 121.107597157 112.8472259 106 84.091796875 106 82 c 3
 106 59.3344029018 166.839370888 16 233 16 c 3
 317.73156622 16 372 66.8050161802 372 111 c 3
 372 158.833508003 324.406454415 177.19910061 250 204 c 0
 169.214322025 233.098669525 100 253.036272321 100 306 c 3
 100 370.165039062 174.412109375 417 258 417 c 3
 310.523191437 417 354.925119956 388.329782885 380 364 c 1
EndSplineSet
Refer: 1969 58113 N 0.0181668 0.693762 -0.968418 0.0253589 236.417 -147.881 2
Substitution2: "case-1" dollar.alt
Substitution2: "lnum-1" dollar.alt
EndChar
StartChar: ampersand
Encoding: 38 38 188
Width: 676
Flags: HW
HStem: -11 57<161.575 299.635 513.09 600.584> 461 35<584.895 645> 492 33<480.667 506.511>
VStem: 17 72<119.103 262.82> 81 38<475.664 567.366> 289 62<462.542 556.254>
LayerCount: 2
Fore
SplineSet
217.5 389.599609375 m 1x94
 106.601725995 346.266042881 41 267.794563325 41 172 c 3
 41 79.0881694915 108.687529412 7 199 7 c 3
 304.243420824 7 365.885338395 101.96557454 415.5 167.599609375 c 1
 347 306 258.391669811 372.001346663 217.5 389.599609375 c 1x94
233.5 626.599609375 m 3
 202.995561584 626.599609375 105 595 105 506 c 3
 105 458.512517756 172.320923695 433.145152699 216.5 415.599609375 c 1
 283.0154 451.015170779 315.5 487.807390077 315.5 516.599609375 c 3xac
 315.5 600.521248719 259.630510638 626.599609375 233.5 626.599609375 c 3
618.5 479.400390625 m 1xcc
 588.613858156 479.400390625 559.475855021 479.732851922 558 473 c 0
 535.097780454 368.520053979 503.63692038 252.693341648 445.5 165.599609375 c 1
 464.4 120 489.115099548 13 540 13 c 3
 593.065741667 13 628.921291667 74.25 649 113 c 1
 671 103 l 1
 632.745816667 33.3893626168 600.597325 -11 540 -11 c 3
 477.63255493 -11 454.12987013 69.7389943184 426 142 c 1
 395.941324499 100.906621244 323.676672451 -17 199 -17 c 3
 94.0000494118 -17 17 65.1475847458 17 172 c 3xd4
 17 285.68466348 95.2398275862 358.818867094 184.5 401.599609375 c 1
 128.04553012 422.805812511 81 458.693699207 81 506 c 3
 81 597.142879433 156 632.72731303 231 660 c 1
 307.853979275 632.258811324 339.5 587.836832567 339.5 516.599609375 c 3
 339.5 485.336232182 315.513527273 443.872214638 243.5 403.599609375 c 1
 285.67115903 385.496193449 391.607650943 284.606896153 432 188 c 1
 476.032118952 262.00510597 516.988572881 374.794720583 535 480 c 0
 536.441779508 488.421476821 505.092654867 492.771763393 487.5 498.400390625 c 1
 494 522 l 1xac
 525.564346457 511.517 580.425070866 502.345 618 503 c 1
 618.5 479.400390625 l 1xcc
EndSplineSet
Position2: "cpsp-1" dx=0 dy=0 dh=50 dv=100
Substitution2: "pcap-1" ampersand.pcap
Substitution2: "smcp-1" ampersand.smcp
EndChar
StartChar: quotesingle
Encoding: 39 39 78
Width: 200
VWidth: 1159
Flags: W
HStem: 451.7 242<86 110>
VStem: 86 24<451.7 693.7>
LayerCount: 2
Fore
SplineSet
86 693.7 m 1
 110 693.7 l 1
 110 451.7 l 1
 86 451.7 l 1
 86 693.7 l 1
EndSplineSet
Position2: "Extra space for context kern-1" dx=35 dy=0 dh=70 dv=0
Position2: "cpsp-1" dx=0 dy=0 dh=7 dv=14
EndChar
StartChar: parenleft
Encoding: 40 40 655
Width: 383
Flags: HW
VStem: 37 60<49.4585 379.9>
LayerCount: 2
Fore
SplineSet
332 729 m 1
 343 707 l 1
 152.838979167 609.513529762 61 416.99275 61 214 c 3
 61 14.1514803536 142.432841379 -169.973108055 345 -285 c 1
 333 -305 l 1
 140.854703448 -198.169337917 37 -19.8019546169 37 214 c 3
 37 447.264345238 148.133333333 636.048839286 332 729 c 1
EndSplineSet
Position2: "cpsp-1" dx=0 dy=0 dh=50 dv=100
Position2: "'case' vertical ajustments for all-caps-1" dx=0 dy=125 dh=0 dv=0
EndChar
StartChar: asterisk
Encoding: 42 42 86
Width: 362
Flags: HW
HStem: 402 21G<232.5 263.5>
VStem: 135 79<610.995 694.668>
LayerCount: 2
Fore
SplineSet
187.995183915 518.485299444 m 1
 163.965087297 478.12937399 148.949705885 454.551010783 117.235017439 402.735463464 c 1
 96.7583782659 415.253733625 l 1
 128.136573522 466.641212813 141.760084156 487.893199826 167.90214956 531.701034584 c 1
 120.246889807 543.456600447 92.4880012019 551.054346655 35.8578694336 566.418678163 c 1
 42.0977275361 589.59327754 l 1
 99.2319679878 574.326989875 128.546168706 566.461696381 173.21131494 555.204472054 c 1
 168.889145936 608.735308986 165.818906068 637.818365985 161.540109745 690.019681127 c 1
 185.455932415 692.027462942 l 1
 190.027241183 638.834051823 192.986605419 611.967820224 197.232425817 556.872369998 c 1
 248.980794414 578.139526085 269.788025067 587.154873816 323.81821159 610.049020648 c 1
 333.202344782 587.959712252 l 1
 284.222827792 567.098066127 256.825221337 555.025252898 206.137704962 534.480921836 c 1
 239.889018653 493.305036394 258.377664994 471.648632828 294.030920336 430.902055294 c 1
 276.031088176 415.027633934 l 1
 239.722718085 455.874550286 221.342486895 477.237899984 187.995183915 518.485299444 c 1
EndSplineSet
EndChar
StartChar: comma
Encoding: 44 44 2567
Width: 200
VWidth: 1159
Flags: W
HStem: -133 252
VStem: 28 144
LayerCount: 2
Fore
SplineSet
69 -98 m 1
 51 -82 l 1
 85 -46 97.3005971621 -1.84396615825 92 8 c 0
 85 21 72.4698776253 29.9611790971 58 38 c 0
 55 39.6666666667 55 43.8333333333 55 48 c 3
 55 51.8571428571 54.8856660237 55.9428330119 57 57 c 0
 73 65 86.5354518709 72.5571500644 92 91 c 0
 92.8888888889 94 96.4444444444 95 100 95 c 3
 104 95 106.810011862 94.1109863287 108 92 c 0
 118.710526316 73 128.430829951 62.5230566831 145 57 c 0
 148 56 148 52 148 48 c 1
 148 39 105 -62 69 -98 c 1
EndSplineSet
EndChar
StartChar: period
Encoding: 46 46 659
Width: 200
Flags: HW
LayerCount: 2
Fore
SplineSet
142.75 37.400390625 m 0
 128.470069679 30.322047742 116.229756123 21.3133286999 108.75 7.7998046875 c 0
 107.703638459 4.7998046875 105.088249716 3 101.950195312 3 c 3
 97.9496372768 3 93.2837146577 4.7998046875 91.9501953125 7.7998046875 c 0
 84.4333025185 21.3133286999 73.5000342893 30.322047742 59.150390625 37.400390625 c 0
 56.150390625 39.0997401623 54.9501953125 45.9003470292 54.9501953125 51 c 3
 54.9501953125 54.1380544037 56.150390625 56.7534431465 59.150390625 57.7998046875 c 0
 73.5000342893 65.087535101 84.4333025185 75.6874699968 91.9501953125 89.599609375 c 0
 93.2837146577 92.599609375 97.9496372768 95 101.950195312 95 c 3
 105.088249716 95 107.703638459 92.599609375 108.75 89.599609375 c 0
 116.229756123 75.6874699968 128.470069679 65.087535101 142.75 57.7998046875 c 0
 145.75 56.7534431465 147.549804688 54.1380544037 147.549804688 51 c 3
 147.549804688 45.9003470292 145.75 39.0997401623 142.75 37.400390625 c 0
EndSplineSet
Position2: "Extra space for context kern-1" dx=78 dy=0 dh=156 dv=0
Position2: "cpsp-1" dx=0 dy=0 dh=7 dv=14
EndChar
StartChar: zero
Encoding: 48 48 63
Width: 502
VWidth: 1159
Flags: HW
HStem: 1 33<197.15 313.348> 358 36<174.377 296.898>
VStem: 49 73<109.281 280.474> 362 79<105.768 284.433>
LayerCount: 2
Fore
SplineSet
248 376 m 3
 154 376 73 291 73 194 c 3
 73 98 151 19 249 19 c 3
 346 19 417 97 417 194 c 3
 417 294 341 376 248 376 c 3
248 400 m 3
 356 400 441 306 441 194 c 3
 441 85 360 -5 249 -5 c 3
 138 -5 49 85 49 194 c 3
 49 304 139 400 248 400 c 3
EndSplineSet
Substitution2: "'zero' Slashed Zero lookup 22-1" zero.alt
Substitution2: "dnom-1" zero.denom
Substitution2: "numr-1" zero.numerator
Substitution2: "lnum-1" zero.proportionallining
Substitution2: "tnum-1" zero.tabulartext
EndChar
StartChar: one
Encoding: 49 49 64
Width: 371
VWidth: 1159
Flags: HW
HStem: 0 26<70 121.33 233.02 288> 369 23<80 132.532> 379 23<243.588 282.609>
VStem: 151 61<44.4318 360.804>
LayerCount: 2
Fore
SplineSet
98 398 m 5xd0
 142 394 216 395 263 408 c 5
 267 384 l 5xb0
 199 372 193 374 193 334 c 4
 193 325 193 252 193 200 c 7
 193 141 193 64 193 47 c 4
 193 22 193 25 271 18 c 5
 269 -6 l 5
 207 0 150 1 88 -6 c 5
 87 18 l 5
 168 25 169 24 169 51 c 4
 169 61 169 86 169 200 c 7
 169 303 170 326 170 332 c 4
 170 372 170 370 98 374 c 5
 98 398 l 5xd0
EndSplineSet
Substitution2: "dnom-1" one.denom
Substitution2: "numr-1" one.numerator
Substitution2: "tnum-1" one.tabulartext
Substitution2: "lnum-1" one.proportionallining
EndChar
StartChar: two
Encoding: 50 50 65
Width: 445
VWidth: 1159
Flags: HW
HStem: -11 21G<353 372.5> 2 64<121 368.376> 405 53<115.723 234.173>
VStem: 260 68<263.541 378.966>
LayerCount: 2
Fore
SplineSet
54 367 m 5x70
 81 414 121 458 190 458 c 4
 267 458 329 405 329 335 c 7
 329 196 95 50 74 23 c 5x70
 337 24 l 6
 350 24 372 83 412 129 c 5
 431 113 l 5
 431 113 377 47 374 0 c 5xb0
 339 0 263 1 187 0 c 4
 97 -1 38 -1 33 -1 c 5
 27 18 l 5
 99 78 305 217 305 335 c 7
 305 397 246 434 190 434 c 4
 133 434 99 397 74 353 c 5
 54 367 l 5x70
EndSplineSet
Substitution2: "dnom-1" two.denom
Substitution2: "numr-1" two.numerator
Substitution2: "tnum-1" two.tabulartext
Substitution2: "lnum-1" two.proportionallining
EndChar
StartChar: three
Encoding: 51 51 65
Width: 388
VWidth: 1159
Flags: HW
HStem: -234 26<98.3077 116.651> 122 26<93 117.144> 402 52<130.681 219.829>
VStem: 236 67<266.659 384.313> 251 72<-77.1723 66.4688>
LayerCount: 2
Fore
SplineSet
101 -217 m 1xe8
 237 -167 292 -71 292 7 c 3xe8
 292 80 221 125 162 147 c 1
 157 147 122 126 96 122 c 1
 90 145 l 1
 162 165 272 227 272 345 c 3
 272 414 211 436 188 436 c 3
 150 436 109 402 92 371 c 1
 74 385 l 1
 83 415 139 460 186 460 c 3
 245 460 296 413 296 346 c 3xf0
 296 227 195 166 191 162 c 1
 243 140 316 90 316 6 c 3
 316 -146 150 -233 109 -240 c 1
 101 -217 l 1xe8
EndSplineSet
Substitution2: "dnom-1" three.denom
Substitution2: "numr-1" three.numerator
Substitution2: "tnum-1" three.tabulartext
Substitution2: "lnum-1" three.proportionallining
EndChar
StartChar: four
Encoding: 52 52 66
Width: 463
VWidth: 1159
Flags: HW
HStem: -7 21G<403.519 423.775> 0 46<56.3721 256 317 407.937> 402 20G<309.934 344>
VStem: 256 61<-178.286 0 45.5 270.662> 320 24<404.437 413.313>
LayerCount: 2
Fore
SplineSet
278 22 m 1x78
 278 127 278 242 278 313 c 1
 278 313 139 135 40 22 c 1
 278 22 l 1x78
341 406 m 1
 326 377 302 347 302 338 c 0
 302 217 302 160 302 23 c 1x78
 406 24 395 17 434 100 c 1
 434 100 450 92 455 90 c 1
 455 90 429 31 410 -7 c 1xb8
 394 1 333 0 302 0 c 1
 301 -180 290 -167 318 -180 c 1
 282 -204 262 -226 249 -252 c 1
 249 -252 229 -247 226 -244 c 1
 255 -163 277 -250 278 0 c 1
 55 0 20 1 8 -14 c 1
 8 -14 -6 -2 -10 1 c 1
 5 17 297 361 318 415 c 1
 341 406 l 1
EndSplineSet
Substitution2: "dnom-1" four.denom
Substitution2: "numr-1" four.numerator
Substitution2: "tnum-1" four.tabulartext
Substitution2: "lnum-1" four.proportionallining
EndChar
StartChar: five
Encoding: 53 53 67
Width: 362
Flags: HW
HStem: 326 72<120.63 288.458>
VStem: 246 63<-40.6381 97.0244>
LayerCount: 2
Fore
SplineSet
97 394 m 1
 157 396 236 396 250 398 c 0
 282 402 299 428 313 448 c 1
 313 448 329 437 333 434 c 1
 311 398 275 373 256 372 c 0
 228 371 179 370 122 370 c 1
 122 370 114 285 108 218 c 1
 188 223 302 171 302 48 c 3
 302 -95 153 -204 50 -213 c 1
 50 -213 50 -193 49 -188 c 1
 144 -179 278 -79 278 48 c 3
 278 117 227 206 79 193 c 1
 86 239 94 321 97 394 c 1
EndSplineSet
Substitution2: "dnom-1" five.denom
Substitution2: "numr-1" five.numerator
Substitution2: "tnum-1" five.tabulartext
Substitution2: "lnum-1" five.proportionallining
EndChar
StartChar: six
Encoding: 54 54 68
Width: 487
VWidth: 1159
Flags: HW
HStem: -10 40<223.82 328.156> 320 44<211.153 311.825>
VStem: 68 72<129.031 347.68> 372 64<95.8203 248.065>
LayerCount: 2
Fore
SplineSet
362 635 m 1
 370 613 l 1
 196 551 92 395 92 214 c 3
 92 123 149 8 254 8 c 3
 340 8 412 98 412 178 c 3
 412 276 347 346 271 346 c 3
 218 346 169 313 143 244 c 1
 121 252 l 1
 144 321 201 370 271 370 c 3
 371 370 436 282 436 178 c 3
 436 80 350 -16 254 -16 c 3
 135 -16 68 107 68 214 c 3
 68 421 190 576 362 635 c 1
EndSplineSet
Substitution2: "dnom-1" six.denom
Substitution2: "numr-1" six.numerator
Substitution2: "tnum-1" six.tabulartext
Substitution2: "lnum-1" six.proportionallining
EndChar
StartChar: seven
Encoding: 55 55 69
Width: 420
VWidth: 1159
Flags: HW
HStem: 339 67<81.377 333.466> 407 20G<54 81>
LayerCount: 2
Fore
SplineSet
81 419 m 5
 79 414 78 414 114 414 c 0
 233 414 406 414 420 414 c 1
 429 394 l 1
 410 362 177 -61 114 -174 c 1
 93 -162 l 1
 198 28 282 182 397 387 c 0
 398 389 397 390 396 390 c 0
 297 390 285 390 135 390 c 0
 64 390 75 390 35 289 c 1
 13 297 l 1
 18 315 51 393 57 423 c 1
 81 419 l 5
EndSplineSet
Substitution2: "dnom-1" seven.denom
Substitution2: "numr-1" seven.numerator
Substitution2: "tnum-1" seven.tabulartext
Substitution2: "lnum-1" seven.proportionallining
EndChar
StartChar: eight
Encoding: 56 56 70
Width: 468
UnlinkRmOvrlpSave: 1
Flags: HW
HStem: -7 34<188.562 300.068> 601 30<170.77 259.56>
VStem: 55 66<92.7065 220.453> 86 44<449.749 557.966> 313 57<427.637 550.637> 339 66<77.2167 214.897>
LayerCount: 2
Fore
SplineSet
222 613 m 3xe8
 150 613 110 542 110 484 c 3
 110 351 405 322 405 155 c 3xd4
 405 52 321 -13 215 -13 c 3
 122 -13 55 48 55 133 c 3
 55 354 346 329 346 497 c 3
 346 548 310 613 222 613 c 3xe8
222 637 m 3
 308 637 370 578 370 497 c 3
 370 308 79 338 79 133 c 3xe8
 79 73 122 11 215 11 c 3
 347 11 381 106 381 147 c 3
 381 237 314 267 229 321 c 0
 161 364 86 407 86 484 c 3
 86 568 145 637 222 637 c 3
EndSplineSet
Substitution2: "dnom-1" eight.denom
Substitution2: "numr-1" eight.numerator
Substitution2: "lnum-1" eight.proportionallining
Substitution2: "tnum-1" eight.tabulartext
EndChar
StartChar: greater
Encoding: 62 62 332
Width: 463
Flags: HW
HStem: -7 21G<70.4615 113.429> 392 20G<91.5605 135.282>
LayerCount: 2
Fore
SplineSet
83 392 m 1
 96 412 l 1
 412 205 l 5
 94 -7 l 1
 82 14 l 1
 368 205 l 5
 83 392 l 1
EndSplineSet
Position2: "'case' vertical ajustments for all-caps-1" dx=0 dy=90 dh=0 dv=0
EndChar
StartChar: question
Encoding: 63 63 73
Width: 378
VWidth: 1159
Flags: W
HStem: -21 140<96.678 139.536> 680.8 20G<23 62.5>
VStem: 49 141<25.3087 69.9365> 110 18<184.428 224.678> 274 27<382.756 487.933>
LayerCount: 2
Fore
SplineSet
38 621.200195312 m 1xd8
 38.1081984255 627.762728233 38.1591796875 633.972002314 38.1591796875 639.849609375 c 0
 38.1591796875 655.598163308 26.533203125 678.105768051 26.533203125 682.963867188 c 0
 26.533203125 685.79512718 31.0000394605 696.15090633 50 702 c 1
 60.9634782609 655.119148936 68.5890567821 654 98 654 c 3
 206.171374302 654 301 570.774798197 301 444.799804688 c 3
 301 276.805234066 150.929 263.541866834 132 257.799804688 c 0
 132 257.799804688 132 220.862143027 132 179 c 1
 132 179 114.408 178.799804688 108 178.799804688 c 1
 108 202.70115019 107.905273438 227.368598934 107.905273438 245 c 3
 107.905273438 264.126565816 107.891929 276.765012002 108 276.799804688 c 0
 151 288.48116062 277 297.794109772 277 444.799804688 c 3
 277 556.928682081 191.140276032 628.908203125 99.8427734375 628.908203125 c 3
 79.2688070345 628.908203125 58.496856659 626.398633614 38 621.200195312 c 1xd8
EndSplineSet
Refer: 47 46 N 1 0 0 1 18 0 2
Position2: "cpsp-1" dx=0 dy=0 dh=50 dv=100
Substitution2: "smcp-1" question.smcp
Substitution2: "pcap-1" question.pcap
EndChar
StartChar: at
Encoding: 64 64 874
Width: 802
VWidth: 1159
Flags: W
HStem: -184 52<296.563 523.286> -31 20G<676.376 717.315> 1.09961 47.7002<458.768 559.989> 6.5 58.5<278.488 363.298> 517 44<312.978 552.39>
VStem: 37 69<49.8848 285.86> 222.851 64.0986<81.8658 195.602> 713 47<195.839 377.338>
LayerCount: 2
Fore
SplineSet
551.754882812 335 m 1xdf
 519.088216147 278.3 494.171593092 207.931938142 481.754882812 150.5 c 0
 476.087606991 124.286725544 473.639648438 94.2299136959 473.639648438 83.1396484375 c 3
 473.639648438 47.8383267743 480.843330747 33 488 33 c 3
 515.787979032 33 570.176269293 52.6283867661 615.5 82.5 c 0
 666.451848418 116.080949444 736 199.719602978 736 287 c 3
 736 441.641163793 589.278573883 537 443 537 c 3
 238.193753165 537 61 372.677222222 61 157 c 3
 61 -33.3020103806 225.117887789 -160 398 -160 c 3
 522.701101639 -160 636.03917377 -97.4427809917 714 -11 c 1
 720.63 -17.63 724.37 -21.37 731 -28 c 1
 659 -111 535.675 -184 398 -184 c 3
 215.848 -184 37 -52.6006 37 157 c 3
 37 379.824 218.625 561 442 561 c 3
 602.303 561 760 456.039 760 288 c 3
 760 186.984026966 686.037358421 99.6449641599 631.5 64.5 c 0
 596.0641037 41.6643999361 536.356023834 8 489 8 c 3xef
 452.534573643 8 448.255555556 50.3830780863 451 94 c 1
 400.910252004 44.543464477 331.647604569 6.5 283.955078125 6.5 c 3
 239.206451749 6.5 206.850585938 53.7986757263 206.850585938 103.969726562 c 3
 206.850585938 200.76356766 288.141455759 286.353932142 361.455078125 320.400390625 c 0
 411.197074368 343.500310603 465.011001643 360.027738139 543.754882812 377.299804688 c 0
 553.533365895 379.444664809 563.759603227 389.067959583 567.455078125 395.400390625 c 1
 596.255 398.9 l 1
 581.009118581 377.317 566.733763529 356.207 551.754882812 335 c 1xdf
532.155273438 350.799804688 m 1
 532.155273438 350.799804688 l 3
 531.75087789 350.799804688 429.38088105 329.526464941 358.555664062 291.599609375 c 0
 295.896578411 258.04571159 231 185.12156023 231 104 c 3
 231 64.8769513315 255.461817505 30 285 30 c 3xdf
 336.673460706 30 406.682665532 79.7719188417 453.35546875 127.700195312 c 1
 461.237706801 165.16307447 472.058764077 209.583905705 486.955078125 248.799804688 c 0
 517.139703507 328.263571095 532.155273438 348.152642001 532.155273438 350.799804688 c 3
 532.155273438 350.799804688 l 1
EndSplineSet
Position2: "'case' vertical ajustments for all-caps-1" dx=0 dy=160 dh=0 dv=0
Position2: "cpsp-1" dx=0 dy=0 dh=50 dv=100
EndChar
StartChar: A
Encoding: 65 65 2526
Width: 724
Flags: HMW
HStem: -10 37<482.198 523.465 647.751 697.047> 245 42<244 434.657> 692 20G<355 402.5>
VStem: 357 43<632.023 712>
DStem2: 103 80 161 87 0.391141 0.920331<-3.53261 211.909 245.659 524.174> 414 642 472 236 0.354654 -0.934998<388.302 400.179 571.058 597.203>
AnchorPoint: "Bottom" 360 -15 basechar 0
AnchorPoint: "Ogonek" 530 27 basechar 0
AnchorPoint: "Top" 374 699 basechar 0
LayerCount: 2
Fore
SplineSet
231 314 m 1
 306 314 442 312 512 312 c 1
 462 446 430 533 381 670 c 1
 329 536 283 438 231 314 c 1
570 -7 m 1
 570 17 l 1
 628 27 631 18 616 54 c 0
 581.368164062 138.5546875 559.599609375 195.580078125 522 288 c 1
 446 289 327 290 221 290 c 1
 180.788085938 199.354492188 158.23046875 140.873046875 119 59 c 0
 100 19 108 27 191 19 c 1
 191 -5 l 1
 170 -2 140 0 110 0 c 0
 78 0 47 -2 24 -6 c 1
 24 18 l 1
 74 25 75 18 92 56 c 0
 189.231445312 270.8046875 273.564453125 470.760742188 345 643 c 0
 361 682 362 682 371 711 c 1
 391 711 l 1
 400 684 400 685 415 645 c 0
 505.607421875 400.61328125 562.362304688 250.603515625 646 39 c 0
 654 19 658 22 700 17 c 1
 700 -7 l 1
 675 -3 658 0 637 0 c 0
 620 0 599 -2 570 -7 c 1
EndSplineSet
Position2: "cpsp-1" dx=0 dy=0 dh=50 dv=100
Substitution2: "c2pc-1" a.pcap
Substitution2: "c2sc-1" a.smcp
EndChar
StartChar: B
Encoding: 66 66 27
Width: 584
Flags: HMW
HStem: -4 38<17 91.426 193.57 383.69> 349 30<183 322.635> 653 41<19 86.219 195.972 328.268>
VStem: 101 80<45.6349 349 379 533.879> 388 90<447.929 586.24> 459 90<100.26 258.491>
AnchorPoint: "Bottom" 282 -15 basechar 0
AnchorPoint: "Top" 249 699 basechar 0
LayerCount: 2
Fore
SplineSet
19 20 m 1
 85 24 86 22 86 54 c 0
 86 59.9008264463 86 166.115702479 86 292 c 3
 86 472.854700855 86 627.170940171 86 637 c 0
 86 663 86 662 65 664 c 0
 59 665 26 669 20 670 c 1
 24 693 l 1
 33 693 70 684 121 684 c 3
 170 684 221 694 267 694 c 3
 410 694 448 575.978021978 448 515 c 3
 448 445.429530201 400 394.476510067 331 369 c 1
 454 345.255319149 534 278.968085106 534 183 c 3
 534 69.2041884817 432 -6 273 -6 c 3
 224 -6 178 0 125 0 c 3
 70 0 28 -4 21 -4 c 1
 19 20 l 1
267 378 m 0
 369 389.742857143 424 446.5 424 515 c 3
 424 553.259493671 400 670 267 670 c 3
 249 670 215 668 202 666 c 0
 112 655 111 662 111 637 c 0
 111 376 l 1
 240 376 251 376 267 378 c 0
243 352 m 0
 111 352 l 1
 111 240.553264605 111 132.065292096 111 65 c 0
 111 23 113 24 201 22 c 0
 210 22 250 18 273 18 c 3
 402 18 510 74.3173652695 510 183 c 3
 510 266.01754386 433 352 243 352 c 0
EndSplineSet
Position2: "cpsp-1" dx=0 dy=0 dh=50 dv=100
Substitution2: "c2pc-1" b.pcap
Substitution2: "c2sc-1" b.smcp
EndChar
StartChar: C
Encoding: 67 67 2546
Width: 743
Flags: HW
HStem: -9 42<340.099 546.906> 659 40<316.855 538.759>
VStem: 36 103<245.223 465.81> 626 33<522.188 588.436> 666 27<150.932 169.074>
AnchorPoint: "Bottom" 409 -9 basechar 0
AnchorPoint: "Top" 419 699 basechar 0
LayerCount: 2
Fore
SplineSet
43 348 m 3
 43 534.078125 171 713 447 713 c 3
 505 713 535 712 593 699 c 0
 632 692.571289062 677 677.571289062 682 684 c 1
 702 672 l 1
 665 614 666 577 666 556 c 0
 642 556 l 1
 640 623.091796875 663 652.385742188 641 659 c 0
 571 681 526 689 447 689 c 3
 231 689 67 559.97265625 67 348 c 3
 67 140.233398438 251 11 438 11 c 3
 561 11 650 40.2060546875 670 153 c 1
 694 150 l 1
 686 108 679 84 669 42 c 1
 607 11.4443359375 541 -13 438 -13 c 3
 218 -13 43 138.162109375 43 348 c 3
EndSplineSet
Position2: "cpsp-1" dx=0 dy=0 dh=50 dv=100
Substitution2: "c2pc-1" c.pcap
Substitution2: "c2sc-1" c.smcp
EndChar
StartChar: D
Encoding: 68 68 2558
Width: 815
Flags: HW
HStem: -10 38<37.6316 103.688> -7 44<181.868 485.195> 647 41<35 104.506> 659 37<210.563 457.412>
VStem: 116 82<49.5582 525.672> 677 94<221.047 461.211>
AnchorPoint: "Bottom" 379 -15 basechar 0
AnchorPoint: "Top" 379 699 basechar 0
LayerCount: 2
Fore
SplineSet
326 23 m 0x5c
 562 23 729 122.310546875 729 346 c 3
 729 527.168945312 570 666 350 666 c 3
 266 666 219.071289062 662.076171875 134 656 c 0
 106 654 118 666 118 626 c 0
 118 524.751953125 118 430.384765625 118 337 c 3
 118 243.918945312 117 150.842773438 117 52 c 0
 117 34 108 24 135 24 c 0
 186 24 250 23 326 23 c 0x5c
35 682 m 1xac
 71 682 92 682 128 682 c 3
 215 682 263 690 350 690 c 3
 575 690 753 547.077148438 753 346 c 3
 753 85.9912109375 541 -1 326 -1 c 3x5c
 252 -1 209 0 135 0 c 3
 73 0 66 -2 41 -4 c 1
 38 20 l 1
 104 22 91 24 93 49 c 1
 93 124.861328125 93 232.41015625 93 339 c 3
 93 450.071289062 94 558.194335938 94 627 c 1
 92 662 103 656 35 658 c 1
 35 682 l 1xac
EndSplineSet
Position2: "cpsp-1" dx=0 dy=0 dh=50 dv=100
Substitution2: "c2pc-1" d.pcap
Substitution2: "c2sc-1" d.smcp
EndChar
StartChar: E
Encoding: 69 69 2564
Width: 661
Flags: HW
HStem: -9 35<46 91.5829> 3 37<221.897 482.73> 333 36<195 463.393> 656 31<38 98.489>
VStem: 112 93<372.534 637.287> 117 78<90.4624 333 369 602.188> 487 36<247.75 305.348 393.846 441.094> 528 30<536 617.59> 588 28<152.034 171.75>
AnchorPoint: "Bottom" 317 -15 basechar 0
AnchorPoint: "Ogonek" 556 15 basechar 0
AnchorPoint: "Top" 320 699 basechar 0
LayerCount: 2
Fore
SplineSet
37 684 m 1
 37 684 160 684 238 684 c 3
 358 684 545 684 545 684 c 1
 554 676 557 670 557 661 c 3
 557 645.025390625 546 618.715820312 539 552 c 1
 515 552 l 1
 517 642.15625 565.005859375 661.615234375 481 660 c 0
 429 659 352 660 277 660 c 3
 239 660 202 660 169 660 c 0
 107 660 119 665 119 638 c 0
 119 537.530273438 119 451.69140625 119 360 c 1
 210 360 414 360 434 360 c 0
 469 360 460 347 482 421 c 1
 506 421 l 1
 498 396 494 371 494 346 c 3
 494 319 498 293 504 266 c 1
 480 266 l 1
 462 345 469.227539062 336 434 336 c 0
 371 336 251 336 119 336 c 1
 119 218.408203125 119 123.354492188 119 43 c 0
 119 20 106.9921875 23 172 23 c 0
 238 23 295 23 349 23 c 3
 406 23 459 23 517 23 c 0
 540 23 546 55.521484375 573 155 c 1
 596 149 l 1
 588 108.625976562 570 50.9482421875 559 0 c 1
 559 0 361 0 235 0 c 3
 162 0 47 0 47 0 c 1
 47 24 l 1
 95 23 95 22 95 51 c 1
 95 51 95 231.33203125 95 346 c 3
 95 458.280273438 95 635 95 635 c 0
 95 658 107 658 37 660 c 1
 37 684 l 1
EndSplineSet
Position2: "cpsp-1" dx=0 dy=0 dh=50 dv=100
Substitution2: "c2pc-1" e.pcap
Substitution2: "c2sc-1" e.smcp
EndChar
StartChar: F
Encoding: 70 70 31
Width: 566
Flags: HW
HStem: -9 35<33 79.5176> 332 39<186 389.616> 654 31<17 81.7781> 680 20G<514.477 525.182>
VStem: 105 81<84.0664 332 371 638.375> 451 36<246.75 303.707 394.284 440.094> 499 31<534 596.775>
AnchorPoint: "Bottom" 171 -15 basechar 0
AnchorPoint: "Top" 309 699 basechar 0
LayerCount: 2
Fore
SplineSet
223 -9 m 1xde
 189 -2.84210526316 164 0 137 0 c 3
 112 0 86 -3 48 -9 c 1
 42 14 l 1
 96 26.1428571429 96 17.9285714286 96 36 c 1
 96 367 l 0
 96 641 l 0
 96 657 95 657 27 658 c 1
 27 682 l 1xee
 78 681 137 681 195 681 c 3
 347 681 493 683 495 690 c 1
 518 682 522 668 522 653 c 3
 522 642 522 615 522 596 c 1
 498 596 l 1
 496 666 506.987600027 661.41132706 467 660 c 0
 382 657 245 657 135 657 c 0
 123 657 120 657 120 632 c 0
 120 543.136363636 120 459.102272727 120 377 c 1
 212 377 402 377 422 377 c 0
 445 377 442 376 458 421 c 1
 481 412 l 1
 473 394 469 376 469 358 c 3
 469 339 473 320 479 301 c 1
 456 295 l 1
 440 351 447 353 422 353 c 0
 359 353 253 353 120 353 c 1
 120 212 120 122 120 40 c 0
 120 15.4444444444 120 33.4111111111 231 14 c 1
 223 -9 l 1xde
EndSplineSet
Position2: "cpsp-1" dx=0 dy=0 dh=50 dv=100
Substitution2: "c2pc-1" f.pcap
Substitution2: "c2sc-1" f.smcp
EndChar
StartChar: G
Encoding: 71 71 32
Width: 803
VWidth: 1159
Flags: HW
HStem: -9 37<374.664 581.67> 319 32<497.562 613.119 730.522 761> 674 38<338.234 547.832> 682 20G<658 689>
VStem: 43 99<250.812 472.081> 638 87<64.334 306.866> 675 31<535.645 556.71>
AnchorPoint: "Bottom" 426 -15 basechar 0
AnchorPoint: "Top" 449 699 basechar 0
LayerCount: 2
Back
SplineSet
43 355 m 7xec
 43 608.579101562 302 712 466 712 c 7xec
 529 712 576 696 625 681 c 4
 653 674 653 682 663 702 c 13
 689 701 l 13
 706 537 l 13
 675 531 l 5xda
 631 627 549 674 443 674 c 7
 252 674 142 518.012695312 142 366 c 7
 142 176.799602441 296 22 483 22 c 31
 538 22 571 33 620 58 c 28
 635 65 636 80 636 97 c 4
 636 135.72179787 638 199.917303194 638 258 c 4
 638 289 632 309 583 313 c 4
 551 315 528 316 496 317 c 13
 498 349 l 5
 600 339 712 340 761 346 c 13
 764 322 l 5
 736 315 726 308 725 287 c 4
 723 212.859042661 722 145.827792661 720 92 c 4
 719 70 725 63 748 48 c 13
 745 27 l 5
 666 15 502 -15 448 -15 c 7
 220 -15 43 139.672261332 43 355 c 7xec
EndSplineSet
Fore
SplineSet
43 355 m 3xec
 43 586 266 710 466 710 c 3xec
 547 710 618 692 659 651 c 0
 663 647 665 644 660 691 c 1
 684 695 l 1
 702 542 l 1
 677 540 l 1xda
 675 640 597 686 466 686 c 3
 243 686 68 544 68 359 c 3
 68 166.693877551 219 10 443 10 c 3
 490 10 593 28.7586206897 675 42 c 0
 691 44 691 44 691 81 c 0
 691 135.24 691 225.64 691 307 c 0
 691 313 694 318 680 318 c 0
 590 318 571 320 508 326 c 1
 510 350 l 1
 601 340 700 340 744 348 c 1
 747 324 l 1
 715 319 715 319 715 311 c 0
 715 215.62 715 127.268 715 60 c 0
 715 47 717 48 743 51 c 1
 745 27 l 1
 666 15.1315789474 502 -14 448 -14 c 3
 193 -14 43 164.909090909 43 355 c 3xec
EndSplineSet
Position2: "cpsp-1" dx=0 dy=0 dh=50 dv=100
Substitution2: "c2pc-1" g.pcap
Substitution2: "c2sc-1" g.smcp
EndChar
StartChar: H
Encoding: 72 72 33
Width: 831
VWidth: 1159
Flags: HW
HStem: -12 35<202.944 267.502 582 637.168> -9 42<19 85.0033> 326 40<186 662> 651 37<19.7353 89.7689 199.433 277.162> 658 34<579.971 636.882> 662 37<763.958 814.135>
VStem: 89 97<42.9826 320.895> 101 85<215.157 326 366 617.068> 662 78<84.4575 326 366 439.69>
AnchorPoint: "Bottom" 419 -15 basechar 0
AnchorPoint: "Top" 427 699 basechar 0
LayerCount: 2
Fore
SplineSet
44 692 m 1xd6
 74 685 100 681 129 681 c 0
 149 681 169 683 193 688 c 1
 197 664 l 1xe6
 138 650 128 667 128 643 c 0
 128 605.817204301 128 475.677419355 128 370 c 1
 730 370 l 1
 730 439.342412451 731.849609375 519.444086553 730 621 c 0
 729 677 730 642 662 669 c 1
 670 691 l 1xd6
 691 684 708 681 725 681 c 0
 745 681 766 686 793 698 c 1
 803 677 l 1xce
 754 649 754 675 754 634 c 0
 754 575.272084806 754 466.625441696 754 357 c 0
 754 225.49689441 754 92.0404912443 754 41 c 0
 754 13 754 33 809 11 c 1
 801 -11 l 1
 782 -4 762 0 742 0 c 0
 721 0 699 -7 676 -14 c 1
 667 8 l 1
 730 33 730 13 730 50 c 0
 730 160.754966887 730 230.344370861 730 346 c 1
 128 346 l 1
 128 246.372093023 128 130.139534884 128 52 c 0
 128 13 127 32 194 10 c 1
 187 -12 l 1
 158 -4 133 0 109 0 c 0
 89 0 69 -3 49 -10 c 1
 41 12 l 1
 103 37 102.615811758 8.01041006203 104 52 c 0
 106 115.560126582 105 240.72068334 105 361 c 0
 105 480.413427562 104 594.932862191 104 638 c 0
 104 664 104 654 40 668 c 1
 44 692 l 1xd6
EndSplineSet
Position2: "cpsp-1" dx=0 dy=0 dh=50 dv=100
Substitution2: "c2pc-1" h.pcap
Substitution2: "c2sc-1" h.smcp
EndChar
StartChar: I
Encoding: 73 73 34
Width: 341
VWidth: 1159
Flags: HW
HStem: -10 40<16.125 119.789> 652 43<21.3488 120.801>
VStem: 131 90<41.0295 293.416> 138 76<80.3904 534.592>
AnchorPoint: "Bottom" 167 -15 basechar 0
AnchorPoint: "Ogonek" 234 15 basechar 0
AnchorPoint: "Top" 171 699 basechar 0
LayerCount: 2
Fore
SplineSet
22 695 m 5xd0
 81 685 127 681 174 681 c 7
 220 681 266 685 327 692 c 5
 329 667 l 5
 191 652 189 662 189 616 c 4
 189 538 189 433 189 297 c 3xd0
 189 221.702380952 188 139.376984127 188 44 c 0
 188 20 205 31 329 15 c 1
 328 -10 l 1
 276 -4 219 0 164 0 c 3
 111 0 60 -3 17 -11 c 1
 14 14 l 1
 161 32 164 15 164 46 c 0xe0
 165 126.275862069 165 232.64137931 165 337 c 3
 165 446 165 553 165 619 c 4
 165 662 127 653 18 670 c 5
 22 695 l 5xd0
EndSplineSet
Position2: "cpsp-1" dx=0 dy=0 dh=50 dv=100
Substitution2: "c2pc-1" i.pcap
Substitution2: "c2sc-1" i.smcp
EndChar
StartChar: J
Encoding: 74 74 2609
Width: 394
Flags: HMW
AnchorPoint: "Bottom" 226 -139 basechar 0
AnchorPoint: "Top" 193 699 basechar 0
LayerCount: 2
Fore
SplineSet
184 633 m 0
 184 674 185.120117188 645 35 671 c 5
 39 695 l 5
 94 685 137 681 181 681 c 7
 230 681 268 687 344 695 c 5
 346 671 l 5
 209.791992188 649 208 669 208 633 c 0
 208 510.096679688 208 384.169921875 208 225 c 3
 208 124 209 83 209 50 c 3
 209 -86 174 -153 122 -197 c 0
 109 -208 73 -234 48 -251 c 1
 34 -230 l 1
 57 -217 78.0966796875 -202.122070312 97 -187 c 0
 102 -183 106.8984375 -178.896484375 111 -175 c 0
 171 -118 184 -57 184 65 c 3
 184 106.217773438 184 595.803710938 184 633 c 0
EndSplineSet
Position2: "cpsp-1" dx=0 dy=0 dh=50 dv=100
Substitution2: "c2pc-1" j.pcap
Substitution2: "c2sc-1" j.smcp
EndChar
StartChar: K
Encoding: 75 75 36
Width: 687
VWidth: 1159
Flags: HW
HStem: -10 30<217.663 272.933> -1 24<470.273 498.261 656.235 673.667> 657 31<20.4194 73.0559 201.774 269.29 568.711 604.844>
VStem: 91 92<40.8706 315.532> 100 78<125.33 316 357 600.136>
AnchorPoint: "Bottom" 359 -15 basechar 0
AnchorPoint: "Top" 335 699 basechar 0
LayerCount: 2
Back
SplineSet
217.893867899 -4.38395463953 m 0
 197.953850113 -2.32015774423 181.756051758 -1.20705089765 168.481760134 -0.385263187415 c 0
 155.895353277 0.393938804255 145.75584227 0.919127353635 137.422472555 1.78298325604 c 0
 107.075733118 2.34758985349 76.2886901187 0.452119577782 36.6016111784 -4.89263812756 c 1
 32.6633830067 18.7703109996 l 1
 70.0565132186 26.1935153219 92.1865462424 24.5112981481 97.8824630767 25.5629774291 c 1
 98.6574852669 28.7982915431 98.9673987336 37.9288034502 99.000028027 53.0259354297 c 0
 99.003177645 54.4875278664 l 2
 98.9962135947 56.8190113817 99 58.4193068604 99 61 c 0
 99 236 l 0
 98.8768628184 323.12301807 l 1
 98.9331820088 340.600396766 l 1
 90.2205210429 346.373592018 l 1
 98.9942973155 352.980949438 l 1
 99.1094345561 369.60009408 l 2
 99.2651547074 387.136329364 99.4975672311 404.434106951 99.5971556758 421.508986089 c 0
 99.6493085679 452.447953311 99.7063436025 483.286344191 99.7714981467 513.919337729 c 0
 99.8373608944 544.885299492 99.9131231352 576.207592714 99.9996829118 606.906008872 c 2
 100 626 l 0
 100 627 99.9997886432 625.792965243 100.000168451 626.942712642 c 0
 99.8909692569 647.856091392 97.9612386922 655.275654737 97.3722238563 656.259931545 c 1
 95.2021365845 657.339154468 79.4887827202 656.826925308 50.7890349107 661.391389155 c 0
 46.0425187562 662.146284339 40.9398410405 663.087065788 35.4640064897 664.271030015 c 1
 39.9406340621 687.842041185 l 1
 72.1052676538 682.57100872 106.633075943 680.238034041 141.066131422 680.182231358 c 0
 155.413458867 681.028315677 175.2628663 681.128600584 203.49493815 683.043516263 c 0
 220.223004485 684.178142042 240.023032775 685.953997895 263.502963663 688.906253911 c 1
 266.643865527 665.113128833 l 1
 241.711395823 661.665154436 215.703254788 659.038550279 189.285871041 657.553055715 c 0
 173.706344055 656.676992329 157.705921576 656.197652343 141.837910918 656.182515881 c 0
 126.36839386 655.181885367 126.089659844 653.150078595 126.089659844 653.150078595 c 0
 125.451049347 652.199889176 124 644.399772122 124 626 c 0
 124 625 124.00000035 627.873350381 124.000000212 626.873350381 c 0
 124.038342815 621.02265293 124.02084226 614.351492048 123.99968961 606.873294937 c 0
 123.998425359 575.24772929 123.990183295 546.151403872 123.935290858 514.891244135 c 0
 123.880976288 483.960168707 123.780910628 452.944596227 123.597035416 421.418378197 c 0
 123.569349738 404.959712476 123.541801219 387.737599202 123.516519112 371.356380208 c 1
 153.049732292 393.32536407 182.923937684 414.99479372 212.686630154 436.382709079 c 0
 263.553802538 472.936618932 314.965942228 509.312712302 365.692612639 546.360105568 c 0
 366.62407139 547.041148796 367.671679377 547.807236142 368.488069188 548.404389239 c 0
 369.848718873 549.3996444 371.044275544 550.274397791 372.40668305 551.271629048 c 0
 395.014508894 567.834822817 417.540916047 584.589015949 439.817544264 601.565903259 c 0
 457.851008893 615.309100561 475.764065206 629.22993121 493.520171215 643.383611317 c 0
 499.486106595 648.139155177 504.85488732 652.607162504 509.069079971 656.219122267 c 1
 506.897622399 656.205494869 504.127648312 656.174908216 501.310375293 656.142600524 c 0
 496.853288685 655.902704159 492.121796984 655.685761663 487.954044043 655.535919025 c 0
 471.283006002 654.936547532 454.744704701 654.932042675 438.695951105 655.482939233 c 0
 421.643808488 656.068278563 405.145164907 657.280172069 389.618391053 659.079800475 c 1
 391.736698098 682.977365149 l 1
 397.643493188 682.614052796 403.29912003 682.293359119 408.713803 682.010581919 c 0
 454.374449829 679.625993585 482.744313097 679.93130767 500.505324469 680.13494079 c 0
 514.52572607 680.931843931 528.780363871 682.169296288 542.327971764 683.828395355 c 0
 558.518818946 685.811197018 574.364612576 688.434698745 589.442084422 691.724208626 c 1
 594.859762706 668.34574081 l 1
 523.048973862 650.724559363 561.296617147 670.03140055 526.878046931 639.895670108 c 0
 521.715423319 634.698733015 515.004804288 628.800596643 506.863629599 622.112202872 c 0
 495.117166491 612.461879216 480.339892742 601.140490195 463.158833381 588.369262509 c 0
 437.274248601 569.128427655 411.747320233 550.325224813 386.586355196 531.908340973 c 0
 385.506923885 531.117516146 384.530545269 530.40276152 383.450731293 529.61278057 c 0
 382.370917318 528.822799621 381.075889782 527.876141004 379.88820669 527.008442465 c 0
 318.729708224 482.297954257 259.161048389 439.420034744 199.40916647 396.249025293 c 0
 176.716378876 379.853381905 156.340667856 365.114445658 132.034320138 347.457544773 c 1
 145.150628308 338.766398825 l 1024
136.136288976 344.737890139 m 0
 140.469877043 341.867633103 144.887050049 338.943053774 149.380206175 335.969083108 c 0
 209.28959822 296.315714836 282.703169124 247.884288695 351.631761604 202.342892528 c 0
 426.078921397 153.155356911 495.279611583 107.349078664 536.652924407 79.568125491 c 0
 540.292958106 77.1239507601 543.718116902 74.8189461543 546.9135572 72.662713049 c 0
 559.381321236 64.2496609942 568.270128074 58.1627369594 573.025714154 54.7282753163 c 0
 585.375958667 45.8089874816 594.162853462 40.0649415437 600.023947096 35.0226190249 c 0
 602.646216589 33.1813553299 604.799592566 31.7638879778 606.571000863 30.7304882514 c 0
 611.194598893 28.033185237 613.48375715 27.2718602201 620.444361931 26.3922027787 c 0
 626.600420311 25.9564531995 632.853910584 25.4624746591 638.73661241 24.9721948949 c 0
 647.040862396 24.2800969702 654.988310551 23.5683195406 662.040027809 22.9548459696 c 1
 661.952198228 21.9587104544 660.928151805 -1.04138022973 659.932119291 -0.952390170609 c 0
 648.441454766 0.0742378769218 639.645292054 0.686835599268 632.520968305 1.2148007986 c 0
 626.877629533 1.63301403326 622.2818847 1.99307967822 618.130186343 2.49557286473 c 0
 605.551761565 3.37316125429 593.138286897 4 583 4 c 0
 576.049070155 4 568.843822207 3.88102429407 561.242795134 3.64028969132 c 0
 541.155605554 2.48541327683 512.343190422 0.739285682241 472.389774924 -3.91925021389 c 1
 469.22833551 19.8684963216 l 1
 496.175995981 23.8910963083 529.860343149 26.6211428452 560.192414168 27.6195328142 c 0
 563.113284043 27.7874629129 566.086609301 27.956812325 568.728966948 28.1116672278 c 1
 557.138364954 36.5306689648 540.867362759 48.0667531659 516.414720085 63.9682125555 c 1
 123.446052307 324.357645331 l 1
 123.318619061 236.617156235 l 0
 123.228241384 175.224897693 123.13129207 114.087926071 123.003308057 54.5210055926 c 0
 123.030116784 37.5756116825 124.42501415 30.7835813343 125.262419022 29.4770974288 c 0
 125.474443538 29.146305687 126.763632542 27.1163504581 138.95250945 25.7577885136 c 0
 151.323877279 25.4887236527 163.844746665 24.8351275397 176.321950526 23.8693801277 c 0
 193.479813968 22.5413452252 211.353215455 20.6073262803 231.165463164 18.2125131309 c 1024
657.796882519 23.3261580246 m 2
 659.178925869 23.2077351514 660.602061636 23.0833530901 662.067880709 22.9523901706 c 1
 659.959972191 -0.95484596961 l 1
 657.890205534 -0.774783852006 655.751485699 -0.586993476657 653.556169517 -0.394312878248 c 0
 657.796882519 23.3261580246 l 2
221.981774786 19.3199414616 m 1
 234.981872309 17.9549863942 249.498899423 16.1965032147 265.699274614 13.879076807 c 1
 262.474202938 -9.90260237613 l 1
 244.658257699 -7.61877266807 228.595426263 -5.59380782405 213.679882596 -3.89696166204 c 0
 221.981774786 19.3199414616 l 1
EndSplineSet
Fore
SplineSet
391 684 m 1xa8
 414 682 440 681 467 681 c 3
 513 681 561 684 604 691 c 1
 609 668 l 1
 557 657 552 663 534 645 c 0
 480 593.174496644 277 448.661073826 151 348 c 1
 310 236.603174603 563 58.3682539683 604 29 c 0
 614 22 620 23 675 19 c 1
 673 -5 l 1
 645 -3 606 0 578 0 c 3
 545 0 503 -3 471 -8 c 1
 467 16 l 1
 558 29 577 19 558 32 c 0
 523 56.32 265 236.693333333 124 336 c 1x68
 123 232.313333333 122 101.446666667 123 34 c 0
 123 18 128 32 276 12 c 1
 272 -12 l 1
 226 -5 178 0 126 0 c 3
 91 0 55 -2 15 -7 c 1
 12 17 l 1
 97 26 99 20 99 33 c 0xb0
 99 140.644578313 100 254.325301205 100 367 c 3
 100 456.664179104 100 551.309701493 100 634 c 0
 100 666 92 651 18 663 c 1
 21 687 l 1
 57 683 94 681 132 681 c 3
 179 681 225 684 269 688 c 1
 272 664 l 1
 132 645 124 669 124 635 c 0
 124 542.335740072 124 454.653429603 124 359 c 1
 247 453.664310954 374 545.339222615 492 641 c 0
 509 655 504 657 497 657 c 0
 495 657 459 655 390 659 c 1
 391 684 l 1xa8
EndSplineSet
Position2: "cpsp-1" dx=0 dy=0 dh=50 dv=100
Substitution2: "c2pc-1" k.pcap
Substitution2: "c2sc-1" k.smcp
EndChar
StartChar: L
Encoding: 76 76 37
Width: 614
VWidth: 1159
Flags: HW
HStem: -7 44<23 88.0947> 2 50<189.846 505.493> 652 41<197.258 286.683>
VStem: 94 88<57.6719 639.659> 562 35<122.552 159>
AnchorPoint: "Bottom" 300 -15 basechar 0
AnchorPoint: "TopRight" 348 581 basechar 0
AnchorPoint: "Top" 157 699 basechar 0
LayerCount: 2
Back
SplineSet
231.568149226 1.754509579 m 0
 188.685210005 1.34671880283 155.796815647 0.470178839355 130.499443357 -0.573697122559 c 0
 105.608811791 -1.60078925173 87.8625739269 -2.80714884165 75.3016185876 -3.87576254213 c 0
 71.5542742237 -4.37098930449 67.2675924589 -4.86044869135 63.021904863 -5.28397965477 c 0
 59.2481646194 -5.66043124357 55.1093700133 -6.03358413301 50.6777372147 -6.40871404589 c 0
 47.7159810559 -6.74249747543 45.4790988871 -7 43 -7 c 1
 42.0386054024 16.9614263542 l 1
 43.7897426539 17.1021732722 46.2797210773 17.3069314935 48.3063734675 17.4759671276 c 0
 50.7439458452 17.7506761935 53.6202057205 18.0999751855 57.9162123868 18.5622450281 c 0
 61.7995669963 18.980111634 66.7374707157 19.4725082295 72.6448696108 19.9844886981 c 0
 93.6185570632 22.8609141193 92.2128451305 25.1153855578 92.8350683158 27.6382410424 c 0
 93.4502266891 30.1324516614 93.7932083725 35.8292127263 94 43.1690106001 c 1
 94 641 l 0
 94 651.933608599 93.5457559632 658.845656117 93.1556509111 660.475345119 c 1
 91.6184553553 660.997768276 88.9327909353 661.550167228 84.4753076113 662.227274398 c 0
 66.7612866591 664.493175867 49.0748595399 667.848944941 32.7456950778 672.449696996 c 1
 39.0964938357 695.593607115 l 1
 62.4656463226 689.352026224 77.0864473249 687.624984698 87.7322546058 686.007849664 c 0
 98.2504091391 684.688829422 108.804235814 683.786804959 119.590389452 683.210407728 c 0
 130.713651482 682.615995888 141.921243212 682.388987504 153.073294369 682.469610587 c 0
 160.193755353 682.659621177 168.37380584 682.850363998 177.406618075 683.232988201 c 0
 186.772443846 683.629718646 197.505140513 684.254051324 209.578707603 685.311096678 c 0
 217.928210176 686.056903249 225.265558447 686.852976152 233.214115965 687.81901909 c 0
 245.442641997 689.305236078 257.122279893 691.015569118 268.023336638 692.836080515 c 1025
271.976309547 669.163860402 m 0
 259.455557223 667.073239372 247.863396266 665.415130257 237.134629671 664.094094421 c 0
 227.938627951 662.961788325 219.521904789 662.089822108 211.555588581 661.392368118 c 0
 201.961433452 660.522976135 192.445112827 659.840177005 182.471264246 659.332451473 c 0
 173.185253591 658.859740798 163.216938284 658.558092848 153.45806443 658.47125422 c 0
 129.355891048 657.819845206 123.379744764 655.541562488 122.126330212 653.932625747 c 0
 119.918658142 651.098763078 118 637.014357847 118 602 c 0
 118 81 l 0
 118 68.0420925806 118.041743434 57.5535715754 118.4535323 49.353804138 c 0
 119.54606706 27.5986483618 122.450596034 26.771953577 126.620392006 25.5356510806 c 0
 132.099053403 23.9112831723 144.92838887 23.9243730209 165.379111782 24.9839266445 c 0
 175.842958438 25.526059394 195.737890691 25.7310444024 220.482003469 25.7622218086 c 0
 232.458318659 25.7773118806 245.528906287 25.7484466329 259.091117282 25.6882105607 c 1024
262.860223331 691.990258888 m 2
 264.562514617 692.263725814 266.283598593 692.545592149 268.023690453 692.836139598 c 2
 271.976663362 669.163919485 l 1
 267.761982276 668.460054242 263.436501688 667.772491451 259.011505791 667.107209785 c 0
 258.022619729 666.958534445 262.860223331 691.990258888 262.860223331 691.990258888 c 2
233.432869724 25.7728836752 m 1
 249.538440101 25.9192290222 267.019633137 26 286 26 c 0
 331.569646847 26 374.281233751 25.2883294365 407.294749631 24.5578596204 c 0
 442.158657018 23.7864473264 466.178130912 23 471.190860796 23 c 1
 481.382497044 22.6757206649 489.318344706 22.1202843895 496.431022739 21.3426826969 c 0
 517.534593615 21.4224237639 525.059128447 24.0371441355 532.767180141 34.5904914714 c 0
 543.095847977 48.7318106426 552.984988668 81.6054663336 570.440749801 144.222380305 c 1
 593.590522582 137.891980331 l 1
 575.021579812 68.6441076003 562.386564647 35.2380836316 557.448554173 15.5743976011 c 0
 555.451476585 7.62182097352 554.772766516 2.28891525692 554.987711875 -2.45707826654 c 0
 555.742890934 -19.1314319001 l 1
 539.696421318 -14.5363065099 l 0
 521.416118791 -9.30149260439 515.469764228 -5.14012862351 495.050682012 -2.65510210719 c 0
 483.634419671 -2.59675409257 470.501898524 -1.7742285067 454.816217965 -1.04937028659 c 0
 445.215977464 -0.605729144182 434.612277461 -0.193700137792 422.801555521 0.00164095432921 c 0
 413.444312245 0.174313836221 385.424709607 0.573529563948 350.927539651 0.948825398921 c 0
 323.573996324 1.24640548725 292.161543867 1.52874099421 262.801840073 1.67073281735 c 0
 250.036986654 1.73246725519 237.660293754 1.76767089963 226.177002135 1.76612323794 c 0
 225.177002144 1.76598846285 233.432869724 25.7728836752 233.432869724 25.7728836752 c 1
EndSplineSet
Fore
SplineSet
286 692 m 1xb8
 290 668 l 1
 148 648 120 672 119 632 c 0
 118 578.111801242 118 150 118 150 c 0
 118 18.936 119 21.984 135 23 c 0
 190 25 452 23 499 19 c 0
 532 15.958041958 544 34.2097902098 573 164 c 1
 597 159 l 1
 584 93 546 0 556 -19 c 1
 538 -15.4705882353 518 -5.76470588235 486 -4 c 0
 475 -3 386 0 284 0 c 3x78
 69 0 34 -9 23 -9 c 1
 20 14 l 1
 99 20 94 14 94 53 c 0
 94 57.0326530612 94 165.914285714 94 300 c 3
 94 468.50728863 94 630.034985423 94 642 c 0
 94 665 99 655 12 671 c 1
 16 695 l 1
 56 685 102 681 146 681 c 3
 196 681 246 686 286 692 c 1xb8
EndSplineSet
Position2: "cpsp-1" dx=0 dy=0 dh=50 dv=100
Substitution2: "c2pc-1" l.pcap
Substitution2: "c2sc-1" l.smcp
EndChar
StartChar: M
Encoding: 77 77 2622
Width: 1004
Flags: HW
HStem: -10 41<36 117.222 220.099 297.854> -2 38<694.079 764.114> 9 21G<474.5 522> 651 40<879.759 963.7> 655 44<49.7273 137.712>
VStem: 171 30<117 529> 475 42<9 79.3822> 795 80<61.8765 363.678>
AnchorPoint: "Bottom" 504 -15 basechar 0
AnchorPoint: "Top" 507 699 basechar 0
LayerCount: 2
Fore
SplineSet
968 -11 m 1x17
 928 -4 883 0 836 0 c 3
 811 0 739 -5 687 -14 c 1
 683 10 l 1x57
 842 34 842 8 841 58 c 0
 836.692382812 246.06640625 831.307617188 426.044921875 827 604 c 1
 747 449 666 294 584 136 c 0
 564 98 523 23 519 3 c 1
 491 3 l 1x27
 490 23 444 116 423 156 c 2
 189 594 l 1
 180 420.90234375 171 236.923828125 159 48 c 0
 157 16 162 31 291 14 c 1
 288 -10 l 1
 248 -4 201 0 152 0 c 3
 114 0 74 -3 36 -10 c 1
 34 14 l 1
 135 32 133 12 135 48 c 2
 164 583 l 2
 166 613 171 655 147 658 c 0
 131 660 108 663 49 669 c 1
 51 693 l 1x8f
 79 690 131 684 157 681 c 0
 170 679 180 667 186 655 c 0
 294 444 411 242 507 38 c 1
 833 669 l 0
 838 678 847 681 853 681 c 0
 886 680 928 680 963 685 c 1
 966 662 l 1
 853 646 850 670 851 639 c 0
 855.286132812 441.979492188 861.713867188 243.948242188 866 54 c 0
 867 12 868 30 969 13 c 1
 968 -11 l 1x17
EndSplineSet
Position2: "cpsp-1" dx=0 dy=0 dh=50 dv=100
Substitution2: "c2pc-1" m.pcap
Substitution2: "c2sc-1" m.smcp
EndChar
StartChar: N
Encoding: 78 78 39
Width: 836
Flags: HW
HStem: -10 44<23.3182 87.7887 186.598 270.067> 655 39<771.248 832> 663 38<600.263 678.466>
VStem: 97 55<66.539 312.678> 107 54<242 550> 720 37<-2.08108 25.5054>
AnchorPoint: "Bottom" 431 -15 basechar 0
AnchorPoint: "Top" 427 699 basechar 0
LayerCount: 2
Back
SplineSet
14 692 m 1
 39.1136363636 688.5 72.4697842082 689.178658007 99 685 c 0
 113.957169601 683.86726988 114.840304496 680.862395986 122 674 c 0
 324 475.854883857 524 272.07759233 721 67 c 1
 726.566407265 222.607347394 728.514462548 378.215731675 728.514462548 539.936180068 c 3
 728.514462548 571.722180108 728.298416354 603.876329399 728 636 c 0
 726.830357143 677.355932203 726 656 597 676 c 1
 601 701 l 1
 656.519587699 693.825498252 703.298840942 691.263713704 747.271642729 691.263713704 c 3
 776.164975797 691.263713704 803.846638333 692.369750597 832 694 c 1
 837 668 l 1
 763 662 755.657992816 665.420916604 755 635 c 0
 746.666666667 469.784200227 745 293.889254452 745 117 c 0
 745 89.988372093 748.5 43.011627907 752 16 c 1
 726 4 l 1
 700.197901696 55.7482398122 666.377990692 93.1294779405 631 129 c 0
 464.526205451 297.853624133 297.907756813 467.712293715 131 631 c 1
 131 62 l 2
 137.419497827 -2.51436805873 132 38 273 14 c 1
 269 -11 l 1
 230.475274138 -2.82996917899 193.353344449 0.0350683801344 158.148197194 0.0350683801344 c 3
 109.280738727 0.0350683801344 64.1064561839 -5.48516570496 24 -10 c 1
 21 15 l 1
 108 25 110.518976498 18.0923792754 107 50 c 0
 106.18848307 173.07819151 106.63207391 301.186856784 106.63207391 430.331351559 c 3
 106.63207391 501.110013848 108.658028174 572.405052078 107 643 c 0
 106.972035752 641.555342861 102 672 12 669 c 1
 14 692 l 1
EndSplineSet
Fore
SplineSet
14 688 m 1xcc
 39 684 72.9809463961 682.734603574 99 681 c 0
 114 680 115.131626385 677.12919658 122 670 c 0
 324 461.31661442 524 248.65830721 721 36 c 1
 722 149 723 261 723 378 c 3
 723 459.705426357 729.900691258 542.369584647 728 626 c 0
 727 670 726 646 597 666 c 1
 601 691 l 1xac
 657 684 703 681 747 681 c 3
 776 681 804 682 832 684 c 1
 837 658 l 1
 763 652 756.396135707 660.984175911 755 625 c 0
 748.331714457 453.130776447 745 269.593806922 745 86 c 0
 745 64 745 25 745 3 c 1
 724 -5 l 1
 698 25 662.224288125 64.2058609952 631 98 c 0
 465 276.649155722 298 455.298311445 131 627 c 1xcc
 131 62 l 2
 131 -2 132 38 273 14 c 1
 269 -11 l 1
 230 -3 193 0 158 0 c 3
 109 0 64 -5 24 -10 c 1
 21 15 l 1
 108 25 107.260154004 18.0010575191 107 50 c 0xd4
 106 173 107 301 107 430 c 3
 107 499.666666667 107 569.333333333 107 639 c 0
 107 661 108 654 12 665 c 1
 14 688 l 1xcc
EndSplineSet
Position2: "cpsp-1" dx=0 dy=0 dh=50 dv=100
Substitution2: "c2pc-1" n.pcap
Substitution2: "c2sc-1" n.smcp
EndChar
StartChar: O
Encoding: 79 79 40
Width: 845
VWidth: 1159
Flags: HW
HStem: -7 50<342.523 545.448> 657 49<304.396 495.712>
VStem: 43 93<267.4 455.825> 701 101<222.803 442.21>
AnchorPoint: "Horn" 714 573 basechar 0
AnchorPoint: "Middle" 424 365 basechar 0
AnchorPoint: "Bottom" 422 -15 basechar 0
AnchorPoint: "Ogonek" 486 11 basechar 0
AnchorPoint: "Top" 426 699 basechar 0
LayerCount: 2
Back
SplineSet
391 660 m 7
 250 660 136 543.419836023 136 382 c 7
 136 202.520642412 279 37 449 37 c 7
 602 37 701 170.530119977 701 321 c 7
 701 500.470296712 561 660 391 660 c 7
428 709 m 7
 635 709 802 543.449896694 802 341 c 7
 802 145.552293527 644 -13 430 -13 c 7
 216 -13 43 144.55469308 43 341 c 7
 43 537.466253444 218 709 428 709 c 7
EndSplineSet
Fore
SplineSet
428 685 m 3
 228 685 67 521.307692308 67 343 c 3
 67 170.596439169 218 11 430 11 c 3
 639 11 778 166.65578635 778 343 c 3
 778 533.974358974 620 685 428 685 c 3
428 709 m 3
 635 709 802 544.056 802 343 c 3
 802 146.756232687 644 -13 430 -13 c 3
 216 -13 43 145.770083102 43 343 c 3
 43 538.2 218 709 428 709 c 3
EndSplineSet
Position2: "cpsp-1" dx=0 dy=0 dh=50 dv=100
Substitution2: "c2pc-1" o.pcap
Substitution2: "c2sc-1" o.smcp
EndChar
StartChar: P
Encoding: 80 80 2655
Width: 621
Flags: HW
HStem: -11 38<51.4211 103.993> 242 36<216.515 379.94> 645 42<32.5 117.292> 655 39<213.531 381.467>
VStem: 121 90<358.521 636.758> 132 81<48.2578 250 282.973 479.296> 493 89<377.611 543.933>
AnchorPoint: "Bottom" 180 -15 basechar 0
AnchorPoint: "Top" 312 699 basechar 0
LayerCount: 2
Fore
SplineSet
306 266 m 3xd6
 439 266 558 330 558 467 c 3
 558 537.256835938 502 624.334960938 395 656 c 0
 308 682 228 657 152 657 c 3
 150 657 148 656 148 646 c 0xda
 148 568.435546875 152 428.223632812 156 290 c 1
 202 272 249 266 306 266 c 3xd6
33 685 m 1xea
 59 683 93 681 132 681 c 3
 203 681 242 692 313 692 c 3
 478 692 582 572.06640625 582 467 c 3
 582 330 471 242 306 242 c 3
 248 242 206 248 156 264 c 1
 156 176.212890625 157 106.587890625 157 41 c 0
 157 17.724609375 158 26.9658203125 243 16 c 1
 237 -8 l 1
 205 -2 183 0 159 0 c 3
 137 0 115 -2.4619140625 84 -8 c 1
 78 15 l 1
 133 27.22265625 133 14.4169921875 133 46 c 0
 133 101.591796875 132 166.279296875 132 234 c 3xd6
 132 368.34765625 123 532.55078125 123 646 c 0
 123 658 123 657 31 659 c 1
 33 685 l 1xea
EndSplineSet
Position2: "cpsp-1" dx=0 dy=0 dh=50 dv=100
Substitution2: "c2pc-1" p.pcap
Substitution2: "c2sc-1" p.smcp
EndChar
StartChar: Q
Encoding: 81 81 2660
Width: 785
Flags: HW
HStem: -157 43<710.054 875.117> -5 51<315.167 418.904> 674 32<295.987 461.678>
VStem: 45 98<254.599 491.499> 641 102<242.788 484.609>
AnchorPoint: "Middle" 395 365 basechar 0
AnchorPoint: "Top" 397 699 basechar 0
AnchorPoint: "Bottom" 345 -15 basechar 0
LayerCount: 2
Fore
SplineSet
389 682 m 3
 202 682 67 550.901367188 67 361 c 3
 67 185.65625 192 20 393 20 c 3
 571 20 717 162.432617188 717 363 c 3
 717 548.0390625 565 682 389 682 c 3
442 -1 m 1
 569 -103.706054688 677 -127 749 -127 c 3
 796 -127 839 -121 874 -112 c 1
 882 -135 l 1
 859 -145 813 -151 749 -151 c 3
 631 -151 517 -96.400390625 407 -4 c 1
 190 -16.6201171875 43 163.938476562 43 361 c 3
 43 576.50390625 198 706 389 706 c 3
 581 706 741 559.137695312 741 363 c 3
 741 198.95703125 638 28.1201171875 442 -1 c 1
EndSplineSet
Position2: "cpsp-1" dx=0 dy=0 dh=50 dv=100
Substitution2: "salt-1" Q.alt
Substitution2: "c2pc-1" q.pcap
Substitution2: "c2sc-1" q.smcp
EndChar
StartChar: R
Encoding: 82 82 2662
Width: 763
Flags: HMW
HStem: -10 44<283 291> 323 44<197 325.579>
VStem: 107 90<71.4111 283.488 429.868 640.189> 475 87<441.267 575.707>
AnchorPoint: "Bottom" 376 -15 basechar 0
AnchorPoint: "Top" 303 699 basechar 0
LayerCount: 2
Fore
SplineSet
139 372 m 1
 203 371 236 369 300 369 c 3
 526 369 528 495.487304688 528 520 c 3
 528 601.404296875 438 673 319 673 c 3
 249 673 138 656 138 655 c 0
 138 565.889648438 139 461.110351562 139 372 c 1
31 683 m 1
 83 682 106 681 123 681 c 0
 175 681 224 697 319 697 c 0
 447 697 552 619.31640625 552 520 c 0
 552 436.482421875 492 370.651367188 384 351 c 1
 497 129.461914062 612 -7.0224609375 756 -9 c 1
 752 -33 l 1
 599 -37.9482421875 462 133.25 359 347 c 1
 337 345 318 345 301 345 c 0
 238 345 202 347 139 348 c 1
 138 226 138 134 138 35 c 0
 138 10 139 39 287 9 c 1
 283 -14 l 1
 240 -5 177 0 154 0 c 3
 117 0 79 -4 42 -11 c 1
 37 12 l 1
 113 30 114 16 114 32 c 1
 114 171 115 265 115 357 c 3
 115 445.206054688 114 532.431640625 114 652 c 1
 115 656 113 657 31 659 c 1
 31 683 l 1
EndSplineSet
Position2: "cpsp-1" dx=0 dy=0 dh=50 dv=100
Substitution2: "salt-1" R.alt
Substitution2: "c2pc-1" r.pcap
Substitution2: "c2sc-1" r.smcp
EndChar
StartChar: S
Encoding: 83 83 44
Width: 575
VWidth: 1159
Flags: HW
HStem: -10 43<195.79 384.696> 672 38<219.404 383.163> 681 20G<474 513>
VStem: 30 34<149.828 195.235> 58 32<0 20.4257> 68 82<457.95 594.46> 449 80<96.0494 230.479> 482 33<527.268 575.693 682.701 692>
AnchorPoint: "Bottom" 286 -15 basechar 0
AnchorPoint: "Top" 308 699 basechar 0
LayerCount: 2
Back
SplineSet
30 194 m 5xd0
 64 200 l 5
 82 141 86.878297754 120.865926417 110 100 c 4
 151 63 241 33 305 33 c 7
 407 33 449 107 449 164 c 7
 449 286 282.776167628 306.192651078 193 347 c 4
 171 357 68 397 68 510 c 7
 68 601.2 146 702 310 702 c 7xd6
 368 702 417.383162321 689.10631413 439 681 c 4
 455 675 465 663 483 693 c 5xb6
 513 684 l 5
 496 604 499.867877476 602.962428833 515 550 c 4
 521 529 515 511 482 517 c 5
 475 533 471.790643312 554.907101001 463 575 c 4
 442 623 371 664 297 664 c 7
 244 664 150 641.352112676 150 530 c 7xc5
 150 429 243.829771373 432.615686511 397 365 c 4
 508 316 529 231 529 181 c 7
 529 101 474 -10 282 -10 c 7
 227 -10 169.157879915 0.444742029655 119 18 c 4
 99 25 100 24 90 -4 c 5
 58 0 l 5xca
 59 69 56 87 30 194 c 5xd0
EndSplineSet
Fore
SplineSet
33 185 m 1xd0
 57 191 l 1
 92 65 87 62 97 56 c 0
 136 33 223 14 284 14 c 3
 454 14 507 103 507 171 c 3
 507 246 434 308 289 350 c 0
 154 387.340425532 70 402.659574468 70 530 c 7
 70 634.695652174 176 702 312 702 c 3xd6
 381 702 437 683 466 670 c 0
 485 661 490 670 494 686 c 1xb6
 516 680 l 1
 509 605 503 578 513 542 c 0
 519 539.130434783 503 539.391304348 494 539 c 1
 470 599.902654867 492 622.946902655 479 632 c 0
 455 652 386 678 312 678 c 3
 208 678 94 629.9 94 530 c 7xc5
 94 427.204819277 157 409.120481928 296 372 c 0
 500 314 531 229 531 171 c 3
 531 95 476 -10 284 -10 c 3
 225 -10 162 1 108 24 c 0
 85 34 86 34 84 12 c 1
 60 12 l 1xca
 61 74 58 90 33 185 c 1xd0
EndSplineSet
Position2: "cpsp-1" dx=0 dy=0 dh=50 dv=100
Substitution2: "c2pc-1" s.pcap
Substitution2: "c2sc-1" s.smcp
EndChar
StartChar: T
Encoding: 84 84 2676
Width: 746
Flags: HMW
HStem: -7 44<427.307 521> 634 51<102.399 322.89 422 638.844>
VStem: 320 97<51.3596 333.831>
AnchorPoint: "Bottom" 366 -15 basechar 0
AnchorPoint: "Top" 366 699 basechar 0
LayerCount: 2
Fore
SplineSet
133 681 m 0
 258 682 383 681 509 681 c 3
 564 681 620 681 675 681 c 0
 690 681 704 686.416992188 711 694 c 1
 729 682 l 1
 714 646 695 606 693 559 c 1
 668 563 l 1
 672 588.662109375 677 613.337890625 685 639 c 0
 692 661 723 655 385 657 c 1
 385 525.3359375 385 396.6640625 385 265 c 3
 385 191.670898438 385 117.337890625 386 42 c 0
 387 13 390 33 525 15 c 1
 521 -8 l 1
 483 -3 433 0 383 0 c 3
 360 0 256 -4 211 -12 c 1
 209 13 l 1
 361 27 361 19 361 35 c 0
 361 114.198242188 361 289.63671875 361 435 c 3
 361 539.529296875 361 628.129882812 361 657 c 1
 271 657 184 657 98 658 c 0
 67 658 73 660.96875 29 563 c 1
 6 573 l 1
 25 610 53 685 64 706 c 1
 97 690.375 76 679.958007812 133 681 c 0
EndSplineSet
Position2: "cpsp-1" dx=0 dy=0 dh=50 dv=100
Substitution2: "c2pc-1" t.pcap
Substitution2: "c2sc-1" t.smcp
EndChar
StartChar: U
Encoding: 85 85 2684
Width: 845
Flags: HW
HStem: -10 54<314.466 568.379> 650 40<31.125 111.17 221.669 306.778 744.959 818.369> 672 20G<587 603.309>
VStem: 116 87<142.83 548.313> 121 90<339.122 637.527> 681 55<148.927 617.399> 682 61<265.818 645.847>
AnchorPoint: "Horn" 739 544 basechar 0
AnchorPoint: "Bottom" 427 -15 basechar 0
AnchorPoint: "Ogonek" 497 11 basechar 0
AnchorPoint: "Top" 448 699 basechar 0
LayerCount: 2
Fore
SplineSet
65 686 m 1xc8
 82 682 109 681 137 681 c 3
 162 681 189 682 209 686 c 1
 213 662 l 1
 147 654 147 656 146 629 c 0xc8
 146 622.092773438 141 293.521484375 141 258 c 0
 141 182.97265625 169.29296875 124.388671875 221 73 c 0
 260.400390625 36 336.168945312 9 418 9 c 3
 491 9 582 25.7060546875 645 80 c 0
 679 108.3203125 710 166.982421875 712 257 c 0xd4
 714 360.909179688 718 530.1328125 719 638 c 0
 719 664 719 650 653 663 c 1
 657 688 l 1xa2
 673 684 707 681 736 681 c 3
 760 681 781 682 790 686 c 1
 794 661 l 1
 743 648 743 665 743 638 c 0xc2
 743 626.124023438 741 500.436523438 736 255 c 0
 734 181.193359375 713 114.463867188 672 72 c 0
 617 14 526 -15 419 -15 c 3
 334.22265625 -15 247.829101562 11.38671875 201 59 c 0
 153.139648438 109.282226562 117 164.640625 117 259 c 0xd4
 117 290.577148438 122 616.211914062 122 632 c 0
 122 657 122 655 60 662 c 1
 65 686 l 1xc8
EndSplineSet
Position2: "cpsp-1" dx=0 dy=0 dh=50 dv=100
Substitution2: "c2pc-1" u.pcap
Substitution2: "c2sc-1" u.smcp
EndChar
StartChar: V
Encoding: 86 86 2710
Width: 853
Flags: HW
HStem: 658 38<18.0789 81.9741> 658 36<196.341 277 604.689 677.375 773.391 836.825>
VStem: 405 46<-27 41.9461>
AnchorPoint: "Bottom" 431 -15 basechar 0
AnchorPoint: "Top" 433 704 basechar 0
LayerCount: 2
Fore
SplineSet
271 689 m 1x60
 271 665 l 1
 245 663 174 657 134 657 c 0
 124 657 122 656 127 646 c 2
 433 13 l 1
 729 650 l 2
 731 654 733 657 725 657 c 0
 659 657 605 664 596 667 c 1
 597 691 l 1
 636 684 685 681 730 681 c 3
 774 681 815 685 838 691 c 1
 843 669 l 1
 777 648 762 664 755 647 c 0
 737 609.448242188 557 221.079101562 482 60 c 0
 470 34 449 -8 445 -27 c 1
 421 -27 l 1
 418 -6 403 20 386 56 c 0
 333 165.07421875 199 439.7421875 100 645 c 0
 92 660 85 651 14 668 c 1x60
 19 691 l 1xa0
 45 684 101 681 134 681 c 3
 151 681 211 684 271 689 c 1x60
EndSplineSet
Position2: "cpsp-1" dx=0 dy=0 dh=50 dv=100
Substitution2: "c2pc-1" v.pcap
Substitution2: "c2sc-1" v.smcp
EndChar
StartChar: W
Encoding: 87 87 54
Width: 1130
VWidth: 1159
Flags: HW
HStem: 656 26<591.128 674.836> 659 34<228.509 286.647 403.688 459.319 590.967 677.8 1096.15 1122.17>
VStem: 376 37<-21 34.9281> 757 36<-15 34.8204>
AnchorPoint: "Bottom" 574 -15 basechar 0
AnchorPoint: "Top" 579 699 basechar 0
LayerCount: 2
Back
SplineSet
983.044173691 534.57347442 m 0
 994.257150362 562.920370689 1004.30267628 588.458095445 1012.81594394 610.349355134 c 0
 1015.0872309 616.18980732 1017.20390245 621.491795962 1019.11882009 626.285663497 c 0
 1025.4874251 642.229037846 1029.30954875 653.071310855 1029.75766311 656.896296354 c 1
 1022.99951866 658.933853907 1001.23508803 658.775740607 964.331446396 659.405417064 c 0
 953.439285928 659.496649575 942.831707672 659.746596994 932.859395993 660.111014847 c 0
 909.487112929 660.965107407 888.546968817 662.456804359 870.920670564 664.048638238 c 1
 872.99000376 687.959092464 l 1
 911.43810046 684.776262293 940.723534462 683.796415436 964.593575421 683.404063347 c 0
 1007.78923255 683.042257419 1056.68123866 685.279326852 1107.21828225 692.866991273 c 1
 1111.52846969 669.269405768 l 1
 1050.83256543 656.186713535 1067.32644699 680.757264722 1024.13662917 572.530543904 c 1
 1019.41262106 560.825699304 1014.83026149 549.467468336 1010.32676872 538.300480195 c 1024
486.701197979 658.436831655 m 0
 473.403293935 659.047613665 460.455780285 659.910610264 448.048827913 661.000171798 c 0
 432.460090333 662.369153344 417.726261813 664.095093459 404.209850691 666.13427771 c 1
 407.562506896 689.897838972 l 1
 428.139427215 687.195534799 445.410702417 685.374647355 459.330180035 684.150687753 c 0
 482.945790773 682.28791706 506.790395182 681.385070458 532.782802049 681.371652722 c 0
 547.685275394 681.363959804 563.19951869 681.713839595 578.356936285 682.423515677 c 0
 588.539365909 683.238685234 605.369711121 684.791673796 621.792527876 686.474377123 c 0
 638.199901684 688.155498147 654.818057183 690.039639651 664.353898029 691.434433856 c 0
 666.843594395 691.870394099 669.329120588 692.324679013 671.748187858 692.786829178 c 1
 677.250050945 669.448499281 l 1
 674.689953573 668.728207859 671.9975493 668.309652365 668.198159238 667.742172817 c 0
 654.065603175 665.29463688 639.116774568 663.278429638 624.233540847 661.756479904 c 0
 610.042773027 660.30534128 594.830001594 659.203741587 579.8656557 658.467880335 c 0
 577.451239029 658.277248212 575.382936947 658.125914615 573.751430366 658.023550092 c 1
 573.748771892 658.065921383 573.74726716 658.02703135 548.587079389 656.553331469 c 1
 549.803588638 651.493536803 551.831882055 645.50746273 555.261596626 636.144486664 c 1
 579.067674542 571.757583946 l 2
 584.52729368 557.128715086 589.138524326 545.057333052 597.486921455 522.550068756 c 2
 609.914617758 488.631253258 l 2
 612.211739523 482.305233645 613.938957654 477.516534324 616.223411341 471.264641804 c 2
 651.551195095 375.715657052 l 2
 671.627118333 321.9163082 691.543334566 269.150401568 711.61724941 215.291765684 c 0
 730.524086845 164.564417229 749.219192022 113.809978186 767.304553714 63.0257999604 c 0
 768.234852696 60.3831199626 769.378450856 57.1492902831 770.360606509 54.3788101463 c 2
 780.8920054 25.8951532289 l 1
 783.735465697 33.6450315729 786.888011102 42.0953661951 790.793977123 52.2924411804 c 0
 798.464239702 72.0921714345 811.0577738 104.553328798 834.835306276 164.646067504 c 0
 864.520667181 239.669606555 911.592424177 357.64428796 988.068640038 547.276877441 c 1024
629.721119975 365.569191872 m 0
 623.643202187 381.850491826 617.58417968 398.13448171 611.557203804 414.421233822 c 0
 606.617726996 427.769227241 601.063780328 442.854621434 596.573570493 455.118157007 c 1
 483.725658245 167.831866702 447.02029912 66.968831797 427.95405873 24.1001431301 c 0
 419.074223723 4.24849505946 414.195165566 -8.29003182784 409.04804484 -19.6942607567 c 2
 398.217739535 -47.1237777109 l 1
 397.440367754 -45.2305012772 l 2
 396.796977332 -46.6459602061 397.226449645 -45.7011211182 396.8126467 -46.6114875957 c 1
 386.812539344 -19.3465966002 l 1
 375.16949052 9.00986102001 l 2
 367.400897333 26.9798560729 358.473212892 47.2358865794 342.909073429 84.4180274492 c 1
 233.280551051 353.322846954 145.724612973 568.393169036 138.014022359 586.171780922 c 1
 136.599785672 589.347678996 135.225596495 592.870581345 133.948339454 596.277296001 c 0
 131.643677162 601.82199862 129.079896777 608.043506675 126.759007414 613.803382609 c 0
 124.282986732 619.948256277 121.886861911 626.03246008 119.748687727 631.733531075 c 0
 118.333094538 634.908843307 116.619006981 638.698222672 115.10939701 641.96067797 c 0
 112.084615371 648.497608091 109.731559708 651.939710022 108.201572693 653.477934187 c 0
 106.502727484 655.185925647 105.39279255 655.851570234 99.9069060621 656.61380881 c 0
 95.1841232531 656.911717261 90.2781603133 657.271686562 85.9066562146 657.649881882 c 0
 73.8007274091 658.697211475 62.1520321848 660.113189211 51.1480155467 661.922369267 c 0
 36.1687958658 664.385115953 22.3870912424 667.566961636 10.2151740049 671.612502813 c 1
 17.2621439156 694.548091491 l 1
 64.4912335967 681.206658608 85.9744037508 682.501161753 102.187051775 680.51938169 c 0
 108.664856823 680.133112281 115.43277519 679.832432475 121.945879232 679.646737019 c 0
 128.801792574 679.451267708 136.073812773 679.361433862 143.240907908 679.374720513 c 0
 158.287651936 680.153589739 180.191286453 679.967399714 210.793219273 682.841847931 c 0
 229.885002481 684.635144535 252.413173506 687.6187037 278.689066852 692.775380588 c 1
 283.505314696 669.264438732 l 1
 260.613372042 664.377453011 235.386781332 660.747228523 209.414844483 658.420035663 c 0
 188.133151616 656.513108044 165.658480752 655.480324261 143.930987691 655.376098184 c 0
 139.95784943 655.145374045 139.152171335 655.044936832 137.138100439 654.797887837 c 1
 138.597492658 650.030291996 139.902892551 646.379074212 141.976161831 640.812668231 c 0
 145.891253057 631.913834114 148.92514393 624.505627402 151.107401027 618.87917157 c 0
 153.339516397 613.124167465 154.322175181 610.347774722 156.277601174 605.086251443 c 0
 158.014308104 600.918428553 159.7270203 596.832051291 161.083055661 593.600873281 c 1
 397.782260465 17.1237777109 l 1
 584.087958201 488.973384036 l 1
 556.569751127 563.400264771 l 2
 536.536947859 617.077498393 530.381326811 632.755739308 524.328460727 648.331359905 c 1
 514.817784201 661.978173537 527.23748541 654.214886935 458.270720997 660.152837362 c 1024
1040.01103484 613.886912784 m 0
 1038.64211708 610.453173288 1036.97131265 606.236996616 1035.58413355 602.678008893 c 1
 1024.50918232 574.220277899 1014.48592101 548.783308701 1001.61306402 516.274131137 c 0
 992.348975473 492.878555478 982.352644781 467.718393314 971.813517095 441.227510857 c 0
 937.202400916 354.229892296 896.735745008 252.876662997 857.141751031 152.582777337 c 0
 834.819227217 96.0385284208 813.183378762 40.8796337524 792.235602888 -13.2161917904 c 2
 781.215829646 -43.5205682055 l 1
 780.862362198 -42.5851213802 781.158768976 -43.6888850087 780.805301528 -42.7534381833 c 2
 769.77448448 -13.2412028354 l 2
 764.084876771 1.81626707896 758.696610959 15.4988281693 747.803056293 46.1827600823 c 2
 628.169284092 369.749207258 l 1025
EndSplineSet
Fore
SplineSet
1121 691 m 1x70
 1124 668 l 1
 1061 658 1061 662 1051 637 c 0
 884 222.393634841 834 93.8257956449 814 42 c 0
 805 19 795 -5 794 -15 c 1
 768 -15 l 1
 768 -7 759 17 744 57 c 0
 695 190 645 323 597 456 c 1
 483 165 446 64 428 24 c 0
 419 4 412 -12 411 -21 c 1
 384 -21 l 1
 384 -11 378 0 364 35 c 0
 234 351.475165563 126 612.043046358 116 638 c 0
 114 643 108 656 100 657 c 0
 70 660 38 661 5 671 c 1
 11 694 l 1
 42 685 93 681 145 681 c 3
 197 681 251 685 285 692 c 1
 290 669 l 1x70
 186 651 139 662 139 651 c 0
 139 646 142 640 144 635 c 2
 398 17 l 1
 584 489 l 1
 543 599.30625 527 640.05 524 648 c 1
 518 663 517 650 422 665 c 1
 425 689 l 1
 453 684 488 681 525 681 c 3xb0
 584 681 645 685 697 692 c 1x70
 701 668 l 1
 646 660.666666667 583 657.916666667 559 657 c 0xb0
 552 657 548 654 554 639 c 2
 781 26 l 1
 864 239.293729373 974 513.386138614 1021 630 c 0
 1037 670 1029 648 865 661 c 1
 865 686 l 1
 891 683 928 681 969 681 c 3
 1016 681 1070 683 1121 691 c 1x70
EndSplineSet
Position2: "cpsp-1" dx=0 dy=0 dh=50 dv=100
Substitution2: "c2pc-1" w.pcap
Substitution2: "c2sc-1" w.smcp
EndChar
StartChar: X
Encoding: 88 88 2716
Width: 808
Flags: HW
HStem: -6 31<50.6774 94.5845 228.476 295> -2 38<717.729 775.289> 653 39<247.532 307> 659 26<45 86.2795 479 517.234 697.996 734.194>
AnchorPoint: "Bottom" 403 -15 basechar 0
AnchorPoint: "Top" 396 699 basechar 0
LayerCount: 2
Fore
SplineSet
45 684 m 1x90
 90 682 124 681 154 681 c 3
 202 681 242 684 307 691 c 1
 308 668 l 1
 286 664 219.009765625 657 166 657 c 0
 153 657 152.809570312 651.831054688 158 646 c 2
 401 373 l 1
 485 484 556.481445312 594.481445312 604 642 c 0
 607 645 609.067382812 653.56640625 603 654 c 0
 589 655 529 655 476 663 c 1
 479 685 l 1
 520 683 561 681 602 681 c 3
 646 681 691 683 734 688 c 1
 736 664 l 1
 720 663 649.274414062 660.780273438 638 647 c 0
 620 625 551 532 417 353 c 1
 482 278.626953125 674.352539062 57.86328125 700 28 c 0
 707 22.2861328125 741 21.5712890625 777 18 c 1
 774 -5 l 1x60
 745 -1.6669921875 705 0 662 0 c 3
 602 0 538 -3.599609375 496 -9 c 1
 493 15 l 1
 564 23 623.84375 25.8388671875 643 27 c 0
 654 28 658.278320312 38.24609375 645 53 c 0
 591 114.309570312 505 214.447265625 402 334 c 1
 310.171875 214.787109375 220.108398438 102.245117188 167 31 c 0
 164 27 159.004882812 25.3779296875 173 25 c 0
 209.119140625 24 270.619140625 21 296 19 c 1
 295 -5 l 1
 249.1015625 -2 209.0625 0 170 0 c 3
 131.017578125 0 93.060546875 -2 51 -7 c 1
 49 16 l 1
 111.069335938 24 124.380859375 22.1240234375 139 37 c 0
 157.772460938 56.8740234375 170.616210938 73.767578125 386 353 c 1
 252 504 148.415039062 620.384765625 128 642 c 0
 111 660 112 659 44 660 c 1
 45 684 l 1x90
EndSplineSet
Position2: "cpsp-1" dx=0 dy=0 dh=50 dv=100
Substitution2: "c2pc-1" x.pcap
Substitution2: "c2sc-1" x.smcp
EndChar
StartChar: Y
Encoding: 89 89 2718
Width: 755
Flags: HW
HStem: -11 42<253 326.923 462.301 551.814> 649 35<218.294 273.95 487 489 670 672.328> 651 39<15.4737 85.3442 243.708 275.641 660.659 735>
VStem: 359 78<94.0509 324.999>
AnchorPoint: "Bottom" 392 -15 basechar 0
AnchorPoint: "Top" 393 699 basechar 0
LayerCount: 2
Fore
SplineSet
277 663 m 1xb0
 277 663 202 658 151 658 c 0xd0
 123 658 124.801757812 655.662109375 142 634 c 0
 273 469.5390625 389 334.98046875 396 329 c 1
 506 487 611.448242188 638.671875 615 644 c 0
 619 650 624 656 608 656 c 0
 569 656 517 661 487 665 c 1
 489 689 l 1
 512 685 574 681 634 681 c 3
 672 681 710 683 735 688 c 1xb0
 736 664 l 1
 664 650 657.70703125 662.208007812 645 644 c 0
 578 548 480 406 409 306 c 1
 409 253.1953125 409 195.411132812 409 35 c 0
 409 15 414 30 553 12 c 1
 550 -12 l 1
 495 -5 445 0 395 0 c 3
 349 0 304 -4 254 -12 c 1
 250 11 l 1
 383 29 385 16 385 38 c 2
 385 306 l 1
 335 362.83203125 212.896484375 505.755859375 103 645 c 0
 87.6611328125 664.434570312 78 660 13 664 c 1
 16 689 l 1
 51 685 119 681 180 681 c 3xd0
 218 681 253 683 275 687 c 1
 277 663 l 1xb0
EndSplineSet
Position2: "cpsp-1" dx=0 dy=0 dh=50 dv=100
Substitution2: "c2pc-1" y.pcap
Substitution2: "c2sc-1" y.smcp
EndChar
StartChar: Z
Encoding: 90 90 2723
Width: 734
Flags: HW
HStem: 1 40<182 574.424> 642 43<112.808 554>
AnchorPoint: "Bottom" 371 -15 basechar 0
AnchorPoint: "Top" 380 699 basechar 0
LayerCount: 2
Fore
SplineSet
26 563 m 1
 74 662 59 691 102 704 c 1
 117 687 151 681 183 681 c 0
 214 681 556 681 659 682 c 0
 671 682 680 681 685 681 c 1
 697 662 l 1
 677 640 l 0
 82 24 l 1
 228 24 376 24 522 24 c 0
 657 24 628 -12 689 149 c 1
 712 141 l 1
 678 57 667 24 644 -14 c 1
 622 -8 605 0 517 0 c 0
 366 0 122 0 43 0 c 1
 38 15 l 1
 67 44 104 83 134 114 c 0
 307 292 484 475 654 652 c 0
 658 656 l 1
 180 657 l 2
 68 657 114 706 46 551 c 1
 26 563 l 1
EndSplineSet
Position2: "cpsp-1" dx=0 dy=0 dh=50 dv=100
Substitution2: "c2pc-1" z.pcap
Substitution2: "c2sc-1" z.smcp
EndChar
StartChar: bracketleft
Encoding: 91 91 85
Width: 246
VWidth: 1515
Flags: W
HStem: -230 33<159.267 219> 685 32<163 219>
VStem: 37 54<-182 669>
LayerCount: 2
Fore
SplineSet
61 687 m 1
 61 -200 l 1
 219 -200 l 1
 219 -224 l 1
 37 -224 l 1
 37 711 l 1
 219 711 l 1
 219 687 l 1
 61 687 l 1
EndSplineSet
Position2: "cpsp-1" dx=0 dy=0 dh=50 dv=100
Position2: "'case' vertical ajustments for all-caps-1" dx=0 dy=90 dh=0 dv=0
EndChar
StartChar: asciicircum
Encoding: 94 94 871
Width: 463
Flags: HW
HStem: 378.451 317.052
VStem: 79.7493 303.814
LayerCount: 2
Fore
SplineSet
386 401 m 1
 364 391 l 1
 231 672 l 1
 99 391 l 1
 77 401 l 1
 215 697 l 1
 246 697 l 1
 386 401 l 1
EndSplineSet
EndChar
StartChar: a
Encoding: 97 97 0
Width: 413
VWidth: 1159
Flags: HMW
HStem: -15 43<75 181> 161 32<153 246> 364 52<128 220>
VStem: 33 64<34 133> 247 65<60 164 191 321>
AnchorPoint: "Bottom" 203 -15 basechar 0
AnchorPoint: "Ogonek" 354 18 basechar 0
AnchorPoint: "Top" 201 465 basechar 0
LayerCount: 2
Fore
SplineSet
285 156 m 1x01d0
 277 158 271 158 263 158 c 0
 230 159 187 153 170 149 c 0
 117 137 70 114 70 65 c 3
 70 33 74 13 110 13 c 3
 171 13 223 31 287 58 c 1
 284 72 284 89 284 111 c 3
 284 132 284 142 285 156 c 1x01d0
207 434 m 3
 231 434 296 381 306 361 c 0
 311 349 313 325 313 310 c 3
 313 240 308 179 308 111 c 3
 308 82 307 52 314 35 c 0
 318 17 327 16 330 16 c 3
 342 16 366 38 384 62 c 1
 403 47 l 1
 380 19 349 -8 331 -8 c 3x05b0
 310 -8 294 2 290 33 c 1
 228 8 178 -11 110 -11 c 7
 59 -11 46 23 46 65 c 3x03d0
 46 81 53 101 58 109 c 0
 67 123 73 130 89 141 c 0
 130 169 198 190 285 180 c 1
 287 233 289 310 289 310 c 3
 289 320 288 343 284 354 c 0
 279 364 223 410 207 410 c 3
 194 410 87 377 87 331 c 3
 87 325 92 316 93 312 c 1
 69 306 l 1
 66 316 63 325 63 331 c 3x03b0
 63 348 71 366 88 380 c 0
 122 408 193 434 207 434 c 3
EndSplineSet
Substitution2: "case-1" A
Substitution2: "pcap-1" a.pcap
Substitution2: "smcp-1" a.smcp
EndChar
StartChar: b
Encoding: 98 98 1
Width: 507
Flags: HMW
HStem: -9 44<177 317> 369 43<190 315>
VStem: 72 65<68 347 368 624> 398 69<122 283>
AnchorPoint: "Bottom" 248 -15 basechar 0
AnchorPoint: "Top" 104 749 basechar 0
LayerCount: 2
Fore
SplineSet
87 323 m 5
 84 224 84 167 84 68 c 7
 84 64 83 59 90 54 c 4
 130 26 186 9 240 9 c 7
 342 9 436 93 436 210 c 7
 436 299 366 394 266 394 c 7
 192 394 104 339 87 323 c 5
7 680 m 5
 58 705 77 712 91 759 c 5
 113 749 l 5
 99 717 96 689 95 667 c 4
 87 509 87 522 87 354 c 5
 117 376 194 418 266 418 c 7
 379 418 460 311 460 210 c 7
 460 85 361 -15 240 -15 c 7
 142 -15 111 23 79 23 c 7
 74 23 62 -1 56 -10 c 5
 34 1 l 5
 39 13 53 29 57 41 c 4
 60 49 59 76 60 145 c 4
 62 288 64 367 64 510 c 7
 64 541 71 640 71 667 c 4
 71 686 71 683 70 683 c 7
 64 683 39 669 19 658 c 5
 7 680 l 5
EndSplineSet
Substitution2: "case-1" B
Substitution2: "pcap-1" b.pcap
Substitution2: "smcp-1" b.smcp
EndChar
StartChar: c
Encoding: 99 99 231
Width: 421
Flags: HMW
HStem: -15 52<185 333> 357 60<169 308>
VStem: 34 71<119 282>
AnchorPoint: "Bottom" 228 -15 basechar 0
AnchorPoint: "Top" 231 465 basechar 0
LayerCount: 2
Fore
SplineSet
377 352 m 1
 341 376 293 388 261 388 c 3
 148 388 60 290 60 190 c 3
 60 62 164 11 236 11 c 3
 290 11 336 36 368 60 c 1
 382 41 l 1
 350 15 293 -13 236 -13 c 3
 187 -13 36 19 36 190 c 3
 36 311 143 412 261 412 c 3
 309 412 358 393 389 372 c 1
 377 352 l 1
EndSplineSet
Substitution2: "case-1" C
Substitution2: "pcap-1" c.pcap
Substitution2: "smcp-1" c.smcp
EndChar
StartChar: d
Encoding: 100 100 3
Width: 511
Flags: HMW
HStem: 451 102<-225.927 -142.073>
VStem: -236 104<460.954 543.046>
AnchorPoint: "Bottom" 224 -15 basechar 0
AnchorPoint: "Top" 390 734 basechar 0
AnchorPoint: "TopRight" 504 581 basechar 0
LayerCount: 2
Fore
SplineSet
403 63 m 5
 352 22 277 -11 198 -11 c 7
 98 -11 35 76 35 172 c 7
 35 254 70 322 131 363 c 4
 179 395 237 411 268 411 c 7
 304 411 385 382 405 379 c 5
 405 454 415 588 419 672 c 4
 421 710 417 710 417 710 c 7
 407 710 382 680 349 671 c 5
 344 694 l 5
 369 702 413 737 428 756 c 5
 449 749 l 5
 448 734 446 706 445 695 c 4
 434 537 428 357 428 185 c 7
 428 118 429 33 429 -9 c 7
 429 -11 429 -21 435 -21 c 7
 446 -21 487 6 502 15 c 5
 517 -3 l 5
 476 -28 446 -46 430 -46 c 7
 420 -46 405 -38 405 -9 c 7
 405 15 403 59 403 63 c 5
268 387 m 7
 231 387 173 365 145 344 c 4
 98 308 59 244 59 172 c 7
 59 93 108 13 198 13 c 7
 280 13 358 56 403 99 c 5
 403 182 403 268 405 352 c 5
 403 353 l 4
 360 369 284 387 268 387 c 7
EndSplineSet
Substitution2: "case-1" D
Substitution2: "pcap-1" d.pcap
Substitution2: "smcp-1" d.smcp
EndChar
StartChar: e
Encoding: 101 101 296
Width: 409
Flags: HMW
HStem: 425 168
VStem: 53 185
AnchorPoint: "Bottom" 213 -15 basechar 0
AnchorPoint: "Ogonek" 307 23 basechar 0
AnchorPoint: "Top" 217 465 basechar 0
LayerCount: 2
Fore
SplineSet
207 391 m 3
 182 391 99 345 76 241 c 1
 321 298 l 0
 324 299 l 1
 310 344 259 391 207 391 c 3
207 415 m 3
 265 415 324 363 347 307 c 0
 348 304 349 303 370 306 c 1
 372 282 l 1
 278 262 162 236 71 215 c 1
 69 202 67 189 67 176 c 3
 67 60 133 13 196 13 c 3
 255 13 310 42 347 73 c 1
 362 54 l 1
 321 19 263 -11 196 -11 c 3
 109 -11 43 57 43 176 c 3
 43 344.632673307 169.423155091 415 207 415 c 3
EndSplineSet
Substitution2: "case-1" E
Substitution2: "pcap-1" e.pcap
Substitution2: "smcp-1" e.smcp
EndChar
StartChar: f
Encoding: 102 102 5
Width: 357
VWidth: 1159
Flags: HMW
HStem: -6 37<34 97 191 283> 355 47<39 113 187 338> 701 55<268 384>
VStem: 114 70<42 369 405 614>
AnchorPoint: "Bottom" 156 -15 basechar 0
AnchorPoint: "Top" 262 748 basechar 0
LayerCount: 2
Fore
SplineSet
320 769 m 7
 367 769 412 752 435 731 c 5
 420 713 l 5
 389 737 347 745 320 745 c 7
 255 745 146 666 146 505 c 4
 146 495 146 448 146 413 c 5
 207 413 261 413 322 413 c 5
 322 389 l 5
 262 389 206 389 146 389 c 5
 146 349 146 317 146 300 c 7
 145 209 145 124 145 36 c 4
 145 26 145 27 156 26 c 4
 180 25 202 23 226 21 c 5
 222 -3 l 5
 196 1 159 2 133 2 c 7
 112 2 80 -1 59 -5 c 5
 55 19 l 5
 70 21 88 24 105 25 c 4
 121 27 121 26 121 63 c 4
 121 122 121 199 122 273 c 7
 122 298 122 343 122 389 c 5
 100 389 80 389 58 389 c 5
 58 413 l 5
 80 413 100 413 122 413 c 5
 122 448 122 489 122 500 c 7
 122 610 157 669 204 715 c 4
 226 737 269 769 320 769 c 7
EndSplineSet
Substitution2: "salt-1" f.alt
Substitution2: "case-1" F
Substitution2: "pcap-1" f.pcap
Substitution2: "smcp-1" f.smcp
EndChar
StartChar: g
Encoding: 103 103 388
Width: 475
Flags: HMW
HStem: -335 65<94 297> -106 69<153 388> 362 42<153 268>
VStem: 45 68<155 306> 321 73<144 309> 404 48<-213 -122>
AnchorPoint: "Bottom" 225 -318 basechar 0
AnchorPoint: "Top" 224 465 basechar 0
LayerCount: 2
Fore
SplineSet
241 385 m 3
 127 385 77 316 77 229 c 3
 77 149 151 88 239 90 c 1
 313 114 379 161 379 238 c 3
 379 297 349 385 241 385 c 3
52 -206 m 3
 52 -303 133 -317 181 -317 c 3
 236 -317 434 -285 434 -178 c 3
 434 -129 394 -84 302 -84 c 3
 277 -84 252 -84 227 -84 c 3
 203 -84 179 -83 165 -82 c 1
 89 -117 52 -166 52 -206 c 3
96 -10 m 3
 96 -47 160 -60 227 -60 c 3
 253 -60 274 -60 302 -60 c 3
 417 -60 458 -123 458 -178 c 3
 458 -310 230 -341 181 -341 c 3
 52 -341 28 -263 28 -206 c 3
 28 -131 115 -86 130 -77 c 1
 59 -47 70 -16 68 6 c 1
 104 32 155 56 194 70 c 1
 122 84 53 143 53 229 c 3
 53 343 131 409 241 409 c 3
 278 409 319 398 344 377 c 1
 366 385 385 385 410 385 c 3
 426 385 447 382 454 378 c 1
 446 355 l 1
 434 359 423 361 410 361 c 0
 395 361 383 361 364 356 c 1
 386 330 403 295 403 238 c 3
 403 135 319 93 249 66 c 0
 99 8 96 -4 96 -10 c 3
EndSplineSet
Substitution2: "case-1" G
Substitution2: "pcap-1" g.pcap
Substitution2: "smcp-1" g.smcp
EndChar
StartChar: h
Encoding: 104 104 424
Width: 531
Flags: HMW
HStem: -7 33<21 68 169 229 322 368 450 517> 353 50<219 349>
VStem: 92 70<42 333 352 611> 379 68<33 322>
AnchorPoint: "Bottom" 275 -15 basechar 0
AnchorPoint: "Top" 120 733 basechar 0
LayerCount: 2
Fore
SplineSet
116 312 m 1
 116 278 116 236 116 189 c 3
 116 120 115 57 115 32 c 0
 115 29 119 28 122 28 c 0
 148 27 185 20 208 18 c 1
 203 -6 l 1
 169 0 134 5 105 5 c 3
 80 5 51 0 26 -4 c 1
 22 20 l 1
 47 23 62 27 85 28 c 0
 92 28 91 34 91 44 c 0
 92 104 92 198 92 274 c 3
 92 541 93 647 92 671 c 0
 92 678 91 684 88 684 c 3
 85 684 52 660 31 656 c 1
 23 679 l 1
 54 690 89 715 114 750 c 1
 133 738 l 1
 126 722 118 691 117 678 c 0
 116 665 117 456 116 341 c 1
 177 383 263 408 311 408 c 3
 402 408 437 349 443 301 c 0
 445 281 446 235 446 183 c 3
 446 118 445 55 445 36 c 0
 445 31 447 30 455 29 c 0
 469 28 502 22 515 17 c 1
 507 -6 l 1
 482 3 465 5 438 5 c 3
 406 5 376 0 348 -6 c 1
 341 18 l 1
 362 21 379 24 407 26 c 0
 418 28 421 31 421 38 c 0
 421 63 422 120 422 144 c 3
 422 196 422 264 419 296 c 0
 414 349 374 384 313 384 c 3
 253 384 172 352 116 312 c 1
EndSplineSet
Substitution2: "case-1" H
Substitution2: "pcap-1" h.pcap
Substitution2: "smcp-1" h.smcp
EndChar
StartChar: k
Encoding: 107 107 490
Width: 486
Flags: HMW
HStem: -6 33<17 67 297 341 441 484> 371 32<251 284 383 449>
VStem: 88 63<55 214 237 488>
DStem2: 215 255 161 220 0.728431 -0.685119<0 239.996>
AnchorPoint: "Bottom" 242 -15 basechar 0
AnchorPoint: "Top" 123 739 basechar 0
LayerCount: 2
Fore
SplineSet
111 240 m 1
 165 270 242 316 296 351 c 0
 306 357 322 367 322 373 c 3
 322 376 314 374 286 377 c 1
 288 401 l 1
 305 399 328 399 345 399 c 3
 374 399 412 401 440 403 c 1
 442 379 l 1
 364 374 377 374 350 357 c 2
 190 258 l 1
 260 181 327 107 402 29 c 1
 430 29 451 25 487 19 c 1
 483 -5 l 1
 451 1 434 5 394 5 c 3
 367 5 339 -2 312 -4 c 1
 309 20 l 1
 356 25 356 27 370 28 c 1
 308 93 229 180 169 246 c 1
 111 212 l 1
 111 141 111 73 111 46 c 0
 111 25 110 28 132 26 c 0
 151 24 164 22 186 19 c 1
 179 -4 l 1
 150 1 134 5 98 5 c 3
 79 5 57 -2 38 -4 c 1
 36 20 l 1
 50 22 66 25 76 27 c 0
 87 29 87 31 87 38 c 0
 87 100 87 197 87 274 c 3
 87 559 87 625 87 660 c 0
 87 676 86 690 84 690 c 3
 76 690 51 668 30 663 c 1
 22 685 l 1
 51 695 85 720 109 754 c 1
 128 742 l 1
 121 725 112 693 112 680 c 0
 112 607 111 362 111 240 c 1
EndSplineSet
Substitution2: "case-1" K
Substitution2: "pcap-1" k.pcap
Substitution2: "smcp-1" k.smcp
EndChar
StartChar: l
Encoding: 108 108 11
Width: 248
Flags: HMW
HStem: -7 33<9 67 174 243>
VStem: 91 70<57 558>
AnchorPoint: "Bottom" 119 -15 basechar 0
AnchorPoint: "TopRight" 220 581 basechar 0
AnchorPoint: "Top" 121 734 basechar 0
LayerCount: 2
Fore
SplineSet
138 300 m 7
 138 215 138 83 138 45 c 4
 138 27 136 29 160 27 c 4
 174 26 197 24 232 17 c 5
 228 -7 l 5
 196 -1 166 4 125 4 c 7
 105 4 51 -1 22 -5 c 5
 20 19 l 5
 39 21 64 25 85 26 c 4
 116 28 114 27 114 49 c 4
 114 108 114 200 114 274 c 7
 114 548 114 630 114 655 c 4
 114 691 113 693 112 693 c 7
 107 693 85 670 47 658 c 5
 39 680 l 5
 71 690 107 717 133 749 c 5
 152 734 l 5
 134 715 138 718 138 686 c 4
 138 611 138 424 138 300 c 7
EndSplineSet
Substitution2: "case-1" L
Substitution2: "pcap-1" l.pcap
Substitution2: "smcp-1" l.smcp
EndChar
StartChar: m
Encoding: 109 109 529
Width: 791
Flags: HMW
HStem: -7 33<21 68 170 229 296 348 440 492 572 619 711 776> 348 37<290 599>
VStem: 95 66<44 317 330 333> 367 68<36 321> 637 68<36 306>
AnchorPoint: "Bottom" 390 -15 basechar 0
AnchorPoint: "Top" 407 465 basechar 0
LayerCount: 2
Fore
SplineSet
696 169 m 3
 696 111 696 57 696 39 c 0
 696 28 696 30 708 29 c 0
 723 28 766 23 781 19 c 1
 777 -5 l 1
 734 4 705 6 659 6 c 3
 640 6 616 1 600 -5 c 1
 596 19 l 1
 611 23 623 26 639 28 c 0
 672 33 672 20 672 60 c 0
 672 83 672 135 672 156 c 3
 672 200 672 247 672 265 c 0
 671 333 644 376 579 376 c 3
 514 376 455 358 401 333 c 1
 404 322 406 311 406 296 c 3
 406 271 406 227 406 191 c 3
 406 127 406 62 406 42 c 0
 406 32 406 29 421 28 c 0
 437 27 460 24 476 18 c 1
 471 -5 l 1
 437 4 425 6 388 6 c 3
 363 6 328 1 306 -5 c 1
 301 18 l 1
 320 23 345 23 366 28 c 0
 383 32 382 26 382 60 c 0
 382 82 382 131 382 151 c 3
 382 195 382 261 382 279 c 0
 382 336 364 391 311 391 c 3
 231 391 167 355 112 331 c 1
 112 231 112 98 112 55 c 3
 112 27 112 31 133 29 c 0
 154 27 182 23 200 18 c 1
 195 -5 l 1
 161 6 135 6 98 6 c 3
 73 6 44 1 19 -3 c 1
 15 20 l 1
 32 23 41 24 59 27 c 0
 87 32 88 28 88 60 c 0
 88 97 87 169 87 207 c 3
 87 232 88 320 88 344 c 0
 88 369 86 369 82 369 c 3
 71 369 69 362 41 356 c 1
 34 378 l 1
 53 383 71 386 96 415 c 1
 118 408 l 1
 115 395 113 376 112 356 c 1
 163 382 240 415 311 415 c 3
 357 415 379 386 391 357 c 1
 434 375 497 400 579 400 c 3
 662 400 696 348 696 266 c 3
 696 236 696 202 696 169 c 3
EndSplineSet
Substitution2: "case-1" M
Substitution2: "pcap-1" m.pcap
Substitution2: "smcp-1" m.smcp
EndChar
StartChar: n
Encoding: 110 110 13
Width: 526
VWidth: 1159
Flags: HMW
HStem: -7 33<21 68 170 229 308 360 454 512> 338 60<237 357>
VStem: 95 66<44 316 330 333> 379 68<36 316>
AnchorPoint: "Bottom" 269 -15 basechar 0
AnchorPoint: "Top" 272 465 basechar 0
LayerCount: 2
Fore
SplineSet
95 353 m 4
 95 358 94 363 94 363 c 7
 89 363 61 347 38 347 c 5
 34 371 l 5
 54 377 75 380 102 415 c 5
 124 405 l 5
 122 392 119 368 119 355 c 5
 175 386 236 414 309 414 c 7
 389 414 445 381 445 273 c 7
 445 245 443 214 443 183 c 7
 443 114 440 58 440 36 c 7
 440 31 442 31 461 29 c 4
 472 28 513 20 519 17 c 5
 510 -5 l 5
 487 3 443 7 419 7 c 7
 407 7 345 -2 334 -7 c 5
 324 15 l 5
 332 19 386 28 395 29 c 4
 415 32 413 28 416 60 c 4
 418 91 419 154 419 183 c 7
 419 214 421 258 421 273 c 4
 420 343 397 390 309 390 c 7
 235 390 171 356 119 327 c 5
 119 227 119 98 119 55 c 7
 119 28 120 32 140 27 c 4
 147 25 203 19 210 16 c 5
 204 -7 l 5
 184 -1 126 7 105 7 c 7
 87 7 37 -2 19 -6 c 5
 13 18 l 5
 23 20 58 25 68 27 c 4
 96 32 95 29 95 60 c 4
 95 97 95 160 95 199 c 7
 95 227 95 327 95 353 c 4
EndSplineSet
Substitution2: "case-1" N
Substitution2: "pcap-1" n.pcap
Substitution2: "smcp-1" n.smcp
EndChar
StartChar: o
Encoding: 111 111 569
Width: 505
Flags: HW
HStem: -11 39<199.926 327.747> 374 45<168.903 305.133>
VStem: 32 76<130.211 291.037> 395 78<107.641 276.826>
AnchorPoint: "Middle" 256 206 basechar 0
AnchorPoint: "Bottom" 250 -15 basechar 0
AnchorPoint: "Ogonek" 342 20 basechar 0
AnchorPoint: "Horn" 422 342 basechar 0
AnchorPoint: "Top" 252 465 basechar 0
LayerCount: 2
Fore
SplineSet
256 422 m 3
 392 422 473 311 473 202 c 3
 473 77 379 -11 255 -11 c 3
 131 -11 32 75 32 203 c 3
 32 356 166 422 256 422 c 3
256 398 m 3
 186 398 56 345 56 203 c 3
 56 93 140 13 255 13 c 3
 377 13 449 104 449 202 c 3
 449 311 366 398 256 398 c 3
EndSplineSet
Substitution2: "case-1" O
Substitution2: "pcap-1" o.pcap
Substitution2: "smcp-1" o.smcp
EndChar
StartChar: p
Encoding: 112 112 651
Width: 513
Flags: HMW
HStem: -342 34<164.753 242> -10 41<180.88 340.791> 355 47<211.583 333.731>
VStem: 89 73<-208.562 7 49.7914 263.889> 415 66<116.734 264.787>
AnchorPoint: "Bottom" 286 -15 basechar 0
AnchorPoint: "Top" 251 465 basechar 0
LayerCount: 2
Fore
SplineSet
303 392 m 3
 228 392 167 365 108 346 c 1
 108 61 l 1
 144 36 185 16 239 16 c 3
 344 16 452 94 452 216 c 3
 452 293 393 392 303 392 c 3
84 39 m 3xbe
 84 184 84 327 84 351 c 3
 84 374 83 382 81 382 c 3
 76 382 62 367 12 351 c 1
 4 375 l 1
 28 380 64 399 91 429 c 1
 107 419 108 424 108 372 c 1
 163 392 239 416 303 416 c 3
 400 416 476 311 476 216 c 3
 476 79 356 -8 239 -8 c 3
 192 -8 147 6 108 29 c 1
 108 -62 108 -254 108 -295 c 0
 108 -312 111 -313 140 -314 c 0
 151 -314 163 -316 172 -316 c 1
 170 -340 l 1x7e
 150 -339 126 -337 99 -337 c 3
 81 -337 53 -342 35 -346 c 1
 31 -323 l 1
 40 -321 46 -320 56 -318 c 0
 85 -312 84 -312 84 -285 c 0
 84 -228 84 -128 84 39 c 3xbe
EndSplineSet
Substitution2: "case-1" P
Substitution2: "pcap-1" p.pcap
Substitution2: "smcp-1" p.smcp
EndChar
StartChar: q
Encoding: 113 113 678
Width: 491
Flags: HMW
HStem: -337 34<473 508> -9 43<185 329> 375 44<186 331>
VStem: 32 74<114 280> 367 66<-164 26 53 347> 438 18<411 417>
AnchorPoint: "Bottom" 218 -15 basechar 0
AnchorPoint: "Top" 272 465 basechar 0
LayerCount: 2
Fore
SplineSet
415 64 m 1
 415 170 416 230 416 335 c 3
 416 341 416 359 411 362 c 0
 384 379 339 391 299 391 c 3
 166 391 63 291 63 181 c 3
 63 95 136 9 224 9 c 3
 314 9 398 55 415 64 c 1
415 32 m 1
 371 13 304 -15 224 -15 c 3
 119 -15 39 86 39 181 c 3
 39 308 158 415 299 415 c 3
 363 415 396 394 415 394 c 3
 424 394 427 413 430 419 c 1
 455 409 l 1
 441 382 441 377 441 363 c 0
 441 348 440 331 440 266 c 0
 440 241 439 135 439 93 c 3
 439 -152 439 -244 439 -286 c 0
 439 -324 442 -317 469 -319 c 0
 476 -320 491 -321 496 -321 c 1
 494 -345 l 1
 478 -344 455 -343 427 -343 c 3
 409 -343 367 -348 349 -352 c 1
 346 -328 l 1
 358 -327 365 -325 378 -323 c 0
 415 -318 415 -321 415 -293 c 0
 415 -258 415 -100 415 32 c 1
EndSplineSet
Substitution2: "case-1" Q
Substitution2: "pcap-1" q.pcap
Substitution2: "smcp-1" q.smcp
EndChar
StartChar: r
Encoding: 114 114 17
Width: 358
Flags: HMW
HStem: -5 32<30 59 177 273> 316 108<269 335>
VStem: 91 69<53 321>
AnchorPoint: "Bottom" 145 -15 basechar 0
AnchorPoint: "Top" 166 465 basechar 0
LayerCount: 2
Fore
SplineSet
121 196 m 0
 120 152 120 42 120 33 c 0
 120 31 119 30 158 27 c 0
 180 26 204 25 223 24 c 1
 223 0 l 1
 199 1 156 4 130 4 c 3
 103 4 75 -1 48 -5 c 1
 44 19 l 1
 53 20 59 21 70 22 c 0
 95 26 95 24 95 57 c 0
 95 85 97 188 97 218 c 3
 97 253 97 325 97 363 c 0
 97 369 97 378 96 378 c 3
 88 378 81 354 49 337 c 1
 39 360 l 1
 56 367 81 396 100 433 c 1
 121 425 121 425 121 406 c 3
 121 397 121 369 121 337 c 1
 158 380 237 424 292 424 c 3
 318 424 344 402 344 388 c 3
 321 381 l 1
 318 391 305 400 292 400 c 3
 240 400 121 338 121 278 c 0
 121 247 121 210 121 196 c 0
EndSplineSet
Substitution2: "case-1" R
Substitution2: "pcap-1" r.pcap
Substitution2: "smcp-1" r.smcp
EndChar
StartChar: s
Encoding: 115 115 712
Width: 352
Flags: HMW
HStem: -9 38<111 233> 370 38<130 232>
VStem: 49 68<274 353> 250 68<46 140>
AnchorPoint: "Bottom" 164 -15 basechar 0
AnchorPoint: "Top" 182 465 basechar 0
LayerCount: 2
Fore
SplineSet
53 105 m 1
 77 75 27 18 151 18 c 3
 230 18 287 46 287 98 c 3
 287 153 232 180 173 198 c 0
 123 215 51 238 51 307 c 3
 51 363 111 409 191 409 c 3
 223 409 251 402 281 395 c 1
 281 395 287 351 291 322 c 1
 267 320 l 1
 259 377 250 385 191 385 c 3
 118 385 75 345 75 307 c 3
 75 273 108 244 181 221 c 0
 277 193 312 147 312 98 c 3
 312 26 237 -6 151 -6 c 3
 102 -6 65 8 28 25 c 1
 34 39 37 53 37 68 c 3
 37 73 36 89 32 94 c 1
 53 105 l 1
EndSplineSet
Substitution2: "case-1" S
Substitution2: "pcap-1" s.pcap
Substitution2: "smcp-1" s.smcp
EndChar
StartChar: t
Encoding: 116 116 19
Width: 341
VWidth: 1159
Flags: HMW
HStem: -10 49<154 261> 360 36<148 304>
VStem: 68 74<52 357>
AnchorPoint: "Bottom" 183 -15 basechar 0
AnchorPoint: "TopRight" 313 531 basechar 0
AnchorPoint: "Top" 144 508 basechar 0
LayerCount: 2
Fore
SplineSet
28 399 m 5
 73 399 72 395 79 465 c 5
 103 463 l 5
 101 441 100 423 98 399 c 5
 158 399 230 399 290 399 c 5
 290 375 l 5
 229 375 158 375 97 375 c 5
 94 305 87 219 87 103 c 7
 87 59 108 14 155 14 c 7
 213 14 264 43 297 62 c 5
 310 42 l 5
 273 19 211 -10 155 -10 c 7
 135 -10 63 1 63 103 c 7
 63 208 70 272 73 375 c 5
 73 375 45 375 28 375 c 5
 28 399 l 5
EndSplineSet
Substitution2: "case-1" T
Substitution2: "pcap-1" t.pcap
Substitution2: "smcp-1" t.smcp
EndChar
StartChar: u
Encoding: 117 117 814
Width: 506
Flags: HMW
HStem: -11 55<171 272> 338 31<291 350>
VStem: 69 76<71 327> 358 65<36 52 75 331>
AnchorPoint: "Bottom" 255 -15 basechar 0
AnchorPoint: "Ogonek" 392 -3 basechar 0
AnchorPoint: "Horn" 434 333 basechar 0
AnchorPoint: "Top" 264 465 basechar 0
LayerCount: 2
Fore
SplineSet
321 369 m 1
 353 378 387 389 412 399 c 1
 429 385 l 1
 426 341 425 175 425 137 c 3
 425 107 425 81 427 54 c 0
 430 22 435 -3 436 -3 c 3
 440 -3 467 13 487 24 c 1
 501 4 l 1
 484 -5 467 -14 447 -24 c 0
 442 -26 438 -28 434 -28 c 3
 411 -28 409 -6 404 46 c 1
 351 25 252 -12 178 -12 c 3
 141 -12 107 4 89 41 c 0
 76 68 70 96 70 148 c 3
 70 201 71 261 76 312 c 0
 81 368 l 3
 80 368 45 338 38 333 c 1
 25 353 l 1
 62 388 68 395 87 420 c 1
 111 411 l 1
 99 331 94 236 94 148 c 3
 94 75 109 12 178 12 c 3
 247 12 345 51 403 72 c 1
 398 110 402 324 402 333 c 3
 402 369 400 365 333 347 c 1
 321 369 l 1
EndSplineSet
Substitution2: "case-1" U
Substitution2: "pcap-1" u.pcap
Substitution2: "smcp-1" u.smcp
EndChar
StartChar: v
Encoding: 118 118 2462
Width: 418
Flags: HMW
HStem: 371 30<6 43 144 203 270 316>
DStem2: 224 95 55 339 0.322551 -0.946552<-271.079 -13.8948> 224 95 273 128 0.393919 0.919145<1.32074 223.239>
AnchorPoint: "Bottom" 193 -15 basechar 0
AnchorPoint: "Top" 210 465 basechar 0
LayerCount: 2
Fore
SplineSet
419 392 m 1
 377 382 375 379 360 345 c 0
 329 275 299 202 270 133 c 0
 251 88 228 38 205 -20 c 1
 188 -20 l 1
 153 113 104 252 64 354 c 0
 60 364 58 376 42 377 c 0
 31 378 16 381 3 382 c 1
 6 405 l 1
 23 401 48 400 65 400 c 3
 100 400 150 405 183 411 c 1
 188 387 l 1
 162 381 99 377 99 377 c 0
 92 376 88 375 88 367 c 3
 88 366 89 356 91 351 c 0
 126 258 174 122 199 29 c 1
 240 123 291 246 331 340 c 0
 334 347 336 353 336 362 c 3
 336 387 332 375 269 389 c 1
 277 412 l 1
 310 405 326 404 345 404 c 3
 367 404 393 409 411 415 c 1
 419 392 l 1
EndSplineSet
Substitution2: "case-1" V
Substitution2: "pcap-1" v.pcap
Substitution2: "smcp-1" v.smcp
EndChar
StartChar: w
Encoding: 119 119 2465
Width: 657
Flags: HMW
HStem: 371 30<5 41 152 191 245 282 383 442 510 554>
DStem2: 208 109 254 128 0.453531 0.891241<1.73782 195.326> 447 95 321 271 0.269208 -0.963082<-202.488 0> 447 95 497 128 0.445318 0.895373<0.637142 266.408>
AnchorPoint: "Bottom" 294 -15 basechar 0
AnchorPoint: "Top" 323 465 basechar 0
LayerCount: 2
Fore
SplineSet
659 391 m 1
 634 381 634 378 620 353 c 0
 580 280 533 205 493 133 c 0
 469 89 442 38 416 -20 c 1
 395 -20 l 1
 371 84 347 193 327 285 c 1
 306 236 283 187 263 140 c 0
 242 92 219 40 191 -20 c 1
 169 -20 l 1
 144 98 93 240 51 345 c 0
 45 359 39 377 32 377 c 0
 23 377 12 378 2 381 c 1
 5 405 l 1
 17 401 37 400 49 400 c 3
 81 400 117 402 147 409 c 1
 151 385 l 1
 122 378 74 377 74 377 c 0
 70 377 68 376 68 372 c 3
 68 365 73 353 77 344 c 0
 119 245 158 125 184 24 c 1
 230 125 267 211 318 325 c 1
 316 336 313 348 312 359 c 0
 310 375 310 374 299 376 c 0
 285 377 265 380 249 381 c 1
 252 405 l 1
 271 401 299 400 318 400 c 3
 345 400 383 406 408 414 c 1
 413 390 l 1
 394 383 349 378 349 378 c 0
 341 377 336 376 336 367 c 3
 336 366 337 356 338 351 c 0
 358 255 387 116 410 23 c 1
 461 133 527 240 592 352 c 0
 597 360 600 365 600 374 c 3
 600 384 596 379 539 391 c 1
 544 415 l 1
 579 405 597 404 617 404 c 3
 628 404 640 409 649 415 c 1
 659 391 l 1
EndSplineSet
Substitution2: "case-1" W
Substitution2: "pcap-1" w.pcap
Substitution2: "smcp-1" w.smcp
EndChar
StartChar: x
Encoding: 120 120 2474
Width: 435
Flags: HW
HStem: -6 29<10.2759 49.706 116.703 163.933 229.222 267.152 356.707 423.966> 371 33<19 96.6319 177.005 205.552> 379 26<263 307.763 387.82 420>
AnchorPoint: "Bottom" 211 -15 basechar 0
AnchorPoint: "Top" 220 465 basechar 0
LayerCount: 2
Fore
SplineSet
8 18 m 1xc0
 38 21 53 20 60 29 c 2
 207 211 l 1
 125 354 l 2
 97 382 92 377 19 380 c 1
 19 404 l 1xc0
 36 403 69 401 86 401 c 0
 124 401 169 403 205 407 c 1
 209 383 l 1
 157 376 142 379 142 374 c 3
 142 372 144 369 145 367 c 2
 222 229 l 1
 319 346 l 2
 326 354 340 369 340 378 c 3
 340 381 288 380 262 381 c 1
 263 405 l 1xa0
 279 404 306 404 322 404 c 0
 352 404 399 406 420 407 c 1
 423 383 l 1
 376 380 378 380 363 362 c 0
 320 310 277 257 234 205 c 1
 266 150 296 95 327 41 c 0
 344 23 357 25 427 19 c 1
 423 -5 l 1
 396 -1 346 2 318 2 c 0
 291 2 261 -1 230 -5 c 1
 227 17 l 1
 294 30 303 19 303 31 c 3
 303 33 301 36 299 39 c 2
 218 186 l 1
 104 45 l 2
 100 40 97 35 97 30 c 3
 97 22 111 22 166 17 c 1
 163 -6 l 1
 141 -4 111 -1 88 -1 c 0
 63 -1 34 -4 11 -6 c 1
 8 18 l 1xc0
EndSplineSet
Substitution2: "case-1" X
Substitution2: "pcap-1" x.pcap
Substitution2: "smcp-1" x.smcp
EndChar
StartChar: y
Encoding: 121 121 2480
Width: 446
Flags: HMW
HStem: 365 30<9 37 170 185 277 339 410 444>
DStem2: 176 -32 383 308 0.447214 0.894427<-152.969 14.7689>
AnchorPoint: "Bottom" 291 -15 basechar 0
AnchorPoint: "Top" 232 465 basechar 0
LayerCount: 2
Fore
SplineSet
79 -346 m 1
 77 -346 69 -343 52 -343 c 3
 23 -343 16 -345 -4 -346 c 1
 -4 -346 -3 -334 -5 -326 c 1
 63 -312 24 -360 198 -11 c 1
 154 117 81 313 63 354 c 0
 53 376 53 376 47 377 c 0
 36 378 22 379 10 382 c 1
 14 406 l 1
 30 402 56 400 72 400 c 3
 102 400 127 401 155 407 c 1
 159 383 l 1
 140 380 108 376 89 376 c 0
 83 376 83 375 83 373 c 3
 83 368 87 360 90 352 c 0
 122 269 170 144 213 20 c 1
 262 124 316 240 361 344 c 0
 365 352 369 368 369 372 c 3
 369 380 359 372 283 388 c 1
 289 411 l 1
 321 404 365 400 383 400 c 3
 399 400 416 402 429 408 c 1
 434 384 l 1
 394 373 399 373 385 339 c 0
 370 302 300 139 225 -11 c 0
 95 -272 73 -311 79 -346 c 1
EndSplineSet
Substitution2: "case-1" Y
Substitution2: "pcap-1" y.pcap
Substitution2: "smcp-1" y.smcp
EndChar
StartChar: z
Encoding: 122 122 25
Width: 453
Flags: HMW
HStem: 0 31<137 361> 362 32<77 314>
DStem2: 314 360 137 31 0.646621 0.762811<-366.184 0>
AnchorPoint: "Bottom" 226 -15 basechar 0
AnchorPoint: "Top" 232 465 basechar 0
LayerCount: 2
Fore
SplineSet
351 -2 m 6
 166 -2 l 6
 140 -2 49 -2 30 -2 c 5
 19 16 l 5
 139 125 265 250 387 376 c 5
 339 376 293 376 245 376 c 7
 197 376 154 377 107 375 c 4
 69 375 65 375 35 310 c 5
 13 319 l 5
 50 399 l 5
 72 400 100 400 229 400 c 7
 319 400 392 400 415 400 c 5
 425 381 l 5
 315 265 197 148 60 22 c 5
 279 22 l 6
 318 22 370 19 379 28 c 4
 388 37 390 49 399 72 c 4
 403 82 408 92 413 106 c 5
 435 98 l 5
 396 -2 l 5
 396 -2 379 -2 351 -2 c 6
EndSplineSet
Substitution2: "case-1" Z
Substitution2: "pcap-1" z.pcap
Substitution2: "smcp-1" z.smcp
EndChar
StartChar: braceleft
Encoding: 123 123 335
Width: 266
Flags: HW
HStem: -229.7 31<189.018 239.5> 685.3 31<189.018 239.5>
VStem: 91.5 59.5<-156.252 38.4622 448.137 642.851> 114 66<-8.67273 162.063 324.537 495.272>
LayerCount: 2
Fore
SplineSet
239.5 724.299804688 m 1xe0
 239.5 700.299804688 l 1
 168.441288136 699.282083169 125.5 672.190452491 125.5 566.299804688 c 3xe0
 125.5 494.394763799 160 471.543587302 160 390 c 3
 160 334.826926544 121.915194139 275.260835257 48.5 243.299804688 c 1
 121.915194139 211.338836724 160 149.772932393 160 96.599609375 c 3xd0
 160 11.0551460489 125.5 -2.79528582783 125.5 -79.7001953125 c 3
 125.5 -187.591748229 173.4706999 -212.682470762 239.5 -213.700195312 c 1
 239.5 -237.700195312 l 1
 164.163957075 -236.717011475 101.5 -202.511403535 101.5 -79.7001953125 c 3xe0
 101.5 -3.85522701082 136 19.6788217483 136 96.599609375 c 3
 136 143.612256215 96.5750404878 208.114028393 11.5 230.299804688 c 1
 11.5 255.299804688 l 1
 94.5750404878 277.650555535 136 341.628510582 136 390 c 3xd0
 136 470.920069408 101.5 485.454185913 101.5 566.299804688 c 3
 101.5 689.111046793 158.075721781 723.316617877 239.5 724.299804688 c 1xe0
EndSplineSet
Position2: "cpsp-1" dx=0 dy=0 dh=50 dv=100
Position2: "'case' vertical ajustments for all-caps-1" dx=0 dy=90 dh=0 dv=0
EndChar
StartChar: asciitilde
Encoding: 126 126 211
Width: 394
Flags: HW
HStem: 190 64<164.87 319.051> 219 64<79.4558 233.909>
LayerCount: 2
Fore
SplineSet
20 222 m 1x40
 49.3548387097 244.488888889 91.1720430108 266 111 266 c 3x40
 153.022727273 266 241.954545455 231 283 231 c 3
 295.545454545 231 333.181818182 250.608695652 352 272 c 1
 374 258 l 1
 347.823529412 232.865979381 306.611764706 207 285 207 c 3x80
 246.881081081 207 143.259459459 242 113 242 c 3
 96.75 242 60.5 221.692307692 43 209 c 1
 20 222 l 1x40
EndSplineSet
Position2: "cpsp-1" dx=0 dy=0 dh=50 dv=100
Position2: "'case' vertical ajustments for all-caps-1" dx=0 dy=90 dh=0 dv=0
EndChar
StartChar: cent
Encoding: 162 162 1203
Width: 408
VWidth: 1159
UnlinkRmOvrlpSave: 1
Flags: HW
HStem: -9 63<150.253 274.436> 370 51<159.213 276.324>
VStem: 25 62<120.66 283.256>
LayerCount: 2
Back
SplineSet
350.163970861 129.874047626 m 1
 369.836029139 116.125952374 l 1
 338.291110568 70.9885376878 289.145765958 -9 199 -9 c 0
 75.4381845976 -9 25 111.205380004 25 182 c 0
 25 249.000374325 42.6925416671 294.269111227 88.3010364978 342.266077304 c 0
 135.548276837 391.987608351 180.62099781 421 250 421 c 0
 298.708651839 421 332.233108226 390.821023543 360.951029703 374.420424438 c 1
 349.048970297 353.579575562 l 1
 316.100225108 372.396367762 288.53303035 397 250 397 c 0
 188.376693285 397 151.007278718 373.414989052 105.698963502 325.733922696 c 0
 63.4768431946 281.300672189 49 244.379010282 49 182 c 0
 49 118.177681555 94.6708983015 15 199 15 c 0
 273.425451293 15 316.905127677 82.284189585 350.163970861 129.874047626 c 1
EndSplineSet
Fore
SplineSet
25 182 m 3
 25 250.094412951 43.1224872887 293.67194765 89 342 c 0
 137.697530864 393.298701299 181.073948583 421 250 421 c 3
 297.359770331 421 334 390 364 372 c 1
 358.107142857 364.333333333 354.892857143 359.666666667 349 352 c 1
 333.089285714 362.881632653 293.0464865 397 250 397 c 3
 211.615665934 397 175.036186267 389.08968305 130 349 c 0
 72.7073170732 298 49 253.72192776 49 184 c 3
 49 110.023264209 99.9577746688 15 199 15 c 3
 269.068241267 15 318.013358779 80.6428571427 350 130 c 1
 357.5 124.75 362.5 121.25 370 116 c 1
 335.585579937 67.7045454546 286.396515994 -9 199 -9 c 3
 76.6141371125 -9 25 110.179231167 25 182 c 3
EndSplineSet
Refer: 1968 58113 N 0.0181668 0.693762 -0.968418 0.0253589 189.417 -147.881 2
Position2: "'lnum-2' vertical adjustment" dx=0 dy=125 dh=0 dv=0
EndChar
StartChar: sterling
Encoding: 163 163 760
Width: 509
UnlinkRmOvrlpSave: 1
Flags: HW
HStem: -20.0029 67.9971<151.845 398.07> 356 37<20 136.111> 390 20G<373.504 423.449> 702 51<279.505 394.324>
VStem: 139 77<178.369 608.732>
LayerCount: 2
Fore
SplineSet
18 387 m 1xd8
 163.847619047 387.534465127 326.007142857 386.927780402 421 394 c 1xb8
 426 371 l 1
 358.88817181 366.459432143 254.496993429 362.05190905 19 363 c 1
 18 387 l 1xd8
139 324 m 3
 139 400.356589147 138.912050746 445.002365379 141 521 c 0
 142.846792582 588.219961207 177 647 210 679 c 0
 258.652706648 726.178382204 307.358284944 753 368 753 c 3
 413.698024004 753 443 724 478 700 c 1
 471.321428571 693.1 467.678571429 688.9 461 682 c 1
 440 698 399 729 368 729 c 3
 320.904352643 729 276 709 233 667 c 0
 179.452434447 614.697726669 167 559 165 520 c 0
 162.334863827 468.02984463 163 379.638902303 163 324 c 3
 163 148.749995921 138.694831166 101.191637631 69 13 c 1
 179.19327731 30.5 319.634019811 6 369 6 c 3
 380.231546212 6 375 20 466 126 c 1
 474.25 120 476.75 118 485 112 c 1
 445.909090909 61 416.090909091 31 385 -20 c 1
 338.257255504 -20.0027801705 137.473988439 12 34 -20.0029296875 c 1
 20 -3 l 1
 128.611111112 103.365404067 139 183.812686799 139 324 c 3
EndSplineSet
EndChar
StartChar: currency
Encoding: 164 164 271
Width: 463
Flags: HMW
HStem: 450.961 38.8428<87.4308 206.876> 706.86 38.8428<86.6769 208.358>
LayerCount: 2
Fore
SplineSet
231 61 m 3
 299.718857468 61 364 118.018395746 364 194 c 3
 364 271.370882691 303.453828915 326.719144585 231 326 c 3
 154.132477448 326 99 261.486987404 99 193 c 3
 99 119.089591647 161.504217234 62.2664687399 231 61 c 3
129.529296875 74.0029296875 m 1
 60.0634765625 3.9365234375 l 1
 42.4365234375 21.5634765625 l 1
 112.41796875 90.9443359375 l 1
 89.9677734375 116.615234375 74.9765625 160.039676236 74.9765625 193.963867188 c 3
 74.9765625 227.548521702 89.7646484375 270.806640625 112.107421875 296.366210938 c 1
 42.4365234375 365.436523438 l 1
 60.0634765625 383.063476562 l 1
 129.294921875 313.232421875 l 1
 154.604492188 334.654296875 197.46287053 349.577148438 230.802734375 349.577148438 c 3
 264.85446267 349.577148438 308.0859375 335.087890625 334.474609375 313.000976562 c 1
 403.936523438 383.063476562 l 1
 421.563476562 365.436523438 l 1
 351.435546875 295.909179688 l 1
 372.55859375 270.844726562 387.168945312 228.096657011 387.168945312 194.344726562 c 3
 387.168945312 160.330136531 372.430664062 117.323242188 350.522460938 92.0048828125 c 1
 421.563476562 21.5634765625 l 1
 403.936523438 3.9365234375 l 1
 333.659179688 74.814453125 l 1
 307.6640625 51.677734375 264.072839249 37.150390625 230.940429688 37.150390625 c 3
 198.015665574 37.150390625 155.053710938 51.45703125 129.529296875 74.0029296875 c 1
EndSplineSet
Position2: "'lnum-2' vertical adjustment" dx=0 dy=125 dh=0 dv=0
EndChar
StartChar: yen
Encoding: 165 165 450
Width: 463
VWidth: 1159
UnlinkRmOvrlpSave: 1
Flags: HW
HStem: -195.143 27.832<290.394 317.58> -20 36<93 383> 80 36<93 383>
VStem: 207.261 75.8369<-163.561 112.389>
LayerCount: 2
Back
SplineSet
393.820989691 429.493620872 m 1
 404.314610564 423.672631181 l 1
 398.493620872 413.179010309 l 1
 251.493620872 148.179010309 l 1
 245.672631181 137.685389436 l 1
 235.179010309 143.506379128 l 1
 224.685389436 149.327368819 l 1
 230.506379128 159.820989691 l 1
 377.506379128 424.820989691 l 1
 383.327368819 435.314610564 l 1
 393.820989691 429.493620872 l 1
82.0168771321 430.402030607 m 1
 92.418907739 436.385153475 l 1
 98.4020306069 425.983122868 l 1
 251.402030607 159.983122868 l 1
 253 157.204953858 l 1
 253 154 l 1
 253 -200 l 1
 253 -212 l 1
 241 -212 l 1
 229 -212 l 1
 229 -200 l 1
 229 150.795046142 l 1
 77.5979693931 414.016877132 l 1
 71.6148465252 424.418907739 l 1
 82.0168771321 430.402030607 l 1
EndSplineSet
Fore
SplineSet
253 152 m 1
 253.2410478 97.1216036577 253.09765625 68.0013524542 253.09765625 -148.499023438 c 3
 253.09765625 -172.02562006 253 -162 290.783203125 -171.310546875 c 1
 287.580078125 -195.142578125 l 1
 262.572660993 -187.268977394 231.142932696 -183.079238691 200.485351562 -197.678710938 c 1
 193.08984375 -175.665039062 l 1
 228 -163.083093456 229.260742188 -171.001492238 229.260742188 -148.220703125 c 3
 229.260742188 -133.774395474 229 143.190964763 229 151 c 1
 225.643775189 157.084226566 172 251 110 357 c 0
 100.212988455 373.732632642 89.2294921875 395.720703125 84 403 c 1
 105 415 l 1
 120.373576261 389.563410634 149.115640956 338.653818099 162 316 c 0
 214.325 224 238.285107473 183.117473992 241 178 c 1
 299.745198792 282.92575773 331.700115734 341.119757738 371 414 c 1
 374.5 411.447478137 386.75 404.813724161 392 402 c 1
 339.332478411 307.283653678 301 235 253 152 c 1
EndSplineSet
Refer: 1968 58113 N 0.29 0 0 1.125 93 -2 2
Refer: 1968 58113 N 0.29 0 0 1.125 93 98 2
Position2: "'lnum-2' vertical adjustment" dx=0 dy=190 dh=0 dv=0
EndChar
StartChar: section
Encoding: 167 167 729
Width: 428
Flags: HW
HStem: -93.7754 33<84.7519 176.482> 658.225 40<245.024 351.452>
VStem: 75.5938 57<316.327 494.034> 198.593 77.001<33.2246 81.1509> 305.594 54.999<103.702 250.216>
LayerCount: 2
Fore
SplineSet
207 618 m 1
 155 552.25 129 493.240333333 129 411 c 3
 129 132.992805848 278 143 215 -35 c 1
 275.663333333 10.0625919671 315 94.3780843137 315 183 c 3
 315 364.300264218 127 455 207 618 c 1
103 411 m 3
 103 539.875054625 185.869969299 698.224609375 340.592773438 698.224609375 c 3
 371.732414462 698.224609375 392.900465744 684.349609375 408.592773438 661.224609375 c 1
 404.866842691 656.667509094 397.940934211 651.314629657 391 648 c 1
 382.709677419 659.571510638 364.802419355 675 341 675 c 3
 265.961586868 675 209 606.052525 209 538 c 3
 209 458.396820513 339 347.412854701 339 184 c 3
 339 61.8759197101 256.787240149 -93.775390625 118.592773438 -93.775390625 c 3
 74.2947901327 -93.775390625 44.0914965548 -85.2747395835 17 -59 c 1
 16.9154470969 -55.6654284914 26.881339717 -43.2605477479 35 -41 c 1
 55.7838873747 -59.4397539903 75.3614181513 -70 119 -70 c 3
 178.49 -70 209 -15.7191685106 209 35 c 3
 209 129.239420096 103 175.326758138 103 411 c 3
EndSplineSet
Position2: "'case' vertical ajustments for all-caps-1" dx=0 dy=60 dh=0 dv=0
Position2: "cpsp-1" dx=0 dy=0 dh=50 dv=100
EndChar
StartChar: copyright
Encoding: 169 169 874
Width: 770
Flags: HW
HStem: 36.4912 23.7285<301.38 459.445> 157.127 45.76<338.543 468.783> 484.487 52.8<324.463 446.783> 621.4 23.7275<310.347 461.413>
VStem: 74.6133 24.2002<255.442 415.529> 205.663 62.48<275.047 418.487> 670.979 24.207<266.09 422.239>
LayerCount: 2
Fore
SplineSet
384.893554688 621.400390625 m 3
 236.350535306 621.400390625 98.8134765625 500.360780684 98.8134765625 335.307617188 c 3
 98.8134765625 170.250731144 230.850500432 60.2197265625 384.893554688 60.2197265625 c 3
 533.439341342 60.2197265625 670.978515625 181.259229457 670.978515625 346.310546875 c 3
 670.978515625 500.361719636 538.939374812 621.400390625 384.893554688 621.400390625 c 3
384.896484375 645.127929688 m 3
 551.975485085 645.127929688 695.185546875 513.850959549 695.185546875 346.779296875 c 3
 695.185546875 167.767214351 546.008027122 36.4912109375 384.896484375 36.4912109375 c 3
 217.820748612 36.4912109375 74.61328125 155.830664063 74.61328125 334.83984375 c 3
 74.61328125 513.848354551 223.788217532 645.127929688 384.896484375 645.127929688 c 3
EndSplineSet
Refer: 2 99 N 0.88 0 0 0.88 175.743 170.327 2
EndChar
StartChar: registered
Encoding: 174 174 875
Width: 322
Flags: HW
HStem: 436.027 19.6641<114.861 203.378> 487.43 10.6172<226.396 236.186> 491.865 12.6348<96.6738 110.057 140.924 155.167> 557.123 15.1367<136.812 158.537> 625 13.7969<94.248 109.49 131.014 172.693> 666.746 19.6641<118.426 204.315>
VStem: 33.3066 19.9531<514.336 603.032> 111.938 24.875<573.061 622.834> 184.873 26.8711<575.709 619.086> 268.543 19.957<519.406 606.227>
LayerCount: 2
Fore
SplineSet
134.811523438 573.060546875 m 1x9fc0
 143.285540482 572.85266454 147.547404353 572.26 155.922 572.26 c 3
 177.569919297 572.26 188.873046875 583.381314435 188.873046875 598.451171875 c 3
 188.873046875 615.964631381 175.080244381 625 150.135 625 c 3
 143.639019553 625 134.271328659 623.987223334 134.609375 613.19921875 c 0
 134.907704247 602.24503539 134.866194634 585.513755327 134.811523438 573.060546875 c 1x9fc0
94.248 634.855 m 1
 103.803 634.649 110.574 634.441 121.293 634.441 c 3
 136.729 634.441 143.624 638.797 161.182 638.797 c 3
 186.365633157 638.797 207.744140625 622.056930862 207.744140625 600.96484375 c 3
 207.744140625 581.426766681 194.474733826 564.99485156 179.00390625 561.09375 c 1
 193.815545834 528.455561748 215.774096294 502.01110858 237.242 498.047 c 1
 234.143 487.43 l 1xdfc0
 202.975296978 489.500001392 179.688965186 518.991021228 160.673828125 557.123046875 c 1
 159.471191863 557.090159289 158.344293559 557.07534512 157.276367068 557.07534512 c 0
 148.860870781 557.07534512 144.107398859 557.995273572 134.811523438 558.240234375 c 1
 134.835711409 541.253070504 134.827893477 528.572414122 134.896484375 514.5078125 c 0
 134.938004337 506.754781538 141.74815653 505.877972774 156.072 504.412 c 1
 154.24 491.215 l 1
 144.229540319 493.18549523 133.77006719 494.216671651 123.324871914 494.216671651 c 0
 114.332044462 494.216671651 105.349800339 493.452321479 96.6738 491.865 c 1
 94.9902 504.5 l 1xbfc0
 109.092950965 505.109006984 114.921326591 506.588023946 115.185546875 514.037109375 c 1
 115.170899355 538.799240566 115.163085938 554.258347311 115.163085938 570.018554688 c 3
 115.163085938 581.975554364 115.090516374 594.105865976 114.938476562 610.603515625 c 1
 116.12261038 620.522898028 109.486904417 622.810986237 94.248 623.168 c 1
 94.248 634.855 l 1
160.900390625 668.856445312 m 0
 103.904848924 668.856445312 51.107421875 622.381167429 51.107421875 559.059570312 c 0
 51.107421875 495.784727033 101.614949659 453.580078125 160.900390625 453.580078125 c 0
 217.899030579 453.580078125 270.696289062 500.056357622 270.696289062 563.377929688 c 0
 270.696289062 622.34634614 220.097131349 668.856445312 160.900390625 668.856445312 c 0
160.902 686.41 m 0
 229.535 686.41 288.5 632.481 288.5 563.625 c 0
 288.5 489.99 227.167 436.027 160.902 436.027 c 0
 92.36 436.027 33.3066 485.127 33.3066 558.812 c 0
 33.3066 632.447 94.6389 686.41 160.902 686.41 c 0
EndSplineSet
EndChar
StartChar: degree
Encoding: 176 176 1212
Width: 307
Flags: W
HStem: 450.961 24.3115<97.4197 198.198> 721.392 24.3115<95.2939 201.379>
VStem: 0.241211 24.2939<548.025 650.829> 270.468 24.2949<547.478 651.605>
LayerCount: 2
Fore
SplineSet
147.395507812 475.272460938 m 4
 212.735666661 475.272460938 270.467773438 529.11080233 270.467773438 599.119140625 c 4
 270.467773438 668.254734802 216.103915125 721.391601562 147.28515625 721.391601562 c 4
 79.2936695384 721.391601562 24.53515625 666.868178364 24.53515625 598.814453125 c 4
 24.53515625 530.634360253 80.8816837443 475.272460938 147.395507812 475.272460938 c 4
147.376953125 450.9609375 m 0
 67.7209799365 450.9609375 0.2412109375 517.25500347 0.2412109375 598.8984375 c 0
 0.2412109375 680.403073513 65.820211378 745.703125 147.247070312 745.703125 c 0
 229.660015085 745.703125 294.762695312 682.06127958 294.762695312 599.2578125 c 0
 294.762695312 515.4282111 225.625352612 450.9609375 147.376953125 450.9609375 c 0
EndSplineSet
EndChar
StartChar: paragraph
Encoding: 182 182 654
Width: 591
UnlinkRmOvrlpSave: 1
Flags: HW
LayerCount: 2
Fore
SplineSet
278 681 m 1
 302 681 l 1
 294 46 l 1
 270 46 l 1
 278 681 l 1
553 745 m 1
 555 721 l 1
 504.697674418 715.625 338.483334532 701.484725739 246 635 c 0
 189.882528042 594.658085955 160 558.989673206 160 373 c 3
 160 171.4 176.377681441 129.06932713 245 85 c 0
 278.154205607 63.7083333333 332.406542056 40.3888888889 460 12 c 1
 456 -12 l 1
 256.91811559 30.6812636847 219.585983758 65.1983214358 164 125 c 0
 101.495145631 192.245283019 69.167953881 275.438954779 53 341 c 0
 49.8310679548 353.850017921 47.2734375 364.521380974 47.2734375 375.455078125 c 3
 47.2734375 383.51802117 48.3472105587 391.819049863 52 401 c 0
 83.1538461538 479.302325582 137.33983685 587.921485559 241 660 c 0
 344.324675325 731.845238095 553 745 553 745 c 1
EndSplineSet
Position2: "cpsp-1" dx=0 dy=0 dh=50 dv=100
EndChar
StartChar: AE
Encoding: 198 198 319
Width: 1067
VWidth: 1159
Flags: HW
HStem: -9 35<449 500.854> -5 39<22.5469 80.8864> 3.06988 37.3024<636.857 887.73> 247 42<296.875 529.631> 334 36<608 868.393> 661 31<394.871 460.439>
VStem: 525 93<373.564 639.016> 529.631 78.3691<90.5 243.369 285.991 334 370 605.156> 892 36<248.75 306.348 394.846 442.094> 933 30<539 620.59> 993 28<152.034 171.75>
AnchorPoint: "Top" 580.585 699 basechar 0
AnchorPoint: "Bottom" 569.957 -15 basechar 0
LayerCount: 2
Back
SplineSet
454.320308335 680.124405451 m 1
 450.175785415 656.484969549 l 1
 447.454233263 656.962118637 442.233221715 657.844083607 440.893925095 658.066673578 c 1
 444.828731155 681.741920172 l 1
 446.274590785 681.501619518 451.438344862 680.629678238 454.320308335 680.124405451 c 1
51.1492883949 6.69221520177 m 2
 50.1509610211 6.63440123538 50.6061954848 6.6607601236 49.6078635628 6.60302474858 c 1
 48.2016331857 30.5617828774 l 1
 49.0347034786 30.6113970691 49.890664875 30.6600803467 50.7676643573 30.7077775903 c 0
 51.7661886653 30.7620841869 51.1492883949 6.69221520177 51.1492883949 6.69221520177 c 2
223.016057722 22.8818879753 m 1
 218.935114153 -0.768606725291 l 1
 185.67583288 4.97035356952 140.421993531 7.90794439215 96.4050250303 7.90527345959 c 0
 80.5937018315 7.90431403464 62.0111191946 7.34169317549 49.6284449393 6.60423274762 c 1
 49.5689944496 7.60246400303 48.2799499372 29.5646589544 48.2222145622 30.5629908764 c 1
 70.5288090762 31.8530223493 83.5189967107 32.8180099412 91.0852764657 34.9212429545 c 0
 102.155089012 37.998368828 106.330921693 44.0287220057 126.132962038 69.9973082308 c 1
 166.986731461 139.423149956 206.857249742 207.28121053 247.271774281 276.14415696 c 1
 267.970413219 263.99646804 l 1
 227.481179419 195.006223321 187.144883273 126.356069875 146.450596178 57.2021229154 c 0
 146.083636307 56.578528665 l 1
 145.644406824 56.0035444932 l 0
 137.93477825 45.9110653309 132.047188833 37.9304021346 126.527153016 31.4658711696 c 1
 161.513416581 30.4314388456 195.548018077 27.6215571102 223.016057722 22.8818879753 c 1
470.940119907 662.665948434 m 5
 491.763005093 650.732489066 l 1
 464.818317938 603.716271079 337.26941125 381.310763365 288.639471146 299.429473528 c 1
 278.365374012 281.816527623 l 1
 308.041257915 281.452179535 l 0
 365.258728655 280.800708782 506.819306946 279.288320254 566.043945312 279.3828125 c 1
 566.086914062 255.3828125 l 1
 506.456096071 255.287657795 365.026188852 256.801718457 307.739992085 257.454070465 c 0
 236.876813488 258.324097377 l 1
 267.932473679 311.563000602 l 0
 316.503099467 393.344419191 443.988427855 615.637507491 470.940119907 662.665948434 c 5
461 691 m 5
 461 691 584 691 662 691 c 7
 782 691 969 691 969 691 c 5
 978.13979755 682.882934318 981.471679688 676.849692363 981.471679688 667.673828125 c 7
 981.471679688 650.746874587 970.133243178 623.125520795 963 552 c 5
 939 552 l 5
 940.5 648.299804688 988.499986604 669.000559201 905 667 c 4
 853.278561787 665.760816578 776.201296954 666.672851562 701 666.672851562 c 7
 671.753532163 666.672851562 642.871627902 667 617 667 c 4
 555.314453125 667 567 672.331054688 567 645 c 4
 567 541.905273438 567 454.385742188 567 360 c 5
 651.214620536 360 839.577084717 360.076171875 858 360 c 4
 892.62109375 359.8671875 884.5 347.299804688 906 421 c 5
 930 421 l 5
 921.800653592 395.951009401 918.486328125 371.090335466 918.486328125 346.236328125 c 7
 918.486328125 319.558089902 922.305080506 292.887532833 928 266 c 5
 904 266 l 5
 885.5 345.299804688 893.124029723 336 858 336 c 4
 800.103125 336 689.372284226 336 567 336 c 5
 567 215.811523438 567 118.77734375 567 37 c 4
 567 14.1953125 555.220978095 17.3873202455 620 17 c 4
 677.380097707 16.6031019812 726.545563805 16.6845703125 773 16.6845703125 c 7
 829.996313822 16.6845703125 883.464574643 17 941 17 c 4
 964.1484375 17 970.333007812 51.1171875 997 155 c 5
 1020 149 l 5
 1012.23144531 107.317382812 994.077148438 47.2470703125 983 -6 c 5
 983 -6 785 -6 659 -6 c 7
 586 -6 471 -6 471 -6 c 5
 471 18 l 1
 542.25 17.2998046875 543 16.1767578125 543 45 c 1
 543 45 543 229 543 346 c 3
 543 461 543 642 543 642 c 0
 543 665.47265625 559.518184267 665.463867188 461 667 c 1
 461 691 l 5
EndSplineSet
Fore
SplineSet
396 692 m 1
 396 692 558.768493956 691 662 691 c 3
 782 691 969 691 969 691 c 1
 978.13979755 682.882934318 981.471679688 676.849692363 981.471679688 667.673828125 c 3
 981.471679688 650.746874587 970.133243178 623.125520795 963 552 c 1
 939 552 l 1
 940.5 648.299804688 988.499986604 669.000559201 905 667 c 0
 853.278561787 665.760816578 776.201296954 666.672851562 701 666.672851562 c 3
 671.753532163 666.672851562 642.871627902 667 617 667 c 0
 555.314453125 667 567 672.331054688 567 645 c 0
 567 541.905273438 567 454.385742188 567 360 c 1
 651.214620536 360 839.577062804 360.070673572 858 360 c 0
 892.62109375 359.8671875 884.5 347.299804688 906 421 c 1
 930 421 l 1
 921.800653592 395.951009401 918.486328125 371.090335466 918.486328125 346.236328125 c 3
 918.486328125 319.558089902 922.305080506 292.887532833 928 266 c 1
 904 266 l 1
 885.5 345.299804688 893.124029723 336 858 336 c 0
 800.103125 336 689.372284226 336 567 336 c 1
 567 215.811523438 567 118.77734375 567 37 c 0
 567 14.1953125 555.221369836 17.4480736527 620 17 c 0
 677.380097707 16.6031019812 726.545563805 16.6845703125 773 16.6845703125 c 3
 829.996313822 16.6845703125 883.464574643 17 941 17 c 0
 964.1484375 17 970.333007812 51.1171875 997 155 c 1
 1020 149 l 1
 1012.23144531 107.317382812 994.077148438 47.2470703125 983 -6 c 1
 983 -6 785 -6 659 -6 c 3
 578.068074472 -6 451 -6 451 -6 c 1
 451 18 l 1x9de0
 543.697674419 18.1176470588 543 18.4705882353 543 39 c 1
 542.806239755 74.607192761 542.679404664 157.792430944 542.630859375 256.087890625 c 1
 475.663120843 255.960455165 355.265671874 255.903457084 266.916992188 256 c 1
 219.369138851 173.71 187.196710472 119.300284026 145 45 c 0
 124.778558462 12.3611063472 140 34 243 12 c 1
 239.598632812 -12 l 1
 207.950904583 -4.7823371657 156.803112021 -0.7041015625 108.669921875 -0.7041015625 c 3
 76.3230257565 -0.7041015625 45.3375906002 -4.38283409926 22.546875 -6 c 1
 22.546875 -6 18.2832541154 10.6666666667 19.9365234375 20 c 1
 92.7156640733 27.1086956522 105.899943516 27.9327289775 116 45 c 0
 248.935710449 269.637337656 370.742478839 482.755094658 473 667 c 1
 450.050670683 667 422.943797768 667 394 667 c 1
 396 692 l 1
500 667 m 1
 471.055965275 615.323264401 334.102264687 370.979033268 281.875 281 c 1
 338.07485131 280.985982482 482.487981933 280.990799087 542.76953125 280.991210938 c 1
 542.759723041 422.677504088 542.760136458 584.062099793 543 638 c 0
 543.118420156 664.629034501 542 665 500 667 c 1
EndSplineSet
Position2: "cpsp-1" dx=0 dy=0 dh=50 dv=100
Substitution2: "c2pc-1" ae.pcap
Substitution2: "c2sc-1" ae.smcp
EndChar
StartChar: Thorn
Encoding: 222 222 317
Width: 594
Flags: HW
HStem: -9 35<33 79.7574> 178 45<189.142 391.092> 519 42<188.8 373.894> 661 31<15.871 81.5947>
VStem: 103 86.1416<54.7783 182.945 226.958 514.181 554.895 640.551> 465 87<299.251 431.707>
LayerCount: 2
Back
SplineSet
128 671 m 1
 140 671 l 1
 140 659 l 1
 140 31 l 1
 140 19 l 1
 128 19 l 1
 116 19 l 1
 116 31 l 1
 116 659 l 1
 116 671 l 1
 128 671 l 1
15.0997784857 680.076898546 m 1
 16.2807541234 692.018644505 l 1
 28.2225000821 690.837668867 l 2
 73.6752743286 686.342629429 80.7824553932 684.064453125 129.426757812 684.064453125 c 0
 168.450274959 684.064453125 203.86698949 685.705502035 240.639022987 688.897428042 c 2
 252.594068216 689.935162868 l 1
 253.631803042 677.980117638 l 1
 254.669537868 666.025072409 l 1
 242.714492638 664.987337583 l 2
 205.32441676 661.74176359 169.123943791 660.064453125 129.426757812 660.064453125 c 0
 79.9362946068 660.064453125 70.1635176067 662.5728472 25.8605488068 666.95417695 c 1
 26.8605488068 666.95417695 24.8654033102 667.052591586 25.8605488068 666.95417695 c 1
 13.918802848 668.135152588 l 1
 15.0997784857 680.076898546 l 1
162.890652008 541.121768073 m 1
 162.033607459 553.091123721 l 1
 174.002963108 553.94816827 l 1
 187.219726562 554.89453125 l 2
 223.962581063 557.525438384 259.91790862 561 309 561 c 0
 442.023998634 561 552 478.013168817 552 375 c 0
 552 258.231188111 417.229705159 178 292 178 c 0
 251.6989373 178 228.832648128 181.860777589 189.141601562 182.9453125 c 2
 176.421591129 183.292879434 l 1
 164.426068367 183.620650162 l 1
 164.753839094 195.616172925 l 1
 165.081609822 207.611695687 l 1
 177.077132585 207.28392496 l 1
 189.797143017 206.936358025 l 2
 231.091002453 205.808027179 253.569219035 202 292 202 c 0
 410.829836729 202 528 278.712863921 528 375 c 0
 528 459.228645566 434.271189137 537 309 537 c 0
 261.069073275 537 226.110253101 533.617773027 188.93381566 530.955819953 c 2
 175.717052206 530.009456973 l 1
 163.747696557 529.152412424 l 1
 162.890652008 541.121768073 l 1
257.934483604 1.57150410133 m 1
 255.329229892 -10.1422763772 l 1
 243.615449414 -7.53702266608 l 1
 244.591597787 -7.75412714201 244.61496149 -7.56825741846 243.615449414 -7.53702266608 c 1
 201.546796316 1.81943700181 173.644002231 6.1748046875 137.515625 6.1748046875 c 0
 101.421349047 6.1748046875 101.386343708 1.64917503675 45.504289939 -7.29541940658 c 1
 46.504289939 -7.29541940658 46.4917210151 -7.1373691933 45.504289939 -7.29541940658 c 1
 33.6551170256 -9.19202196592 l 1
 31.7585144663 2.65715094749 l 1
 29.8619119069 14.5063238609 l 1
 41.7110848203 16.4029264202 l 2
 94.6562309416 24.8774334911 98.0278697032 30.1748046875 137.515625 30.1748046875 c 0
 175.732950894 30.1748046875 206.212969309 25.3680629982 248.825956836 15.8905382911 c 1
 249.825468912 15.9217730435 249.802105209 15.6734338152 248.825956836 15.8905382911 c 1
 260.539737315 13.2852845799 l 1
 257.934483604 1.57150410133 l 1
EndSplineSet
Fore
SplineSet
253 665.244140625 m 1
 222.541015625 662.76953125 171.094367175 660.348460787 144 660 c 0
 142.852067413 659.985236433 139.741646898 657.025905072 140 648 c 0
 140.47963209 631.243422752 140.66015625 566.91015625 140.219726562 550.89453125 c 1
 176.961914062 553.525390625 259.918945312 561 309 561 c 3
 442 561 552 478 552 375 c 3
 552 258.262695312 417.193359375 178 292 178 c 3
 251.719726562 178 179.8125 183.861328125 140.141601562 184.9453125 c 1
 140.319335938 147.3203125 140.288923215 75.4159039351 140 44 c 0
 139.764648438 18.4091796875 143 42 259 13.1611328125 c 1
 255 -10.6103515625 l 1
 206.83984375 0.765625 180.431640625 6.1748046875 140.515625 6.1748046875 c 3
 101.248046875 6.1748046875 95.5852303172 0.939824883774 35 -9 c 1
 29 14 l 1
 114 32 116 25 116 42 c 1
 116.599609375 73.2021484375 115.400390625 187.70703125 115.400390625 277.327148438 c 3
 115.400390625 411.755859375 117.267133908 600.954587122 116 652 c 0
 115.682722441 664.781256896 116 655.77408436 14 668 c 1
 17 692 l 1
 64.3137479468 686.877828443 79.634765625 684.064453125 132.426757812 684.064453125 c 3
 175.805664062 684.064453125 209.501953125 685.963867188 251 690.04296875 c 1
 253 665.244140625 l 1
140.073242188 208.958007812 m 1
 180.089280655 207.212916647 280.598245749 202 292 202 c 3
 410.797244985 202 528 279.85095841 528 375 c 3
 528 461.201450384 431.887340357 537 309 537 c 3
 284.465112156 537 173.94044487 531.037009238 140.26171875 526.466796875 c 1
 138.9765625 422.852886485 140.340820312 305.916890761 140.073242188 208.958007812 c 1
EndSplineSet
Position2: "cpsp-1" dx=0 dy=0 dh=50 dv=100
Substitution2: "c2pc-1" thorn.pcap
Substitution2: "c2sc-1" thorn.smcp
EndChar
StartChar: germandbls
Encoding: 223 223 410
Width: 579
Flags: HW
HStem: -9 40<37 88.8477 173.148 208.525 365.019 460.981> 356 30<40 95.2842> 705 51<244.321 344.378>
VStem: 100 65<36.3341 356 396.595 588.58> 276 67<305.481 354.885> 301 22<88.2815 107.227> 396.559 58.286<487.211 649.856> 477 62<53.3627 166.162>
LayerCount: 2
Fore
SplineSet
312 756 m 3xfb
 411.877 756 454.845 679.623 454.845 588.779 c 3
 454.845 438.988503784 334 375.077066675 334 333 c 3xfb
 334 305.608695652 354.867620568 281.907401948 408 263 c 0
 488.428073947 234.379299435 539 184.803885135 539 128 c 3
 539 33.1543 458.812 -9 408 -9 c 3
 365.699560976 -9 332.401317073 2 300 16 c 1
 304 30 306 44 306 59 c 0
 306 68.3555 304.571 95.6445 301 105 c 1
 323 112 l 1xf7
 341.765844155 49.956891358 309.674011574 15 408 15 c 3
 455.5 15 515 54.036528 515 128 c 3
 515 185.433216981 451.136344627 221.51073999 403 239 c 0
 362.222015184 253.815765191 310 280.961552675 310 333 c 3
 310 392.736906699 431 442.117753923 431 589 c 3
 431 686.35934042 382.067805903 732 313 732 c 3
 262.518910568 732 124 650.021427478 124 440 c 3
 124 405.893921951 124 292.161341463 124 249 c 0
 124 179.008123077 124 113.473622994 124 45 c 0
 124 29.9818069995 129.134376369 24.2474911069 141 24 c 0
 164.971818182 23.5 187.028181818 21.5 211 17 c 1
 208 -6 l 1
 182.625 -1 146.375 1 121 1 c 0
 97.2266 1 60.7734 -2 37 -6 c 1
 36 18 l 1
 51.8888888889 20 72.8711883716 23.6549511467 88 24 c 0
 99.4289270488 24.260664107 101 32.9416502983 101 39 c 0
 101 110.382978723 100.890565855 157.69286296 100 222 c 0
 99.4053128851 264.941940299 99.1642370319 321.478768657 99.06640625 377 c 1
 40 360 l 1
 40 386 l 1
 59.9402 389.935 79.0951 397.74 99.0097 401.801 c 1
 99 418.369 99 425.297851562 99 440 c 0
 99 570.533203125 150.062 657.199 205 704 c 0
 236.242803105 730.615356003 272.237 756 312 756 c 3xfb
EndSplineSet
Substitution2: "pcap-1" uni1E9E.pcap
Substitution2: "case-1" uni1E9E
Substitution2: "smcp-1" uni1E9E.smcp
MultipleSubs2: "case-2" S S
EndChar
StartChar: ae
Encoding: 230 230 321
Width: 578
VWidth: 1159
Flags: HW
HStem: -9 43<55.5195 159.444> -8 50<352.222 471.185> 370 52<125.933 201.869 343.725 424.068>
VStem: 20.5195 62<43.6209 136.135> 33.5195 77<309.417 362.65> 232.563 66.1328<101.524 187.689>
AnchorPoint: "Top" 283.52 465 basechar 0
AnchorPoint: "Bottom" 280.52 -15 basechar 0
LayerCount: 2
Fore
SplineSet
387 394 m 3x24
 353.577941724 394 286 348 276.51953125 229 c 1
 355.179436615 252.730013283 416.633665816 270.950383408 490 291.75687695 c 0
 494.942960116 293.158687043 499.939991816 294.572236101 505 296 c 1
 491.852987198 345.563218391 438.224727359 394 387 394 c 3x24
273.696289062 202 m 1
 266.034105817 95.1922289157 315.356676088 13 389 13 c 3
 439.376109731 13 489.155227062 42.3333333333 525.740234375 73 c 1
 541.48046875 54 l 1
 504.210929505 22.4558823529 450.968730583 -11 389.739257812 -11 c 3x6c
 340.399644097 -11 307.06034215 12.2046396068 285 44 c 1
 203.633712671 1.82585321449 156.364030273 -15 96.51953125 -15 c 3
 50.51953125 -15 35.51953125 21 35.51953125 65 c 3xb4
 35.51953125 81.6610169492 42.4442487669 101.533054493 54 118 c 0
 63.8245614035 132 83.6440561957 146.114646706 110 160 c 0
 142 176.858865261 194.866607268 198.986507566 249.149414062 218.887695312 c 1
 254.399133154 259.923097642 264.420862141 297.212138974 278 331 c 1
 275.320485643 349.301981473 275.181015645 352.640600601 240.016601562 381.954101562 c 0
 231.723814173 388.867074165 207.246390427 410 197 410 c 3
 187.151142198 410 77 377.142857143 77 332 c 3
 77 325.333333333 82.1428571429 315.703703704 83 312 c 1
 59 305 l 1
 56.3333333333 312.25 53 326.75 53 334 c 3xac
 53 351.414634146 64.037037037 370.073170732 84 385 c 1
 122.642091721 413.375 186.071801215 434 198.51953125 434 c 3
 218.091969615 434 278.933033703 383.375239689 296.180664062 360.27734375 c 1
 323.780320921 401.384394123 367.370737856 418 387.19921875 418 c 3
 442.972105471 418 496.345712664 368.498253826 520.859375 323 c 0
 526.84818845 311.884543211 527.014959593 304.066666667 549 309 c 1
 551 285 l 1
 462.833609875 260.1 364.179943509 230.457142857 273.696289062 202 c 1
247.563476562 192.689453125 m 1
 204.908524933 176.739647654 159.703241011 157.670080657 138.51953125 148 c 0
 90.0537502522 125.8760181 60 105.786261538 60 61 c 3
 60 18.2243034483 74.4002559976 9 100 9 c 3xb4
 135.489115411 9 186.931818182 17.8666666667 270 66 c 1
 253.978806226 102.745666132 246.722660104 145.458913387 247.563476562 192.689453125 c 1
EndSplineSet
Substitution2: "pcap-1" ae.pcap
Substitution2: "case-1" AE
Substitution2: "smcp-1" ae.smcp
EndChar
StartChar: eth
Encoding: 240 240 453
Width: 471
VWidth: 1159
UnlinkRmOvrlpSave: 1
Flags: HW
HStem: -5 49<172.89 302.553> 359 46<174.141 312.607> 700 27.4531<77.2373 85.8109>
VStem: 28 64<133.432 266.724> 366 69<130.061 336.627>
LayerCount: 2
Back
SplineSet
387.045407017 369.11947125 m 1
 335.672791347 518.684847411 209.154798691 659.429600154 80.5137343377 701.363289963 c 1
 87.9519065657 724.181563208 l 1
 230.76687175 677.627545016 364.835235169 523.109161025 414.668645935 361.795249563 c 0
 427.708650478 319.583927762 435 276.745454265 435 235 c 0
 435 113.997806958 360.244975608 -5 193 -5 c 0
 102.935539843 -5 28 65.9432202248 28 171 c 0
 28 323.858485913 171.849737426 402 237 402 c 0
 279.190653394 402 332.077541425 389.097068328 387.045407017 369.11947125 c 1
396.010110859 340.068244346 m 1
 338.219224401 362.758670971 278.267130516 378 237 378 c 0
 183.987056114 378 52 307.589539814 52 171 c 0
 52 78.1817928183 116.445396245 19 193 19 c 0
 345.638823404 19 411 123.977332173 411 235 c 0
 411 269.147384094 405.710101665 304.65856574 396.010110859 340.068244346 c 1
EndSplineSet
Fore
SplineSet
408 334 m 1
 367.272727273 352.44 282.364370757 378 240 378 c 3
 202.292307692 378 52 325.428652196 52 171 c 3
 52 90.2269220042 103.607910156 18 192 18 c 3
 346.402729236 18 411 134.106235166 411 236 c 3
 411 430.064422293 240 660 67 705 c 1
 70.4271401456 710.383254927 77.2373046875 727.453125 77.2373046875 727.453125 c 1
 260.283740169 675.166289781 435 439.719447105 435 235 c 3
 435 113.962890625 360.284179688 -5 193 -5 c 3
 102.911132812 -5 28 65.923828125 28 171 c 3
 28 324.397473458 168.576271186 402 241 402 c 3
 279.394320727 402 356.725115314 383.981758018 396 364 c 1
 408 334 l 1
EndSplineSet
Refer: 1970 58113 N 0.284488 0.177084 -0.547233 0.872389 123.756 489.958 2
Substitution2: "pcap-1" eth.pcap
Substitution2: "case-1" Eth
Substitution2: "smcp-1" eth.smcp
EndChar
StartChar: thorn
Encoding: 254 254 782
Width: 515
Flags: HW
HStem: -348 32<15.3438 62.6963> -342 34<158.753 236> -10 46<191.803 336.513> 369 43<205.188 330.819> 654 29<23 52.5305>
VStem: 74 82<-302.037 -18.4171> 87 65<-197.411 7 69.4004 345.78 368 599.495> 413 69<130.435 275.055>
LayerCount: 2
Fore
SplineSet
95 346 m 1
 95 346 93.0771484375 179 93.0771484375 72 c 31
 93.0771484375 59.5126953125 93.07421875 60.857421875 99 56.4814453125 c 0
 135.208007812 29.73828125 176.50390625 9 230 9 c 3
 335 9 443 89.73046875 443 216 c 3
 443 293 381.624023438 392 288 392 c 3
 213.76953125 392 153.39453125 365 95 346 c 1
69 39 m 3xbe
 69 257.9453125 71 473.76953125 71 510 c 3
 71 541 78 640 78 667 c 0
 78 686 78 683 77 683 c 3
 71 683 46 669 26 658 c 1
 14 680 l 1
 65 705 84 712 98 759 c 1
 120 749 l 1
 106 717 103.090820312 688.99609375 102 667 c 0
 94.4013671875 513.82421875 94.01953125 518.096679688 94 372 c 1
 148.717773438 392 224.328125 416 288 416 c 3
 388.364257812 416 467 311 467 216 c 3
 467 74.71875 347 -15 230 -15 c 3
 180.84765625 -15 133.786132812 1.6484375 93 29 c 1
 93 -62 93 -254 93 -295 c 0
 93 -312 95.982421875 -314 125 -314 c 0
 136 -314 148 -316 157 -316 c 1
 155 -340 l 1x7e
 135 -339 111 -337 84 -337 c 3
 66 -337 38 -342 20 -346 c 1
 16 -323 l 1
 25 -321 31.013671875 -320.06640625 41 -318 c 0
 70 -312 69 -312 69 -285 c 0
 69 -228 69 -128 69 39 c 3xbe
EndSplineSet
Substitution2: "pcap-1" thorn.pcap
Substitution2: "case-1" Thorn
Substitution2: "smcp-1" thorn.smcp
EndChar
StartChar: Aogonek
Encoding: 260 260 2536
Width: 730
Flags: HW
HStem: -346.802 72.7783<509.644 579.002> 245 42<247 437.657> 692 20G<358 405.73>
VStem: 360 43<632.023 712> 417.273 71.958<-253.556 -112.611>
LayerCount: 2
Fore
SplineSet
224.0625 313.920898438 m 1
 299.282233999 313.440218373 435.714634726 312.59317135 505.326171875 312.118164062 c 1
 455.676041624 446.26718325 423.239142269 533.003031157 373.83203125 669.845703125 c 1
 321.828818642 536.00248247 276.379377977 438.292366088 224.0625 313.920898438 c 1
573.669921875 4 m 0
 600.234875469 16.6425593108 615.366273822 15.3301372853 615.366273822 29.714523603 c 0
 615.366273822 34.3932213865 613.765439546 40.7325712947 610.436523438 49.7529296875 c 0
 578.784799397 135.519553225 552.987372861 194.038242113 514.919921875 288.098632812 c 1
 438.807644306 289.0458511 319.95832744 289.527677228 214 290 c 1
 173.409730411 196.635079338 149.158620388 137.268022074 109.9453125 53.4814453125 c 0
 90.9995218548 13.0002151457 99.6196581952 21.5567987619 182.5 13.44140625 c 1
 182.5 -10.8662109375 l 1
 160.880261955 -7.58609653829 131.122424271 -5.83359331719 101.24974245 -5.83359331719 c 0
 69.3844004457 -5.83359331719 37.3883819176 -7.82769622417 15 -12.0888671875 c 1
 15 12.26171875 l 1
 65.4835716934 18.9119738375 65.3375205755 12.3988655368 82.5322265625 50.4697265625 c 0
 180.731047323 267.892092545 266.37492304 469.787986479 338.458984375 643.301757812 c 0
 354.530907945 681.988535715 354.67164978 681.610709839 363.543945312 711 c 1
 384.34375 711 l 1
 393.212065647 684.008961575 392.953167161 684.937449011 407.630859375 645.073242188 c 0
 498.147817047 399.231684186 555.639338195 248.3980639 639.583007812 35.1982421875 c 0
 647.55748423 14.9446964666 652.144810613 18.5383309526 694 13.294921875 c 1
 694 -10.9169921875 l 1
 672.125467125 -7.42343891184 653.15968417 -4.36101627952 635.327433774 -4.36101627952 c 0
 616.949163453 -4.36101627952 599.774905539 -7.61385168538 581.861328125 -17 c 0
 481.804651436 -69.4265357834 451.765625 -180.23991221 451.765625 -236.513671875 c 3
 451.765625 -286.885202987 490.327917053 -322.888671875 523.564453125 -322.888671875 c 3
 551.461263875 -322.888671875 596.019262627 -296.291599988 620.696289062 -256.87109375 c 1
 641.0390625 -269.60546875 l 1
 612.925988953 -314.515066602 563.472542106 -346.888671875 523.564453125 -346.888671875 c 3
 474.3468694 -346.888671875 427.765625 -298.124228333 427.765625 -236.513671875 c 3
 427.765625 -187.811795171 458.004581427 -51.0464325741 573.669921875 4 c 0
EndSplineSet
Position2: "cpsp-1" dx=0 dy=0 dh=50 dv=100
Substitution2: "c2pc-1" aogonek.pcap
Substitution2: "c2sc-1" aogonek.smcp
EndChar
StartChar: Eogonek
Encoding: 280 280 258
Width: 672
VWidth: 0
UnlinkRmOvrlpSave: 1
Flags: HW
HStem: -347.889 73.7197<484.634 553.852> -9 35<56 102.007> 333 36<205 473.393> 657 31<48 108.489>
VStem: 124 81<87.2765 333 369 603.172> 395.766 71.875<-257.592 -149.807> 497 36<249 305.348> 538 30<537 619.889>
AnchorPoint: "Top" 330 699 basechar 0
LayerCount: 2
Fore
SplineSet
48 688 m 1xd6e0
 120.521055818 684.355725838 206.588460485 682.969176485 287.955928091 682.969176485 c 3
 429.86328558 682.969176485 557.47511282 687.186564497 574 691 c 1
 585.145145837 681.247997393 589.133414459 675.741599913 589.133414459 667.087387512 c 3
 589.133414459 650.893580795 575.168856119 623.677987617 568 537 c 1
 538 534 l 1
 527 570 546 617 510 628 c 0
 468.488636507 639.860389569 402.664140046 646.076658986 339.417525988 646.076658986 c 3
 306.677490841 646.076658986 274.628246937 644.410894684 247 641 c 0
 229 639 216 625 215 607 c 0x9ae0
 211 525.313559322 206 444.635593221 205 369 c 1
 269 371 429 371 443 372 c 0
 480 377 485 403 501 447 c 1
 535 440 l 1
 526.800908316 409.132831309 523.486685813 378.498275435 523.486685813 347.871954284 c 3
 523.486685813 314.997648821 527.305294619 282.132831309 533 249 c 1
 497 240 l 1
 477 311 484 324 443 328 c 0
 399 333 298 332 205 333 c 1
 204 235.613545816 208 147.262948207 220 81 c 0
 224 64 233 50 250 49 c 0
 295.831179232 44.5647245905 336.319436302 40.3723092792 374.696225476 40.3723092792 c 3
 414.193090286 40.3723092792 451.453436792 44.8130178498 490 58 c 0
 550.414440108 78.6680979317 560.916666667 101 601 177 c 1
 629 170 l 1
 601.909278218 96.0751847998 563.005363884 18.4683882549 538.489257812 -19.9775390625 c 0
 508.313510966 -67.2988618945 467.640625 -148.391015834 467.640625 -206.689453125 c 0
 467.640625 -242.779181534 495.826784961 -274.168945312 526.834960938 -274.168945312 c 0
 547.809960937 -274.168945312 572.993960937 -265.436945313 598.834960938 -246.168945312 c 1
 598.834960938 -246.168945312 609.943822568 -256.497164572 612.633789062 -264.569335938 c 1
 585.578932221 -312.305955472 533.145209671 -347.888671875 491.565429688 -347.888671875 c 0
 442.385016588 -347.888671875 395.765625 -303.499671875 395.765625 -247.513671875 c 0
 395.765625 -172.157942368 443.587456716 -80.3722695124 506.53125 0.1865234375 c 1
 426.116814261 0.92057786207 344.873636713 3.07020290016 269.953021447 3.07020290016 c 3xb9e0
 188.876938008 3.07020290016 115.205017511 0.552841530585 58 -9 c 1
 48 26 l 1
 101 36 124 49 124 77 c 1
 125.797958971 111.804426856 126.787753827 207.154066657 126.787753827 309.259280672 c 3xd1e0
 126.787753827 434.312117879 125.303061543 569.498316407 122 616 c 0
 121 643 116 643 43 657 c 1
 48 688 l 1xd6e0
EndSplineSet
Position2: "cpsp-1" dx=0 dy=0 dh=50 dv=100
Substitution2: "c2pc-1" eogonek.pcap
Substitution2: "c2sc-1" eogonek.smcp
EndChar
StartChar: eogonek
Encoding: 281 281 253
Width: 409
VWidth: 1159
UnlinkRmOvrlpSave: 1
Flags: HW
HStem: -326 60.1279<280.116 355.674> 425 168
VStem: 53 185 193.562 69.21<-249.43 -117.14>
AnchorPoint: "Top" 209 465 basechar 0
LayerCount: 2
Fore
SplineSet
354.891601562 49.0888671875 m 1
 239.852439285 -45.2852148448 193.911132812 -152.083232485 193.911132812 -216.493164062 c 3
 193.911132812 -258.26171875 218.028320312 -281.658203125 245.12109375 -281.658203125 c 3
 275.2890625 -281.658203125 309.208984375 -267.125 329.8828125 -231.927734375 c 1
 336.829101562 -236.283203125 342.881835938 -242.000976562 346.349609375 -251.658203125 c 1
 322.953125 -288.572265625 282.64453125 -305.658203125 245.12109375 -305.658203125 c 3
 205.149414062 -305.658203125 169.911132812 -271.276367188 169.911132812 -216.493164062 c 3
 169.911132812 -136.814002492 222.928051229 -26.5104743698 347.670898438 71.1181640625 c 1
 354.891601562 49.0888671875 l 1
EndSplineSet
Refer: 4 101 N 1 0 0 1 0 0 3
Substitution2: "smcp-1" eogonek.smcp
Substitution2: "case-1" Eogonek
Substitution2: "pcap-1" eogonek.pcap
EndChar
StartChar: Iogonek
Encoding: 302 302 258
Width: 341
UnlinkRmOvrlpSave: 1
Flags: HW
HStem: -346.889 73.7197<164.804 231.852> -10 40<16.125 119.789> 652 43<21.3488 120.801>
VStem: 73.7656 71.875<-253.641 -109.865> 131 90<41.0295 293.416> 137.915 75.6029<80.3904 534.592>
LayerCount: 2
Back
SplineSet
284.120028528 -249.948937983 m 1
 295.096692559 -256.914054402 l 1
 288.13157614 -267.890718434 l 2
 256.925878196 -317.069287976 209.593704943 -346.888671875 169.564453125 -346.888671875 c 0
 120.341528403 -346.888671875 73.765625 -298.103890339 73.765625 -236.513671875 c 0
 73.765625 -157.405420829 95.6571069053 -60.0158586843 183.358434364 21.5410310467 c 2
 192.878255237 30.3938842898 l 1
 201.73110848 20.8740634166 l 1
 210.583961723 11.3542425435 l 1
 201.06414085 2.50138930044 l 2
 119.798829486 -73.0703976948 99.765625 -162.071238133 99.765625 -236.513671875 c 0
 99.765625 -285.976639424 137.658695984 -320.888671875 169.564453125 -320.888671875 c 0
 197.063930678 -320.888671875 238.410977942 -297.720270356 266.178248077 -253.960485595 c 2
 273.143364496 -242.983821563 l 1
 284.120028528 -249.948937983 l 1
EndSplineSet
Fore
SplineSet
205.177734375 5.734375 m 1xf0
 136.959256234 -55.0151888681 100 -136.697630121 100 -237 c 3
 100 -281.924791087 133.331848553 -321 170 -321 c 3
 201.123970892 -321 238.491863317 -297.347756625 276.834960938 -245.168945312 c 1
 276.834960938 -245.168945312 287.944335938 -255.497070312 290.633789062 -263.569335938 c 1
 263.579101562 -311.305664062 211.14453125 -346.888671875 169.564453125 -346.888671875 c 3
 120.384765625 -346.888671875 73.765625 -298.078125 73.765625 -236.513671875 c 3
 73.765625 -155.39600704 96.3678964136 -53.4072389723 191 28 c 1
 205.177734375 5.734375 l 1xf0
EndSplineSet
Refer: 34 73 N 1 0 0 1 0 0 3
Position2: "cpsp-1" dx=0 dy=0 dh=50 dv=100
Substitution2: "c2pc-1" iogonek.pcap
Substitution2: "c2sc-1" iogonek.smcp
EndChar
StartChar: iogonek
Encoding: 303 303 471
Width: 263
UnlinkRmOvrlpSave: 1
Flags: HW
HStem: -326 60.1279<121.017 198.674> -7 33<33 87 184 254> 572 102<98.589 183.411>
VStem: 36.5625 69.209<-252.6 -120.517> 89 104<581.438 664.599> 97 71<57 330>
LayerCount: 2
Fore
SplineSet
168 12.9248046875 m 1xe4
 96 -68 63 -163.804332852 63 -225 c 3
 63 -272.084515507 93.0164023679 -300 131 -300 c 3
 173.123295762 -300 195.090832268 -278.668121517 230.97265625 -231.599609375 c 1
 230.97265625 -231.599609375 242.081054688 -241.926757812 244.771484375 -250 c 1
 217.768554688 -302.788085938 172.271484375 -326 130.771484375 -326 c 3
 80.798828125 -326 36.5625 -288.154296875 36.5625 -224.834960938 c 3xf0
 36.5625 -168.798515128 65.1761042329 -60.3968753439 147 27 c 1
 168 12.9248046875 l 1xe4
EndSplineSet
Refer: 438 105 N 1 0 0 1 0 0 3
Substitution2: "smcp-1" iogonek.smcp
Substitution2: "case-1" Iogonek
Substitution2: "pcap-1" iogonek.pcap
EndChar
StartChar: dotlessi
Encoding: 305 305 50
Width: 263
VWidth: 1159
Flags: HMW
HStem: -7 33<33 87 184 254>
VStem: 97 71<57 330>
AnchorPoint: "Top" 136 465 basechar 0
LayerCount: 2
Fore
SplineSet
141 205 m 7
 141 158.309942197 141 80.5956936218 141 35 c 4
 141 29.307394375 152.644864134 30.2836429536 192 28 c 4
 214.034133333 26.68148 237.333333333 21.333333 256 20 c 5
 253 -4 l 5
 214.936 2 171.992 7 131 7 c 7
 105.375 7 74.625 1.11022302463e-016 49 -4 c 5
 44.99609375 20.0048828125 l 5
 44.9971955128 20.00390585 44.9978018606 19.9996178132 45 20 c 4
 119.769230769 33 117 28.1768964064 117 54 c 4
 117 86.75 117 150.94 117 185 c 7
 117 205 117 247 117 310 c 4
 117 355.098098361 117.015625 356 115 356 c 7
 101.7 356 74.8129496403 344.828935146 48.5 338.200195312 c 5
 43 362 l 5
 125.222167401 384.949880668 128.451876652 388.830548926 149 439 c 5
 171 429 l 5
 158.706434294 405.723288747 147.43574326 378.019124151 144.998046875 363.400390625 c 4
 140.995999953 339.400331439 141 221.125039765 141 205 c 7
EndSplineSet
Substitution2: "case-1" I
Substitution2: "pcap-1" i.pcap
Substitution2: "smcp-1" i.smcp
EndChar
StartChar: kgreenlandic
Encoding: 312 312 498
Width: 520
Flags: HW
HStem: -5 33<33.6364 85.0934 314.455 358.094 457 501.545> 344 29<39.7931 76.7086> 374 27<269 299.949 413.248 459.333> 395 20G<145.5 187>
VStem: 105 64<42.314 204 227 346.994>
LayerCount: 2
Fore
SplineSet
179 211 m 1xe8
 169 204 l 1
 169 140.25 171.723635175 78.5727361869 175 54 c 0
 177 39 185.619315018 37.1522739927 196 33 c 0
 206 29 216 28 230 27 c 1
 225 -7 l 1
 191 -1 172 4 130 4 c 3
 100 4 64 -3 34 -5 c 1
 32 28 l 1
 43 29 54.2438024311 30.030722479 64 33 c 0
 87 40 93.3132247115 48.0575369992 96 76 c 0
 101 128 105 170 105 235 c 3
 105 253.368013699 103.27297056 281.632471039 101 318 c 0
 100 334 94 348 77 348 c 3
 71 348 51 345 41 344 c 1
 36 373 l 1
 88 381.884615385 124 387.538461538 167 415 c 1xd8
 187 399 l 1
 181 385 174.184346429 357.982026431 173 347 c 0
 171 328.454705882 168 273.908529412 167 227 c 1
 201.5858 255.29682906 250.733796152 297.620653704 285 330 c 0
 291.596571429 336.233333333 301 348.518518519 301 355 c 3
 301 373 277 372 267 374 c 1
 269 401 l 1
 295 399 330 399 357 399 c 3
 388.166666667 399 428.777777778 399 459 403 c 1
 461 371 l 1
 400.820895522 364.000222222 364.689666047 341.369176033 333 319 c 2
 231 247 l 1
 297.824402928 186.179636497 367.532605558 122.858938129 446 52 c 1
 462 37 490 29 504 28 c 1
 501 -6 l 1
 467 0 449 4 407 4 c 3
 377 4 345 -3 315 -5 c 1
 312 28 l 1
 348 33 348 37 359 38 c 1
 296.777686305 99.8038948798 205.773756239 186.901875399 179 211 c 1xe8
EndSplineSet
MultipleSubs2: "case-2" K quoteleft
EndChar
StartChar: OE
Encoding: 338 338 345
Width: 1081
VWidth: 1159
Flags: HW
HStem: -7 49<336.528 518.419> 3.06988 37.3024<639.125 901.73> 334 36<614 882.393> 650 44<298.396 500.529>
VStem: 37 93<266.365 448.041> 531 93<373.564 620.777> 534.995 79.0053<90.5 334 370 605.156> 906 36<248.75 306.348 394.846 442.094> 947 30<539 620.59> 1007 28<152.034 171.75>
LayerCount: 2
Back
SplineSet
582 352 m 1
 582.037036861 363.999942844 l 1
 906.037036861 362.999942844 l 1
 906 351 l 1
 905.962963139 339.000057156 l 1
 581.962963139 340.000057156 l 1
 582 352 l 1
580 662 m 1
 591.999940292 662.037854701 l 1
 593.999940292 28.0378547012 l 1
 582 28 l 1
 570.000059708 27.9621452988 l 1
 568.000059708 661.962145299 l 1
 580 662 l 1
1020.52341354 161.249829739 m 1
 1032.18202041 158.407843514 l 1
 1018.27332681 101.350568051 1008.38908296 62.2865398441 997.989168318 10.1427723953 c 2
 995.969287603 -0.0112819225036 l 1
 986.148557423 -0.0379843294517 l 2
 879.049291297 -0.329185506495 768.482740823 3.06988 667.928 3.06988 c 0
 487.908097756 3.06988 491.04417465 -7 424.000000874 -7 c 0
 209.996328187 -7 37 145.659804542 37 336 c 0
 37 527.133325969 211.992315878 694 422 694 c 0
 507.505581973 694 461.770390631 684.96875 696.956054688 684.96875 c 0
 828.847401146 684.96875 948.751620007 688.720419849 977.771899892 692.175622786 c 2
 983.427886926 692.849034037 l 1
 987.525614504 688.892735168 l 2
 994.658776376 682.005766789 998.133414459 674.167055235 998.133414459 669.087387512 c 0
 998.133414459 653.204486281 985.380609542 627.825680507 977.861565812 548.814568003 c 1
 965.915537062 549.951404452 l 1
 953.969508313 551.088240901 l 1
 960.788516488 622.7432866 972.149820167 656.670937581 973.966748249 667.666365567 c 1
 935.414348644 664.254449961 821.946382708 660.96875 696.956054688 660.96875 c 0
 461.279617239 660.96875 503.344364177 670 422 670 c 0
 224.112943803 670 61 512.299339582 61 336 c 0
 61 161.365247268 220.723393174 17 424.000000874 17 c 0
 486.766284846 17 487.103763866 27.06988 667.928 27.06988 c 0
 766.007320687 27.06988 872.223459641 23.8818061829 976.287845735 23.9454535804 c 1
 986.198583918 72.4810754567 995.792888733 110.467223791 1008.86480666 164.091815963 c 1
 1020.52341354 161.249829739 l 1
929.373671721 431.759617028 m 1
 941.078364679 429.11383496 l 1
 934.984934233 402.157067319 932.486685813 375.582725761 932.486685813 348.871954284 c 0
 932.486685813 319.895605463 935.785170977 288.665166168 940.204826853 260.840115223 c 1
 928.353397169 258.957666169 l 1
 916.501967485 257.075217115 l 1
 911.936936598 285.815512868 908.486685813 318.107064921 908.486685813 348.871954284 c 0
 908.486685813 377.079832219 911.136471035 405.506194539 917.668978763 434.405399096 c 1
 929.373671721 431.759617028 l 1
EndSplineSet
Fore
SplineSet
423 670 m 3xbdc0
 229 670 61 518.010988679 61 336 c 3
 61 170.046237238 210.843450479 17 424 17 c 3
 472.491111111 17 570 26.83978 570 36 c 1
 570 69.9320580235 569 150.519311778 569 245 c 3xbbc0
 569 396.184225746 569.476513511 588.5279816 568 647 c 0
 567.610181469 662.437363864 486.20609589 670 423 670 c 3xbdc0
424 -7 m 3
 210 -7 37 145.659140762 37 336 c 3
 37 527.127628169 212 694 422 694 c 3
 507.490017004 694 461.789007914 684.96875 696.956054688 684.96875 c 3
 838.863027557 684.96875 966.475003159 689.186881304 983 693 c 1
 994.145145837 683.247997393 998.133414459 677.741599913 998.133414459 669.087387512 c 0
 998.133414459 652.893580795 984.168856119 625.677987617 977 539 c 1
 955 538 l 1
 951.463867188 582.80859375 977 656 966 663 c 0
 955.805999458 669.487091254 877.578992025 659.856023418 605 661 c 0
 597.642551958 661.030878199 592 658.129076155 592 647 c 0xbdc0
 592 549.868644068 592 453.936440679 593 364 c 1
 672.865546218 363 875.559108493 362.66713494 890 363 c 0
 913.137931034 363.533333333 905.724137931 376.306666667 920 446 c 1
 944 441 l 1
 935.800908316 410.132831309 932.486685813 379.498275435 932.486685813 348.871954284 c 0
 932.486685813 315.997648821 936.305294619 283.132831309 942 250 c 1
 919 244 l 1
 906 320.647727273 912.854810659 338.622723857 892 339 c 0
 836.722689076 340 709.836134454 339.8 593 340 c 1
 592.6 239.908366533 592.785749688 109.09004286 594 38 c 0
 594.178710938 27.537109375 600.043316961 26 610 26 c 0
 661 26 745.319335938 26.3720703125 783.696289062 26.3720703125 c 0
 848.541920834 26.3720703125 963.195002807 20.3996525259 973 29 c 0
 983.323529412 38.0551724138 986.916666667 81.756302521 1012 175 c 1
 1035 170 l 1
 1019 104 1008 62 996 0 c 1
 886.301 -0.545565 771.508 3.06988 667.928 3.06988 c 3x7bc0
 487.932 3.06988 491.022 -7 424 -7 c 3
EndSplineSet
Position2: "cpsp-1" dx=0 dy=0 dh=50 dv=100
Substitution2: "c2pc-1" oe.pcap
Substitution2: "c2sc-1" oe.smcp
EndChar
StartChar: oe
Encoding: 339 339 871
Width: 735
VWidth: 1159
UnlinkRmOvrlpSave: 1
Flags: HW
HStem: -14 39<190.397 302.402> 371 45<159.168 278.592> 425 168
VStem: 32 76<120.631 292.302> 359 78<100.689 280.313> 379 185
AnchorPoint: "Top" 379 465 basechar 0
AnchorPoint: "Bottom" 377 -15 basechar 0
LayerCount: 2
Back
SplineSet
218 392 m 4
 155.107281733 392 56 333.229247737 56 191 c 4
 56 81.4222036262 127.626744025 11 217 11 c 4
 302.183323701 11 370 87.1059430747 370 202 c 4
 370 298.479094702 311.071345159 392 218 392 c 4
218 416 m 4
 329.928654841 416 394 305.63305483 394 202 c 4
 394 78.1810939624 318.86677052 -13 217 -13 c 4
 113.293367474 -13 32 70.1777963738 32 191 c 4
 32 346.024085596 141.693046617 416 218 416 c 4
EndSplineSet
Fore
SplineSet
217 416 m 3
 328.928654841 416 393 305.63305483 393 202 c 3
 393 78.1810939624 317.86677052 -13 216 -13 c 3
 112.853943866 -13 32 70.1777963738 32 191 c 3
 32 346.024085596 141.103299055 416 217 416 c 3
217 392 m 3
 154.495508389 392 56 333.229247737 56 191 c 3
 56 81.4222036262 127.181857416 11 216 11 c 3
 301.183323701 11 369 87.1059430747 369 202 c 3
 369 298.479094702 310.071345159 392 217 392 c 3
EndSplineSet
Refer: 4 101 N 1 0 0 1 326 0 2
Substitution2: "smcp-1" oe.smcp
Substitution2: "case-1" OE
Substitution2: "pcap-1" oe.pcap
EndChar
StartChar: uogonek
Encoding: 371 371 2445
Width: 506
UnlinkRmOvrlpSave: 1
Flags: HW
HStem: -324.658 60.1279<313.017 390.674> -18.7812 20G<319.052 378.615> -11 55<171 272> 338 31<291 350>
VStem: 69 76<71 327> 228.562 69.21<-251.259 -142.76> 358 65<36 52 75 331>
LayerCount: 2
Fore
SplineSet
459.541992188 -17.2529296875 m 1
 338.070524791 -86.0415880661 289.561523438 -163.886642805 289.561523438 -210.834960938 c 3
 289.561523438 -252.603441357 313.678630009 -276 340.771484375 -276 c 3
 370.938691921 -276 404.859329018 -261.467250311 425.533203125 -226.26953125 c 1
 432.478795397 -230.625136529 438.531466159 -236.342331358 442 -246 c 1
 418.603065243 -282.913648659 378.294769347 -300 340.771484375 -300 c 3
 300.799479545 -300 265.561523438 -265.618520571 265.561523438 -210.834960938 c 3
 265.561523438 -151.102485007 321.262577688 -68.4117422068 452.321289062 4.7763671875 c 1
 459.541992188 -17.2529296875 l 1
EndSplineSet
Refer: 814 117 N 1 0 0 1 0 0 3
Substitution2: "smcp-1" uogonek.smcp
Substitution2: "case-1" Uogonek
Substitution2: "pcap-1" uogonek.pcap
EndChar
StartChar: uni0187
Encoding: 391 391 2647
Width: 743
Flags: HW
AnchorPoint: "Top" 426 699 basechar 0
AnchorPoint: "Bottom" 416 -15 basechar 0
LayerCount: 2
Fore
SplineSet
447 705 m 3
 503.405797101 705 546.015872216 687.499435143 586 677 c 0
 610.229826422 670.637488045 614.546712636 675.597439066 617.556640625 690.698242188 c 0
 625.603482305 731.069231922 647.591263085 763.379982068 676.950195312 792.549804688 c 0
 711.646328998 827.022450265 792.397957833 858.700195312 799.299804688 858.700195312 c 0
 822.400390625 858.700195312 859.799804688 827.899414062 859.799804688 798.200195312 c 0
 859.799804688 764.099609375 827.900390625 741 785 741 c 1
 776.0703125 778.125 756.723632812 785 734.400390625 785 c 0
 725.411027793 785 705.190917045 775.0563571 693.450195312 761.75 c 0
 678.603188684 744.923132234 672.056010049 683.813522974 676.977539062 636.334960938 c 2
 688 530 l 1
 657 524 l 1
 614.517241379 620 535.344827586 667 433 667 c 3
 273 667 146 559.113402062 146 368 c 3
 146 158.528358209 298 29 452 29 c 3
 554 29 636 82 673 171 c 1
 700 163 l 1
 691 116 683 90 671 43 c 1
 608 12 531 -13 438 -13 c 3
 218 -13 43 137.669467787 43 348 c 3
 43 522.94017094 167 705 447 705 c 3
EndSplineSet
EndChar
StartChar: uni0188
Encoding: 392 392 2648
Width: 436
Flags: HW
AnchorPoint: "Top" 231 465 basechar 0
AnchorPoint: "Bottom" 228 -15 basechar 0
LayerCount: 2
Fore
SplineSet
326 511 m 0
 326 605.576271186 345.350674678 649.082637864 391 696 c 0
 427 733 517.440196747 767 525 767 c 0
 546 767 580 739 580 712 c 0
 580 681 551 660 512 660 c 1
 503.882352941 693.75 486.294117647 700 466 700 c 0
 452.829268293 700 422.484739915 686.682705237 406 668 c 0
 391 651 391 590.009999001 391 540 c 0
 391 481.750548098 393 402.567567568 394 314 c 1
 370 298 l 1
 327.400535093 318.930896688 264.172011235 353.0000001 214 353 c 0
 144 352.99999986 106 300.154929577 106 219 c 0
 106 113 178 40 274 40 c 0
 313 40 346 56 369 72 c 1
 385 46 l 1
 351 19 292 -11 232 -11 c 0
 183 -11 34 7 34 182 c 0
 34 307.648535565 145 413 267 413 c 0
 288.419040385 413 310.0419809 408.824125351 330.098590995 402.094279916 c 1
 327.895664018 449.381977843 326 491.259296685 326 511 c 0
EndSplineSet
EndChar
StartChar: uni018B
Encoding: 395 395 2649
Width: 647
VWidth: 1159
Flags: W
HStem: -4 38<551.75 627 246.082 451.04> 349 30<271.769 461> 654 31<568.205 630> 680 20G<160 180.171>
VStem: 460 86<44.2298 349 379 639.778> 164 31<534 596.993> 89 90<96.7035 268.078>
LayerCount: 2
Fore
SplineSet
607 685 m 1xea
 612 654 l 1
 539 640 525 640 524 613 c 0
 520.883101455 528.843739297 520 461 520 292 c 3
 520 176 523 78 523 73 c 0
 523 35.9462890625 560 36 607 34 c 1
 604 -2 l 1
 597 -2 552 2 493 2 c 3
 433.150390625 2 380.650390625 -4 325 -4 c 3
 161.126953125 -4 56 81.599609375 56 210 c 3
 56 313.157226562 124.46875 404.865234375 246 421.883789062 c 0
 304.694404737 430.103024336 366.982421875 429 438 429 c 1
 438 429 439 535.88 435 596 c 0
 433.803214481 613.987686349 431.110770276 633 413 633 c 3
 351.03694924 633 290.945353719 633.101732231 231 628 c 0
 184 624 181 628 144 554 c 1
 105 573 l 1
 125 612 154 691 165 713 c 1
 188 695 210.002744447 685.347488314 232 685 c 0
 321.524786441 683.585786438 411.049572883 682.171572875 500.827254201 682.171572875 c 3
 552.81580054 682.171572875 582 683 607 685 c 1xea
319 399 m 3xca
 200.189510234 399 152 310.982292386 152 226 c 3
 152 99.3335597826 234.098835271 34 342 34 c 3
 362.221855249 34 397.226329253 38.9928629412 405 41 c 0
 431.251979119 47.7781775005 435.947957703 59.0014431767 437 96 c 0
 438.909918881 163.168632336 439 272.443069307 440 384 c 1
 414.145299145 395.142857143 375.475442051 399 319 399 c 3xca
EndSplineSet
EndChar
StartChar: uni018F
Encoding: 399 399 862
Width: 677
Flags: HW
HStem: -24.5 69.25<264.739 399.5> 645.75 66.5<218.254 394.047>
VStem: 553 83.25<318.612 483.505>
LayerCount: 2
Fore
SplineSet
325 0 m 3
 408 0 583.286849098 132.626792001 606 304 c 1
 431.646212028 271.68165453 260.104832886 236.594357911 84 206 c 1
 116 90 217.319148936 0 325 0 c 3
326.5 -24.5 m 3
 225 -24.5 117.16530329 53.8152292875 83.25 140 c 0
 62 194 68 200 29 194.75 c 1
 29 218.75 l 1
 610 330 l 1
 610 343.026315789 611.75 358.223684211 611.75 371.25 c 3
 611.75 597.646875 485.081793565 689 342 689 c 3
 225.221491228 689 128.320175439 633.266666668 58.75 575 c 1
 43 595.25 l 1
 116.5 652.029411765 221.5 712.25 342.25 712.25 c 3
 529.5 712.25 636.25 570.057894737 636.25 386.75 c 3
 636.25 80.5 386 -24.5 326.5 -24.5 c 3
EndSplineSet
Position2: "cpsp-1" dx=0 dy=0 dh=50 dv=100
EndChar
StartChar: uni019D
Encoding: 413 413 1993
Width: 791
Flags: HW
HStem: 0 59<338.842 413.277> 216.5 41.8262<340.536 414.478>
VStem: 425.75 306.641<257.793 462.35>
AnchorPoint: "Top" 403 699 basechar 0
AnchorPoint: "Bottom" 407 -15 basechar 0
LayerCount: 2
Fore
SplineSet
184.073537644 64 m 3
 184.073537644 -66.6258218239 161.813821883 -119.205815619 61 -189 c 0
 22 -216 -15 -241 -74 -241 c 3
 -106 -241 -156 -230 -181 -208 c 1
 -179.775510204 -178.046875 -181 -178.046875 -121 -137 c 1
 -82 -155 -58.650848842 -179 -13 -179 c 3
 124.758644643 -179 106.748046875 -4.25197176855 106.748046875 129 c 3
 106.748046875 269.772856568 106.63207391 315.787844193 106.63207391 430.331351559 c 3
 106.63207391 477.147555243 106.090288521 524.117593594 105 571 c 0
 104 614 69 649 12 648 c 1
 14 692 l 1xcc
 53 688 104.98828125 684 146 684 c 0
 161 684 162.447304818 680.419833099 169 673 c 0
 323.650943396 498.232468194 483.79245283 331.233112803 654 172 c 1
 661.597845583 274.809392514 664.256835938 377.619470097 664.256835938 484.467773438 c 3
 664.256835938 504.496930692 664.166674152 524.665753423 664 545 c 0
 663 667 611 656 552 663 c 1
 556 701 l 1xac
 611.519527593 693.825467429 658.298730193 691.263671875 702.271484375 691.263671875 c 3
 731.164871444 691.263671875 758.846585715 692.369725676 787 694 c 1
 792 655 l 1
 743 649 721.77858161 651.020484316 718 609 c 0
 703 442.189453125 700 264.596679688 700 86 c 0
 700 63 706 23 712 0 c 1
 675 -11 l 1
 659 32 624.352238752 71.3837846991 593 105 c 0
 452.622641509 255.514148086 309.528301887 401.20457558 161 544 c 1xcc
 151.715649199 248.254430835 184.073537644 212.936315807 184.073537644 64 c 3
EndSplineSet
EndChar
StartChar: ohorn
Encoding: 417 417 447
Width: 505
VWidth: 0
UnlinkRmOvrlpSave: 1
Flags: HW
HStem: 330 18<-84.5 -47.4434>
VStem: 12.8818 62.7432<400.38 466.056>
AnchorPoint: "Top" 251 465 basechar 0
AnchorPoint: "Bottom" 249 -15 basechar 0
AnchorPoint: "Middle" 255 206 basechar 0
LayerCount: 2
Back
SplineSet
504 445 m 3
 504 464.415444558 499.023692526 472.412018207 480.374023438 474.837890625 c 1
 480.830435302 485.569942673 486.751612237 492.322265625 498.20703125 492.322265625 c 3
 507.572752193 492.322265625 528.625 481.857421875 528.625 444.775390625 c 7
 528.625 413.498484064 448.543652642 366.293755194 387.5 366 c 5
 387 384 l 1
 439.130983954 385.33519194 504 421.319261447 504 445 c 3
EndSplineSet
Fore
SplineSet
334.482421875 402.741210938 m 1x9a
 350.204349336 394.241953352 373.927079456 383.744140625 388.686523438 383.744140625 c 3
 437.000677488 383.744140625 504 410.9857172 504 446 c 3
 504 463.95762404 499 473 480.6640625 474.818359375 c 1
 481.466020122 489.899936002 491.442249268 492 497 492 c 3
 517.385565273 492 528.528388939 470.680251947 528.528388939 445.9790134 c 3
 528.528388939 396.089685559 450.426516037 365.359813167 388.72825766 365.359813167 c 3xca
 357.132622939 365.359813167 342.400200021 377.606700862 334.482421875 402.741210938 c 1x9a
EndSplineSet
Refer: 14 111 N 1 0 0 1 0 0 2
Substitution2: "smcp-1" ohorn.smcp
Substitution2: "case-1" Ohorn
Substitution2: "pcap-1" ohorn.pcap
EndChar
StartChar: uni01A4
Encoding: 420 420 883
Width: 722
Flags: HW
LayerCount: 2
Fore
SplineSet
392 278 m 3xd6
 499 278 601 335.9609375 601 459 c 3
 601 540 542.336254197 613.739442579 499 633 c 0
 463 649 411 655 345 655 c 3
 330 655 318.598349595 641.994621601 319 627 c 0xda
 321 552.334960938 320 421.16796875 321 290 c 1
 343 281 365 278 392 278 c 3xd6
264 684 m 3
 325.585635359 684 359.414364641 694 421 694 c 3
 586 694 690 576 690 467 c 3
 690 347.405273438 588 242 384 242 c 3
 361 242 344 246 324 250 c 1
 326 181 326.453213516 105.069707637 331 74 c 0
 337 33 357 42 428 37 c 1
 424 -10 l 1
 365.657226562 -3.2685546875 325.251953125 2.833984375 281.423828125 2.833984375 c 3
 247.125 2.833984375 210.73046875 -0.90234375 162 -11 c 1
 148 27 l 1
 222 52.103515625 237.224468716 42.235790168 238 79 c 0
 239.333333333 142.206923339 240 214.884459434 240 292 c 3xd6
 240 461 232.901044498 604.989555016 232 614 c 0
 231 624 220 653 196 653 c 3
 155 653 96 634 96 592 c 3
 96 571 111 554 135 537 c 1
 123 506 98 487 71 487 c 3
 32 487 7 515 7 544 c 3
 7 621 108 686 189 686 c 3
 205.176470588 686 239 684 264 684 c 3
EndSplineSet
EndChar
StartChar: uni01A6
Encoding: 422 422 2656
Width: 594
Flags: HW
HStem: -9 35<33 79.7574> 178 45<189.142 391.092> 519 42<188.8 373.894> 661 31<15.871 81.5947>
VStem: 103 86.1416<54.7783 182.945 226.958 514.181 554.895 640.551> 465 87<299.251 431.707>
AnchorPoint: "Bottom" 357 -121 basechar 0
LayerCount: 2
Fore
SplineSet
393 233 m 1
 512 32.395280236 606 -100.02359882 740 -102 c 1
 733 -139 l 1
 555 -143.943820225 381 44.91011236 307 213 c 1
 393 233 l 1
300 652.244140625 m 1
 269.541015625 652.76953125 239.069036643 648.465969071 211 641 c 0
 193.498046875 636.344726562 189.816313697 622.00926517 189 604 c 0
 188.240234375 587.23828125 187.66015625 570.91015625 187.219726562 554.89453125 c 1
 223.961914062 557.525390625 259.918945312 561 309 561 c 3
 442 561 552 478 552 375 c 3
 552 258.262695312 417.193359375 178 292 178 c 3
 251.719726562 178 228.8125 181.861328125 189.141601562 182.9453125 c 1
 190.319335938 145.3203125 192.7215104 106.461477643 198 75 c 0
 200.709816262 58.8486328125 205.99367947 38.1826171875 275 36.1611328125 c 1
 271 -10.6103515625 l 1
 225.548209134 -0.590093628864 191.187381428 4.1748046875 153.515625 4.1748046875 c 3
 120.860821228 4.1748046875 85.3826899468 -0.370203729478 35 -9 c 1
 25 26 l 1
 78 36 103 49 103 77 c 1
 104.6 108.20234375 105.4 187.70734375 105.4 277.3266875 c 3
 105.4 411.755703125 101.894433143 568.850305134 100 620 c 0
 99 647 85 647 12 661 c 1
 17 692 l 1
 64.3137479468 686.877828443 116.634803726 684.064503692 169.426581172 684.064503692 c 3
 212.805530712 684.064503692 256.502306442 685.964030206 298 690.04296875 c 1
 300 652.244140625 l 1
189.073242188 226.958007812 m 1
 228.5625 225.396484375 249.3671875 223 290 223 c 3
 436 223 465 311 465 364 c 3
 465 424 404 519 288 519 c 3
 266.518554688 519 216.749023438 516.599609375 187.26171875 510.466796875 c 1
 185.9765625 417.948242188 187.340820312 313.534179688 189.073242188 226.958007812 c 1
EndSplineSet
EndChar
StartChar: uni01AA
Encoding: 426 426 2657
Width: 355
Flags: HW
AnchorPoint: "Bottom" 133.456 -15 basechar 0
LayerCount: 2
Fore
SplineSet
212.456054688 194 m 3
 212.456054688 71.6015038881 201.473632812 -33.4860505391 201.473632812 -143.58984375 c 3
 201.473632812 -212.013681575 220.827909651 -264.506835938 297.883789062 -264.506835938 c 3
 335.411463382 -264.506835938 371.476559169 -228.337705925 430 -193 c 5
 415.508789062 -162.614257812 l 5
 398.871174504 -171.894281546 373.927508313 -194.506835938 354 -194.506835938 c 3
 319.57265625 -194.506835938 282.633753682 -170.074204527 280 -122.506835938 c 0
 272.174804688 18.8214713456 278.456054688 145.327972165 278.456054688 260 c 3
 278.456054688 337.412109375 287.456054688 507.83984375 287.456054688 632 c 3
 287.456054688 729 202.934570312 739 179.456054688 739 c 3
 114.568359375 739 0.4560546875 719.662109375 0.4560546875 636 c 3
 0.4560546875 609.255859375 21.2373046875 573 70.4560546875 573 c 3
 116.190429688 573 159.456054688 612.427734375 159.456054688 662 c 3
 159.456054688 719.541015625 106.456054688 818 106.456054688 818 c 1
 57.4560546875 798 l 1
 57.4560546875 798 114.456054688 714.2421875 114.456054688 651 c 3
 114.456054688 627.487304688 96.8095703125 610 82.4560546875 610 c 3
 60.7421875 610 44.4560546875 620.66796875 44.4560546875 644 c 3
 44.4560546875 677.663085938 99.162109375 691 137.456054688 691 c 3
 195.758789062 691 210.364070511 653.38767093 211.456054688 622 c 0
 218.576914672 417.320101948 212.456054688 482.9296875 212.456054688 194 c 3
EndSplineSet
EndChar
StartChar: uni0220
Encoding: 544 544 1974
Width: 644
VWidth: 1159
Flags: W
HStem: -250 35<433 482.387> -11 37<207.97 272.58> -9 42<24 81.5653> 586.25 35.75<10.5946 63.8427> 616.5 81.75<332.324 467.762>
VStem: 106 80<55.9811 565.84> 520.4 73.1992<-134.759 552.9>
AnchorPoint: "Top" 376 699 basechar 0
LayerCount: 2
Fore
SplineSet
668 -213 m 1x8e
 668 -213 663 -233 664 -247 c 1
 629.008077782 -239.607340376 593.044574829 -235.37231814 555.391234575 -235.37231814 c 0
 516.644451928 -235.37231814 476.108262133 -239.856879498 433 -250 c 1
 433 -250 427 -227 425 -215 c 1
 494.775390625 -200.154296875 505.095703125 -194.717773438 510.799804688 -128.75 c 0
 515.616210938 -73.044921875 520.400390625 52.66796875 520.400390625 105 c 3
 520.400390625 231.9296875 516.90625 421.485351562 514.400390625 474.25 c 0
 510.45703125 557.28515625 482.892578125 616.5 398.799804688 616.5 c 3
 315.755859375 616.5 243.092773438 591.5 186 554 c 1
 186.35546875 394.240234375 187.599609375 171.71875 187.599609375 103.25 c 3
 187.599609375 31.212890625 219.473632812 38.583984375 277 26 c 1
 277 26 273 3 272 -11 c 1xce
 220.392393862 -2.39873231031 175.431590595 2.44564680006 132.612272285 2.44564680006 c 0
 95.7794837565 2.44564680006 60.5312407821 -1.1388469203 24 -9 c 1
 24 -9 19 15 17 33 c 1
 74.3115234375 42.5517578125 103.879882812 52.6318359375 105.200195312 112 c 0
 106.524414062 171.532226562 106 286.786132812 106 348.25 c 3
 106 383.25 101.497070312 503.950195312 98.599609375 539 c 0
 94.0888671875 593.5625 73.6376953125 597 64.400390625 597 c 3
 52.6728515625 597 30 588 12.2001953125 586.25 c 1
 4 622 l 1xb6
 50.0712890625 631.827148438 98.142578125 647.166015625 158.400390625 695 c 1
 168.941315276 692.41974018 174.636804856 686.63909523 177.979571614 678.000002187 c 0
 185.298205261 659.08562329 186.200195312 618.413599513 186.200195312 592.5 c 1
 259.465820312 640.010742188 338.837890625 698.25 435 698.25 c 3
 535.096679688 698.25 596.799804688 628.25 596.799804688 504 c 3
 596.799804688 400.599609375 593.599609375 287.799804688 593.599609375 175 c 3
 593.599609375 23.7734375 592.690429688 -122.018554688 598.400390625 -167.25 c 0
 603.58984375 -208.36328125 626.857421875 -210.256835938 668 -213 c 1x8e
EndSplineSet
Validated: 33
EndChar
StartChar: uni0221
Encoding: 545 545 2658
Width: 624
VWidth: 1159
Flags: HW
AnchorPoint: "TopRight" 503.5 581 basechar 0
AnchorPoint: "Top" 390 734 basechar 0
AnchorPoint: "Bottom" 224 -15 basechar 0
LayerCount: 2
Fore
SplineSet
361 53 m 1
 317 23 260 -5 197 -5 c 3
 97 -5 34 79 34 172 c 3
 34 252 79.5630586283 321.640322119 135 359 c 0
 181 390 237 405 267 405 c 3
 292 405 349 388 363 386 c 1
 363 504 361 562.992063992 361 626 c 0
 361 642 354 656 337 656 c 3
 331 656 306 650 296 649 c 1
 288 681 l 1
 340 692 399 720 442 754 c 1
 462 738 l 1
 456 724 449.413489624 696.954544586 448 686 c 0
 428 531 427 380.576072156 427 185 c 3
 427 110.480769231 413.720072356 30 497 30 c 3
 531.588235294 30 581 45.8902649863 581 86 c 3
 581 108.64565046 565.142857143 119 544 119 c 3
 529.198122065 119 511 101.085999848 511 77 c 3
 511 14.1876843181 568 -69 568 -69 c 1
 519 -88 l 1
 519 -88 466 11.7213114754 466 70 c 3
 466 117.344235991 508.293452508 155 553 155 c 3
 602.921875 155 624 120.470774048 624 95 c 3
 624 2.40296733057 513.075 -19 450 -19 c 3
 432.84867063 -19 378.442569201 -12.0942250748 361 53 c 1
228 359 m 3
 206 359 174.4998206 345.796757269 155 333 c 0
 123 312 98 278 98 226 c 3
 98 136 154 44 256 44 c 3
 296.196078431 44 331.490196078 59.1111111111 356 78 c 1
 353 113 362 142 362 306 c 0
 362 337 336 340 310 346 c 0
 284 352 238 359 228 359 c 3
EndSplineSet
EndChar
StartChar: uni0223
Encoding: 547 547 1757
Width: 505
VWidth: 1159
UnlinkRmOvrlpSave: 1
Flags: W
HStem: -10 38.3418<201.374 335.148>
VStem: 32 76.0576<128.7 289.158> 72.0576 56.3711<501.914 617.708> 374.314 59.6855<489.485 623.087> 393.942 79.0576<108.882 274.954>
LayerCount: 2
Fore
SplineSet
142.771484375 632.404296875 m 5xa8
 136.000137022 620.896141503 128.428710938 604.550367327 128.428710938 581.482421875 c 3
 128.428710938 486.147181428 195.891052506 443.467043117 267.124023438 429 c 0
 377.449604451 406.593452631 473 325.307519939 473 208.216796875 c 3xa8
 473 77.0469727635 378.797699162 -10 253.713867188 -10 c 3
 138.817848132 -10 32 62.454288434 32 199.11328125 c 3
 32 305.616637844 114.681038842 385.9549512 193.999997812 412.166772416 c 1
 208.777417728 421.472852403 223.438476562 425.19921875 237.42578125 427 c 1
 322.020507812 432.524414062 374.314453125 493.683927903 374.314453125 539.088867188 c 3
 374.314453125 580.888505508 368.510036426 610.212428847 358 634.676757812 c 5
 387 646 l 1
 408.098728073 635.650858628 434 599.532139883 434 559.005859375 c 3
 434 490.835593766 374.994140625 429.026367188 288 404.080078125 c 1
 273.189453125 396.063476562 257.568520686 391.954942899 241.2890625 388 c 1
 175.28783652 379.478857291 108.057617188 315.930882685 108.057617188 225.57421875 c 3xd0
 108.057617188 127.971132886 172.297311821 28.341796875 266.314453125 28.341796875 c 3
 380.75820258 28.341796875 393.942382812 138.733310856 393.942382812 186.11328125 c 3
 393.942382812 280.7265625 328.320447516 369.017057706 221.077148438 387.515625 c 0
 135.148225323 402.33764167 72.0576171875 466.737304688 72.0576171875 545.581054688 c 3
 72.0576171875 599.096174571 99.5263996359 628.612213256 117.713867188 643 c 1
 142.771484375 632.404296875 l 5xa8
EndSplineSet
Substitution2: "pcap-1" uni0223.pcap
Substitution2: "smcp-1" uni0223.smcp
EndChar
StartChar: uni0235
Encoding: 565 565 2660
Width: 599
Flags: HW
AnchorPoint: "Top" 272 465 basechar 0
AnchorPoint: "Bottom" 269 -15 basechar 0
LayerCount: 2
Fore
SplineSet
365 143 m 3
 365 192.5 362.409977506 266.799352727 360 287 c 0
 355.864197531 328.910447761 338.49382716 359 293 359 c 3
 245 359 203 345 170 324 c 1
 168 234.329113924 161 109.430379747 161 71 c 3
 161 41 173.875388203 36.4721359549 194 32 c 0
 203 30 222 28 232 27 c 1
 228 -7 l 1
 189 -1 159 4 117 4 c 3
 87 4 51 -1 21 -5 c 1
 18 28 l 1
 29 30 35.1817100136 30.1778373948 46 33 c 0
 69 39 80.9078853108 49.0206349479 87 76 c 0
 94 107 95 167 95 199 c 3
 95 219 92.9313485794 287.976104104 86 308 c 0
 77 334 72 336 54 336 c 3
 44 336 41 335 32 335 c 1
 30 364 l 1
 67 371 104 375 154 416 c 1
 175 401 l 1
 170 387.056338028 167 366.915492958 167 346 c 1
 215 377 267 415 330 415 c 3
 394.338983051 415 434 375 434 304 c 3
 434 265.971428571 432 224.485714286 432 183 c 3
 432 108.961538462 418.720072356 29 502 29 c 3
 525.882352941 29 560 43.1877365949 560 79 c 3
 560 92.0384048104 551 98 539 98 c 3
 523.749580309 98 505 82.2186189137 505 61 c 3
 505 9.80366050584 554 -58 554 -58 c 1
 510 -73 l 1
 510 -73 465 7.7868852459 465 55 c 3
 465 97.8883078976 504.37666268 132 546 132 c 3
 583.265625 132 599 104.376619238 599 84 c 3
 599 0.337768728497 507.2 -19 455 -19 c 3
 437.84867063 -19 383.442569201 -12.0942250748 366 53 c 1
 361 73 365 128 365 143 c 3
EndSplineSet
EndChar
StartChar: uni0236
Encoding: 566 566 2661
Width: 386
Flags: HW
AnchorPoint: "Top" 143.5 508 basechar 0
AnchorPoint: "TopRight" 313 531 basechar 0
AnchorPoint: "Bottom" 183 -15 basechar 0
LayerCount: 2
Fore
SplineSet
360 93 m 3
 360 9.3377687285 242.7 -10 176 -10 c 3
 152.52173913 -10 68 0 68 97 c 3
 68 197 72 259 74 357 c 1
 74 357 39 354 17 354 c 1
 14 370 l 1
 66 400 109 431 140 478 c 1
 155 475 l 1
 151 449 151 427 149 399 c 1
 199 401 258 400 308 402 c 1
 304 355 l 1
 254 355 196 357 146 358 c 1
 142 296 141 229 141 107 c 3
 141 73 158.393939394 38 223 38 c 3
 261.294117647 38 316 51.3364723992 316 85 c 3
 316 108.331882292 299.714285714 119 278 119 c 3
 263.64666382 119 246 101.512523661 246 78 c 3
 246 14.7574629778 303 -69 303 -69 c 1
 254 -89 l 1
 254 -89 201 9.45901639344 201 67 c 3
 201 116.572200037 244.265715784 156 290 156 c 3
 339.21875 156 360 119.74431275 360 93 c 3
EndSplineSet
EndChar
StartChar: uni0237
Encoding: 567 567 51
Width: 265
VWidth: 1159
Flags: HMW
VStem: -27 27<-331 -293> 82 68<-160 327>
AnchorPoint: "Top" 120 465 basechar 0
LayerCount: 2
Back
SplineSet
115.223750639 -41.7842232556 m 2
 115.086469832 -56.8667395308 115 -69.8436449494 115 -80 c 0
 115 -102.097624643 113.298194228 -119.680465363 110.191922212 -133.989564386 c 0
 108.052554763 -143.844599781 105.236561253 -152.162182775 101.792131012 -159.246895103 c 0
 89.9243239785 -183.657317996 72.4910005552 -203.652405769 56.0070272125 -220.692698788 c 0
 53.3746695167 -223.460912428 50.9783388183 -225.943202888 48.4146350929 -228.558180687 c 0
 47.5345225659 -229.392314626 46.1704655771 -230.69934833 45.1711725752 -231.66338203 c 0
 44.216026211 -232.616833883 43.2161448322 -233.613433764 42.3299657455 -234.496333097 c 0
 41.2222430469 -235.599956107 39.9451017437 -236.872345535 38.7762889803 -238.038822897 c 0
 34.054143974 -242.919343206 29.6781767185 -247.784418221 26.0924002668 -252.208525973 c 0
 22.6949355376 -256.400295941 19.6599399519 -260.573193219 16.9869308995 -264.727624506 c 0
 14.2778071922 -269.44436835 11.4749241223 -274.904376244 9.0882341572 -280.340857333 c 0
 6.56876883349 -286.079778512 4.14040238979 -292.694820849 2.24440934897 -299.135336824 c 0
 0.308798907306 -306.922275521 -1.11016820701 -315.535447425 -2.05755187687 -325.173853835 c 1
 -25.9946099139 -323.640371005 l 1
 -25.6924914366 -313.563894044 -23.7013391254 -302.851587518 -20.9329170099 -292.890342677 c 0
 -19.0810648616 -285.635797882 -16.7579531232 -278.614467504 -13.9965272033 -272.108826251 c 0
 -11.1096414875 -265.30761436 -7.57342002337 -258.640977034 -3.51359204758 -252.237214063 c 0
 1.43088805085 -243.866972802 6.53272344965 -236.707981479 11.3373138295 -231.695912554 c 0
 14.7755701573 -228.10918063 18.0476063162 -224.81885402 21.7566021359 -221.117269135 c 0
 23.8607402956 -218.959023525 26.0265859508 -216.800955005 28.281154534 -214.612404102 c 0
 30.0656822524 -212.831042288 31.6390215776 -211.254502428 33.4416035707 -209.433045625 c 0
 35.0188578299 -207.83927596 36.8850980891 -205.935600251 38.6084258154 -204.160176998 c 0
 58.3891949564 -183.2823841 79.0113774916 -157.084203779 83.2827693912 -137.409913817 c 1
 83.9008140321 -134.663048746 84.4878717719 -131.549210082 85.0857129026 -127.692119157 c 0
 87.5476780904 -111.808261233 89.7784827154 -84.8164226957 91.2294281197 -41.0520834106 c 0
 91.2633101275 -37.3599853966 91.300995406 -33.4413710287 91.3390469434 -29.6275599591 c 0
 91.6229615358 -1.17150558117 92.0354758497 33.2463413698 92.3783440371 69.9039194892 c 0
 92.6717195625 101.270014795 92.9140857636 134.27467071 92.9813899259 166.572495521 c 0
 92.9935532533 172.409415603 93 178.223213802 93 184 c 0
 93 187.947763483 93.0921526516 194.357972335 93.2819670331 202.585615131 c 0
 93.5296090231 228.407592213 93.9831121948 248.370424555 94.8138679296 265.626801009 c 0
 95.6562880201 283.125468311 96.9435227349 298.735001153 98.7608324946 315.496468189 c 0
 99.1102316306 319.712869847 99.5044202437 324.204502526 99.8509004129 327.819374612 c 0
 100.23203583 331.795809348 100.640645921 335.709682452 101.064473672 339.406750853 c 0
 101.656457511 347.077718071 102.21589234 356.983664113 102.389396025 360.707734827 c 1
 99.7699801414 358.523570323 99.0023314897 357.87336327 97.0384265484 356.227851692 c 0
 94.4261928629 353.859533273 91.5882844641 351.442301083 89.1830789055 349.56162581 c 0
 87.0184254298 347.869042717 84.6064403833 346.12177045 82.2999152872 344.548973687 c 0
 73.8572808789 338.478943226 64.0793460229 332.564079914 53.3180249358 329.467840162 c 1
 45.3009571032 352.041693523 l 1
 53.7440856863 355.634858223 61.3875900423 359.483723311 68.4707815499 364.169106491 c 0
 70.8558604432 365.912125155 73.2630099825 367.780045953 75.5476132848 369.618846451 c 0
 77.2611692418 370.998030112 79.306073746 372.689396865 81.151994395 374.228706966 c 0
 91.7801950478 384.144395809 103.189111297 398.591564407 116.704364261 421.164404653 c 0
 172.737930186 514.750276516 l 1
 138.389510581 411.221237144 l 0
 133.530370309 396.575377733 128.975562608 364.358944547 126.848519455 351.099319407 c 0
 126.208121439 347.107187122 125.560212589 342.267527022 124.957354738 337.100005469 c 0
 124.4228322 330.364887865 123.741781559 322.971041216 122.925798294 315.667583007 c 0
 122.822610377 314.743999557 122.755040817 314.135972411 122.655483849 313.223459866 c 0
 121.176446222 294.876504796 119.980588217 274.091717781 119.113964595 255.014849878 c 0
 118.211175112 235.141867777 117.605548421 216.062637882 117.279556943 202.208328273 c 0
 117.028170452 175.174738046 117 141.146225114 117 96 c 0
 117 90.873498677 116.994965011 85.8513392849 116.985015315 80.9313220066 c 0
 116.883029619 30.5004948046 116.265197793 -9.19553255779 115.258332121 -40.5422941579 c 0
 115.226228432 -41.5417787016 115.223750639 -41.7842232556 115.223750639 -41.7842232556 c 2
EndSplineSet
Fore
SplineSet
-27 -332 m 5
 -22.6428571429 -279.472727273 -6 -248 18 -225 c 4
 42.7622188083 -201.269540309 72.1552710791 -168.303595648 82 -140 c 4
 90 -117 93 -93 93 96 c 7
 93 184.071979276 93.3348132111 252.881118729 97 301 c 4
 99.3428194448 332.307259846 104.125 358 100 358 c 7
 94.8 358 83 339.461538462 54 330 c 5
 46 352 l 5
 73.8309859155 364.810810811 93.6338028169 379.756756757 122 431 c 5
 142 422 l 5
 135 406.115384615 131.42289173 375.437510879 129 363 c 4
 120.428571429 319 117 217 117 196 c 7
 117 37 115 -47 115 -84 c 7
 115 -144.019607843 100.949746252 -162.665093967 87 -184 c 4
 70 -210 40.6652436079 -233.321075033 22 -258 c 4
 12.9339165367 -269.987049204 -1.29411764706 -294.426470588 -2 -335 c 5
 -27 -332 l 5
EndSplineSet
EndChar
StartChar: uni0239
Encoding: 569 569 2663
Width: 717
VWidth: 1159
Flags: W
HStem: -348 32<258.344 305.696> -342 34<401.751 479> -10 41<414.924 559.174> -5 49<165.359 266.298> 359 46<156.342 306.337 452.715 545.853> 649 32<259.25 301.705> 734 20G<385.5 427>
VStem: 29 64<129.107 267.488> 326 66<-179.537 7 65.9375 334.815 386 586.338> 622 66<112.646 268.802>
LayerCount: 2
Fore
SplineSet
209 359 m 3x1fc0
 154.83203125 359 93 299.83984375 93 226 c 3
 93 136 142.974609375 44 234 44 c 3
 269.774414062 44 301.186523438 60 323 80 c 1
 324 154 327 231 327 306 c 0
 327 337 301.780273438 339.104492188 277 346 c 0
 255.439453125 352 217.29296875 359 209 359 c 3x1fc0
392 355 m 1
 431.627929688 376 486.921875 402 533 402 c 3
 619.907226562 402 688 300 688 208 c 3
 688 75 577.114257812 -10 469 -10 c 3
 442.275390625 -10 416.4140625 -2 394 7 c 1
 394 -75 394.065429688 -246.991210938 399 -284 c 0
 401 -299 419.9765625 -303.310546875 431 -304 c 0
 447 -305 466 -307 480 -308 c 1
 479 -342 l 1x6fc0
 440 -341 409 -339 367 -339 c 3
 337 -339 289 -344 259 -348 c 1
 256 -316 l 1x8fc0
 267 -315 275.181640625 -313.822265625 286 -311 c 0
 309 -305 314.497070312 -293.959960938 317 -266 c 0
 322 -210.1484375 326 -111.333007812 326 53 c 1
 285.48828125 23 233.005859375 -5 175 -5 c 3
 85.4296875 -5 29 79 29 172 c 3
 29 296.686523438 134.291015625 405 238 405 c 3
 264.041992188 405 323.248046875 385 338 385 c 3
 350.723632812 385 362.076171875 394.657226562 375 415 c 1
 396 408 l 1
 393.942382812 394.577148438 392.248046875 372.314453125 392 355 c 1
489 355 m 3
 442.622070312 355 414.97265625 336 390 321 c 1
 392 64 l 1
 421.671875 46 454.94140625 31 499 31 c 3
 572.276367188 31 622 85 622 170 c 3
 622 262 569.15234375 355 489 355 c 3
EndSplineSet
EndChar
StartChar: uni0255
Encoding: 597 597 2673
Width: 446
Flags: HW
AnchorPoint: "Top" 231 465 basechar 0
AnchorPoint: "Bottom" 228 -15 basechar 0
LayerCount: 2
Fore
SplineSet
232 -11 m 3
 183 -11 34 7 34 182 c 3
 34 307.648535565 145 413 267 413 c 3
 315 413 364 393 395 370 c 1
 394 343 393 345 338 313 c 1
 300 333 248 353 214 353 c 3
 144 353 106 300.154929577 106 219 c 3
 106 113 178 40 274 40 c 3
 315.588235294 40 375 52.7689629354 375 85 c 3
 375 108.331882292 359.142857143 119 338 119 c 3
 323.198122065 119 305 100.659476035 305 76 c 3
 305 13.6179056584 362 -69 362 -69 c 1
 313 -88 l 1
 313 -88 260 9.19672131147 260 66 c 3
 260 116.129191049 302.779584146 156 348 156 c 3
 397.921875 156 419 120.319799849 419 94 c 3
 419 8.71325938342 299.7875 -11 232 -11 c 3
EndSplineSet
EndChar
StartChar: uni0256
Encoding: 598 598 1113
Width: 511
Flags: HW
AnchorPoint: "TopRight" 503.5 581 basechar 0
AnchorPoint: "Top" 390 734 basechar 0
AnchorPoint: "Bottom" 224 -15 basechar 0
LayerCount: 2
Fore
SplineSet
228 359 m 3
 206 359 174.4998206 345.796757268 155 333 c 0
 123 312 98 278 98 226 c 3
 98 136 154 44 256 44 c 3
 297 44 333 60 358 80 c 1
 359 154 362 231 362 306 c 0
 362 337 336 340 310 346 c 0
 284 352 238 359 228 359 c 3
427 185 m 3xe8
 427 89.5144454052 422.207254437 -15.7665296108 428.543945312 -133.506835938 c 0
 430.712113361 -173.79296875 457.955616231 -194.506835938 483.543945312 -194.506835938 c 3
 501.851562501 -194.506835938 524.767578125 -177.216796875 540.052734375 -170.12109375 c 1
 554.543945312 -200.506835938 l 1
 498.235351563 -232.134765625 463.535156251 -264.506835938 427.427734375 -264.506835938 c 3
 365.557488974 -264.506835938 350.017578125 -216.7890625 350.017578125 -154.58984375 c 3xf0
 350.017578125 -86.8851685729 361 -22.2647505687 361 53 c 1
 316.272727273 23 259.618181818 -5 197 -5 c 3
 97 -5 34 79 34 172 c 3
 34 252 79.5630586284 321.640322119 135 359 c 0
 181 390 237 405 267 405 c 3
 292 405 349 388 363 386 c 1
 363 504 361 562.992063992 361 626 c 0
 361 642 354 656 337 656 c 3
 331 656 306 650 296 649 c 1
 288 681 l 1
 340 692 399 720 442 754 c 1
 462 738 l 1
 456 724 449.413489624 696.954544586 448 686 c 0
 428 531 427 354 427 185 c 3xe8
EndSplineSet
EndChar
StartChar: uni0260
Encoding: 608 608 2675
Width: 463
Flags: HW
HStem: -319 60<136.702 255.206> -9 43<175.235 298.553> 375 44<175.783 305.372>
VStem: 32 74<114.071 277.274> 338 65<-87.6784 344.282> 410 19<410.755 416.053>
AnchorPoint: "Top" 252 465 basechar 0
AnchorPoint: "Bottom" 198 -15 basechar 0
LayerCount: 2
Fore
SplineSet
404 183 m 3
 404 75.7718062383 403 -43.371196161 403 -95 c 3
 403 -145 390.818956684 -175.880611215 377 -197 c 0
 354.752929688 -231 326.441437189 -252.377000749 287 -278 c 0
 249.55308107 -302.327267059 221.696296296 -319 171 -319 c 3
 132.719626168 -319 72.906542056 -304 43 -274 c 1
 44 -247 43 -247 92 -210 c 1
 129.556099398 -231.00036951 159.406908886 -259 196 -259 c 3
 219.176667204 -259 258.80566161 -259.641451465 274 -248 c 0
 302.595703125 -226.090820312 318.329158638 -185.990912222 325 -157 c 0
 332.3125 -125.220493621 338 -48.9492728157 338 143 c 3
 338 197.415039062 338 260.661132812 338 303 c 3
 338 309 333.484375679 324.52903977 328 332 c 0
 304.508713108 364.000446429 262.043565538 375 225 375 c 3
 158.117142229 375 106 299.475352894 106 216 c 3
 106 125.503180427 152.11702474 34 240 34 c 3
 302.38256392 34 331.098162287 62.9410351562 341 75 c 1
 344 32 l 1
 310.083053234 15.6001291583 257.666946766 -9 196 -9 c 3
 102.91900059 -9 32 89.5152715203 32 182 c 3
 32 310.45761565 143.218817718 419 275 419 c 3
 310.547277426 419 327.822997855 412.659118041 340 406.49609375 c 1
 340 435.7571875 341 487.389780267 341 511 c 3
 341 605.576271186 361.666449212 648.938384759 410 696 c 0
 448 733 536.484375 766.183908046 544 767 c 1
 565 767 599 739 599 712 c 3
 599 681 570 660 531 660 c 1
 522.882352941 693.75 505.294117647 700 485 700 c 3
 471.829268293 700 441.484739915 686.682705237 425 668 c 0
 410 651 411.110619241 589.997665195 410 540 c 0
 408.794013494 485.709107735 404 370.393588188 404 183 c 3
EndSplineSet
EndChar
StartChar: uni0283
Encoding: 643 643 2678
Width: 309
VWidth: 1159
Flags: W
HStem: -326 36<-14.0642 20.4431> 355 46<39 113 187 338> 701 55<273.481 377.117>
VStem: 113 73<-170.918 360 397 602.722>
LayerCount: 2
Fore
SplineSet
114 266 m 0
 114 328.450964172 113 424.161769924 113 493 c 3
 113 601 143.077949695 661.439820849 200 704 c 0
 236.111111111 731 270.37037037 756 325 756 c 3
 357 756 407 745 432 723 c 1
 431 696 432 696 383 659 c 1
 344 677 313 701 275 701 c 3
 198.186440678 701 195.27024278 608.896437283 187 498 c 1
 187 434.60965851 185.722269097 351.021209812 185 293 c 0
 184.164092406 225.85 184.42446481 171.543697529 183.345703125 55 c 0
 182.342007512 -53.4339567976 179.423768933 -124.413476345 170.249023438 -172 c 0
 157.630814681 -237.446686212 132.308131815 -279.271062226 103.470703125 -323 c 1
 93.330078125 -322 94.189453125 -321 52.189453125 -321 c 3
 31.189453125 -321 -0.248046875 -325 -12.1083984375 -326 c 1
 -22.1669921875 -290 l 1
 34.828869585 -275.843201216 68.3758175305 -238.849077265 86.3564453125 -187 c 0
 104.803838183 -131.964818646 113.811919211 -53.1323947924 115.264648438 20 c 0
 116.034822802 87.1082535059 114 193.315942361 114 266 c 0
EndSplineSet
EndChar
StartChar: uni028A
Encoding: 650 650 1140
Width: 475
Flags: HW
HStem: -3.6 17.64<108.296 175.971> 223.161 27.1269<48.2066 88.9579 180.183 218.421> 246.6 7.56<32.4888 34.209 233.274 234.998>
VStem: 13.6398 36.36<71.1032 134.012> 26.9598 15.48<181.566 217.368> 217.4 33.48<64.3986 129.986> 224.24 14.4<179.685 217.451>
AnchorPoint: "Top" 244 465 basechar 0
AnchorPoint: "Horn" 438 333 basechar 0
AnchorPoint: "Ogonek" 395 -3 basechar 0
AnchorPoint: "Bottom" 237 -15 basechar 0
LayerCount: 2
Fore
SplineSet
306 404 m 1x74
 366 404 421 407 429 411 c 1
 427 389 429 367 435 350 c 1
 401 353 l 1xa8
 395 354 389 354 382 355 c 1
 375 356 360 358 347 359 c 1
 349 289 435 273 435 165 c 3
 435 74 345 -6 237 -6 c 3
 128 -6 40 71 40 165 c 3x74
 40 272 130 295 135 359 c 1
 120 358 105.948869282 356.42126704 96 355 c 0
 89 354 82 354 80 354 c 1
 45 353 l 1
 50 376 52 392 50 411 c 1xa2
 58 407 115 404 175 404 c 1
 168.254545455 266 122 297 122 177 c 3
 122 101 184.09352518 33 259 33 c 3
 312.9 33 357 78 357 140 c 3
 357 263 312.735849057 260 306 404 c 1x74
EndSplineSet
EndChar
StartChar: gravecomb
Encoding: 768 768 93
Width: 0
Flags: HW
HStem: 430.175 225.516
VStem: -337.486 169.82
AnchorPoint: "TopMark" -195 625 basemark 0
AnchorPoint: "Top" -198.5 409 mark 0
AnchorPoint: "TopMark" -196 410 mark 0
LayerCount: 2
Fore
SplineSet
-169 445 m 1
 -191 435 l 1
 -232.023828125 519.21356 -277.415328125 589.998615 -317 632 c 1
 -299 648 l 1
 -253.296875 602.325 -198.0915625 504.9459 -169 445 c 1
EndSplineSet
EndChar
StartChar: acutecomb
Encoding: 769 769 15
Width: 0
Flags: HW
HStem: 427.951 225.517
VStem: -234.611 169.822
AnchorPoint: "TopMark" -216 403 mark 0
AnchorPoint: "Top" -198.5 402 mark 0
AnchorPoint: "TopMark" -191 616 basemark 0
LayerCount: 2
Fore
SplineSet
-232 445 m 1
 -202.9084375 504.946915 -147.703125 602.325 -102 648 c 1
 -84 632 l 1
 -123.584671875 589.99763 -168.976171875 519.21356 -210 435 c 1
 -232 445 l 1
EndSplineSet
EndChar
StartChar: uni0302
Encoding: 770 770 92
Width: 0
VWidth: 1159
Flags: HW
HStem: 422.6 184.8
VStem: -310.25 225.5
AnchorPoint: "TopMark" -198.5 587 basemark 0
AnchorPoint: "TopMark" -200.5 384 mark 0
AnchorPoint: "Top" -198.5 401 mark 0
LayerCount: 2
Fore
SplineSet
-83 436 m 5
 -103.549804688 423.599609375 l 5
 -198 584 l 5
 -291.450195312 423.599609375 l 5
 -312 436 l 5
 -211 608 l 5
 -184 608 l 5
 -83 436 l 5
EndSplineSet
EndChar
StartChar: tildecomb
Encoding: 771 771 799
Width: 0
Flags: HW
HStem: 421.645 21G<-344.926 -307.255> 434.053 60<-213.463 -120.137> 471.391 59.446<-293.306 -199.999>
VStem: -344.926 273.107
AnchorPoint: "TopMark" -214 389 mark 0
AnchorPoint: "TopMark" -198.5 538 basemark 0
AnchorPoint: "Top" -210 382 mark 0
LayerCount: 2
Fore
SplineSet
-339.5 442.5 m 1
 -309.76848744 483.602179806 -289.372519077 514.836914062 -260.112304688 514.836914062 c 3
 -223.48671737 514.836914062 -176.640820598 474.051757812 -145.9921875 474.051757812 c 3
 -139.88252135 474.051757812 -113.105833786 503.845254617 -98 539 c 1
 -76 528 l 1
 -95.3698821475 488.626253369 -121.43273975 450.051757812 -143.9921875 450.051757812 c 3
 -182.81585589 450.051757812 -235.200175967 490.836914062 -263.111328125 490.836914062 c 3
 -269.765420687 490.836914062 -292 468 -320 429 c 1
 -339.5 442.5 l 1
EndSplineSet
EndChar
StartChar: uni0306
Encoding: 774 774 105
Width: 0
VWidth: 1159
Flags: HW
HStem: 436.274 54.719<-267.503 -128.241>
VStem: -330.178 28.08<532.771 549.079> -92.9023 28.081<535.635 549.079>
AnchorPoint: "TopMark" -200.5 396 mark 0
AnchorPoint: "TopMark" -202 541 basemark 0
AnchorPoint: "Top" -198.5 393 mark 0
LayerCount: 2
Fore
SplineSet
-327.801872934 549.76059283 m 5
 -304.404921542 555.106649062 l 5
 -288.505196619 486.163035455 -242.404906653 454.274 -198.026 454.274 c 4
 -153.638066948 454.274 -107.220446346 486.07117909 -90.568797407 555.219419558 c 5
 -67.2208814026 549.66328204 l 5
 -85.5282672589 471.804455359 -140.956322273 430.274 -198.026 430.274 c 4
 -255.071545838 430.274 -310.168549523 471.864609551 -327.801872934 549.76059283 c 5
EndSplineSet
EndChar
StartChar: hookabovecomb
Encoding: 777 777 747
Width: 0
VWidth: 1159
Flags: HW
HStem: 632 25<-238.461 -208.052>
VStem: -249 40<476.234 536.043> -195 48.5<551.957 627.828>
AnchorPoint: "Top" -221.5 444 mark 0
AnchorPoint: "TopMark" -219.5 639 basemark 0
AnchorPoint: "TopMark" -221.5 445 mark 0
LayerCount: 2
Fore
SplineSet
-295.5 596 m 5
 -289.5 635.426229508 -252.272 661 -216 661 c 7
 -173.488 661 -146.5 623.336354839 -146.5 595 c 7
 -146.5 531.726 -216 522.372 -216 515 c 7
 -216 495.889571429 -211.882727273 480.853085714 -206 472 c 5
 -227 460 l 5
 -235.766821429 472.803867925 -240 494.165377358 -240 515 c 7
 -240 558.685246753 -170 542.048597403 -170 593 c 7
 -170 612.080852459 -187.131470588 637 -216 637 c 7
 -246.59904 637 -269.49088 615.163843205 -272 591 c 5
 -277.904537037 591.833333333 -288.982722222 593.5 -295.5 596 c 5
EndSplineSet
EndChar
StartChar: uni030A
Encoding: 778 778 98
Width: 0
VWidth: 1159
Flags: HW
HStem: 425.265 31.606<-232.945 -164.224> 545.129 31.606<-231.776 -163.399>
VStem: -275.22 32.227<467.081 533.825> -153.007 32.227<468.175 534.808>
AnchorPoint: "TopMark" -200.5 382 mark 0
AnchorPoint: "TopMark" -198.5 562 basemark 0
AnchorPoint: "Top" -198.5 395 mark 0
LayerCount: 2
Fore
SplineSet
-198 549.015625 m 7
 -223.541401079 549.015625 -247.190429688 528.202937421 -247.190429688 499.823242188 c 7
 -247.190429688 471.719444244 -224.487587314 452.984375 -198 452.984375 c 7
 -172.458598921 452.984375 -148.809570312 473.797062579 -148.809570312 502.176757812 c 7
 -148.809570312 528.406650806 -171.512412686 549.015625 -198 549.015625 c 7
-198 572.831054688 m 7
 -158.690572544 572.831054688 -124.99609375 541.740867115 -124.99609375 502.172851562 c 7
 -124.99609375 460.054753069 -160.09430971 429.168945312 -198 429.168945312 c 7
 -237.309427456 429.168945312 -271.00390625 457.431985647 -271.00390625 499.827148438 c 7
 -271.00390625 541.944050224 -235.90569029 572.831054688 -198 572.831054688 c 7
EndSplineSet
EndChar
StartChar: uni0313
Encoding: 787 787 110
Width: 0
Flags: HW
HStem: 438.94 204.12
VStem: -218.13 116.64
AnchorPoint: "TopMark" -178 410 mark 0
AnchorPoint: "TopMark" -167 631 basemark 0
AnchorPoint: "Top" -179 414 mark 0
LayerCount: 2
Fore
SplineSet
-184.110351562 467.290039062 m 1
 -198.690429688 480.25 l 1
 -171.150390625 509.41015625 -161.186523438 545.176757812 -165.48046875 553.150390625 c 0
 -171.150390625 563.6796875 -181.299804688 570.938476562 -193.01953125 577.450195312 c 0
 -195.450195312 578.799804688 -195.450195312 582.174804688 -195.450195312 585.549804688 c 3
 -195.450195312 588.673828125 -195.54296875 591.983398438 -193.830078125 592.83984375 c 0
 -180.870117188 599.3203125 -169.90625 605.44140625 -165.48046875 620.379882812 c 0
 -164.759765625 622.809570312 -161.879882812 623.620117188 -159 623.620117188 c 3
 -155.759765625 623.620117188 -153.484375 622.899414062 -152.51953125 621.190429688 c 0
 -143.844726562 605.799804688 -135.970703125 597.313476562 -122.549804688 592.83984375 c 0
 -120.120117188 592.030273438 -120.120117188 588.790039062 -120.120117188 585.549804688 c 1
 -120.120117188 578.259765625 -154.950195312 496.450195312 -184.110351562 467.290039062 c 1
EndSplineSet
EndChar
StartChar: uni0314
Encoding: 788 788 693
Width: 0
VWidth: 1159
Flags: HW
HStem: 440.2 201.6
VStem: -295.6 112.8
AnchorPoint: "TopMark" -231 409 mark 0
AnchorPoint: "TopMark" -227 631 basemark 0
AnchorPoint: "Top" -224 414 mark 0
LayerCount: 2
Fore
SplineSet
-211.700195312 467.290039062 m 1
 -240.860351562 496.450195312 -275.690429688 578.259765625 -275.690429688 585.549804688 c 1
 -275.690429688 588.790039062 -275.690429688 592.030273438 -273.260742188 592.83984375 c 0
 -259.83984375 597.313476562 -251.965820312 605.799804688 -243.291015625 621.190429688 c 0
 -242.326171875 622.899414062 -240.05078125 623.620117188 -236.810546875 623.620117188 c 3
 -233.930664062 623.620117188 -231.05078125 622.809570312 -230.330078125 620.379882812 c 0
 -225.904296875 605.44140625 -214.940429688 599.3203125 -201.98046875 592.83984375 c 0
 -200.267578125 591.983398438 -200.360351562 588.673828125 -200.360351562 585.549804688 c 3
 -200.360351562 582.174804688 -200.360351562 578.799804688 -202.791015625 577.450195312 c 0
 -214.510742188 570.938476562 -224.66015625 563.6796875 -230.330078125 553.150390625 c 0
 -234.624023438 545.176757812 -224.66015625 509.41015625 -197.120117188 480.25 c 1
 -211.700195312 467.290039062 l 1
EndSplineSet
EndChar
StartChar: uni0315
Encoding: 789 789 1177
Width: 0
Flags: HW
HStem: 450.494 206.751
VStem: -59.75 61<571.847 641.311>
AnchorPoint: "TopRight" -110.5 531 mark 0
LayerCount: 2
Fore
SplineSet
-49.75 655.245117188 m 1
 -25.75 648.245117188 l 1
 -36.3490608392 580.131650593 -61.0613447552 506.548641164 -106 450.494 c 1
 -126 464.494 l 1
 -81.147045283 521.264800611 -59.5887245283 586.575071265 -49.75 655.245117188 c 1
EndSplineSet
EndChar
StartChar: uni031B
Encoding: 795 795 1179
Width: 0
Flags: HW
HStem: 330 18<-84.5 -47.4434>
VStem: 12.8818 62.7432<400.38 466.056>
AnchorPoint: "Horn" -73.5 341.8 mark 0
LayerCount: 2
Fore
SplineSet
51 445 m 3
 51 464.415444558 46.0236925263 472.412018207 27.3740234375 474.837890625 c 1
 27.8304353016 485.569942673 33.751612237 492.322265625 45.20703125 492.322265625 c 3
 54.572752193 492.322265625 75.625 481.857421875 75.625 444.775390625 c 3
 75.625 401.047637708 -8.03866133706 335.95183321 -75.9999983639 330.381086682 c 0
 -78.8636902859 330.14635172 -81.6995022121 330.017305466 -84.5 330 c 1
 -85 348 l 1
 -82.0319884559 348.103992548 -79.0284556308 348.340164656 -76.0000014807 348.699743332 c 0
 -17.1977239301 355.681538024 51 409.188137862 51 445 c 3
EndSplineSet
EndChar
StartChar: uni0327
Encoding: 807 807 267
Width: 0
UnlinkRmOvrlpSave: 1
Flags: HW
VStem: -195 62.4277<-164.273 -94.0566>
AnchorPoint: "Bottom" -193 -15 mark 0
LayerCount: 2
Fore
SplineSet
-289.175 -200.003 m 1
 -283.140625 -176.811523438 l 1
 -218.572286751 -203.314359929 -157 -157.068135778 -157 -112 c 3
 -157 -93.1603956581 -176.454154195 -64.5279542158 -230.635742188 -94.12890625 c 1
 -241.123 -72.4629 l 1
 -238.075 -70.4492 -234.607590935 -69.1004923903 -231.521 -67.0766 c 0
 -201.063848812 -47.1057007746 -206.304675624 -45.6231009097 -187.624023438 5.4326171875 c 1
 -159.624023438 13.4326171875 l 1
 -159.624023438 13.4326171875 -178.400893025 -46.0894495873 -185.072265625 -56.9287109375 c 1
 -159.256413949 -58.4529448954 -132.572 -78.8679435737 -132.572 -111.429 c 3
 -132.572 -180.25 -220.06 -229.425 -289.175 -200.003 c 1
EndSplineSet
EndChar
StartChar: uni0328
Encoding: 808 808 1184
Width: 0
Flags: HW
HStem: -300 24<-243.432 -167.363>
VStem: -288.438 24<-253.689 -159.614>
AnchorPoint: "Ogonek" -104.35 21.6582 mark 0
LayerCount: 2
Fore
SplineSet
-94.4580078125 14.7470703125 m 1
 -215.929475209 -65.4126696377 -264.438476562 -156.125869915 -264.438476562 -210.834960938 c 3
 -264.438476562 -252.603441357 -240.321369991 -276 -213.228515625 -276 c 3
 -183.061308079 -276 -149.140670982 -261.467250311 -128.466796875 -226.26953125 c 1
 -121.521204603 -230.625136529 -115.468533841 -236.342331358 -112 -246 c 1
 -135.396934757 -282.913648659 -175.705230653 -300 -213.228515625 -300 c 3
 -253.200520455 -300 -288.438476562 -265.618520571 -288.438476562 -210.834960938 c 3
 -288.438476562 -142.237277198 -232.737422312 -47.2739706482 -101.678710938 36.7763671875 c 1
 -94.4580078125 14.7470703125 l 1
EndSplineSet
EndChar
StartChar: uni032B
Encoding: 811 811 1187
Width: 0
Flags: HW
HStem: -191.727 58.7197<-299.158 -221.723 -168.478 -90.3257>
VStem: -341 29.2578<-113.904 -85.4508> -210.079 30.3369<-115.385 -85.5898> -78.0791 29.2578<-113.904 -85.4508>
CounterMasks: 1 70
AnchorPoint: "Bottom" -193 -15 mark 0
LayerCount: 2
Fore
SplineSet
-341 -86.3506 m 1
 -316.7421875 -82.58984375 l 1
 -308.773870559 -139.474756301 -282.98648867 -168.006835938 -261.12109375 -168.006835938 c 3
 -245.269575536 -168.006835938 -210.107792185 -140.924042821 -207.079101562 -86.58984375 c 1
 -182.7421875 -86.58984375 l 1
 -180.060391963 -140.810718511 -145.010870547 -168.006835938 -129.12109375 -168.006835938 c 3
 -107.301937752 -168.006835938 -81.4051559444 -139.59335054 -73.0791015625 -82.58984375 c 1
 -48.8213 -86.3506 l 1
 -60.47 -156.601 -94.8857 -191.727 -129.196 -191.727 c 3
 -154.025 -191.727 -178.798 -173.119 -195.055 -135.903 c 1
 -211.52 -173.119 -236.385 -191.727 -261.196 -191.727 c 3
 -295.534 -191.727 -329.765 -156.601 -341 -86.3506 c 1
EndSplineSet
EndChar
StartChar: uni0357
Encoding: 855 855 2024
Width: 0
VWidth: 1159
Flags: W
HStem: 425 32<-225 -185.058> 545 32<-225 -184.551>
VStem: -174 32<468.768 533.857>
AnchorPoint: "TopMark" -200 382 mark 0
AnchorPoint: "TopMark" -198 562 basemark 0
AnchorPoint: "Top" -198 395 mark 0
LayerCount: 2
Fore
SplineSet
-219 457 m 1
 -196 457 -174 476 -174 502 c 3
 -174 526 -195 545 -219 545 c 1
 -225 545 l 1
 -225 577 l 1
 -219 577 l 1
 -177 577 -142 544 -142 502 c 3
 -142 457 -179 425 -219 425 c 1
 -225 425 l 1
 -225 457 l 1
 -219 457 l 1
EndSplineSet
Validated: 1
EndChar
StartChar: uni0373
Encoding: 883 883 1204
Width: 371
UnlinkRmOvrlpSave: 1
Flags: HW
HStem: -15 56<453.501 528.845> 332 67<323.91 616.335> 332 4<430.001 431.001> 340 68<142.401 500.479>
VStem: 17.0008 41<252.776 315.678> 197.001 36<210.226 342.034> 313.001 41<233.929 347.859> 393.001 70<45.7802 260.172> 556.001 24<74.6344 87> 617.001 35<357.5 437.294>
LayerCount: 2
Fore
SplineSet
257 619 m 1x8fc0
 210 344 182.734375 130.0078125 182.734375 94 c 3
 182.734375 62.9892578125 182.264648438 30.3515625 182 -4 c 1
 161.505859375 -3.3271484375 103.927734375 -0.8056640625 101 9 c 1
 109.307617188 27.181640625 115.294921875 41.44140625 128 109 c 0
 165.348632812 307.599609375 196 488.258789062 216 621 c 1
 216 623 257 622 257 619 c 1x8fc0
272 681 m 3
 393.016601562 681 389.038085938 684.041015625 408.599609375 690.799804688 c 1
 437.399414062 671.599609375 l 1
 410.56640625 606.448242188 376.578125 534.05859375 373 449 c 1
 333 455.400390625 l 1
 341 506.184570312 351 555.015625 367 605.799804688 c 1xcfc0
 273.8359375 605.799804688 159.599609375 612 123 612 c 3x9fc0
 92.6298828125 612 82 591.396484375 82 584 c 3
 82 531.665039062 88.6826171875 483.35546875 96.2001953125 459.200195312 c 1
 72.2001953125 439.200195312 l 1
 43.8466796875 470.084960938 24 553.236328125 24 596 c 3
 24 657.745117188 73.783203125 681 272 681 c 3
EndSplineSet
EndChar
StartChar: uni0374
Encoding: 884 884 1205
Width: 138
Flags: HW
HStem: 458 286
VStem: 32 30<463.367 483.541>
LayerCount: 2
Fore
SplineSet
32 465 m 1
 73 744 l 1
 136 728 l 1
 62 458 l 1
 32 465 l 1
EndSplineSet
Position2: "cpsp-1" dx=0 dy=0 dh=7 dv=14
EndChar
